<?xml version="1.0" encoding="utf-8"?>
<!-- Generator: Adobe Illustrator 24.2.3, SVG Export Plug-In . SVG Version: 6.00 Build 0)  -->
<svg version="1.1" id="Layer_1" xmlns="http://www.w3.org/2000/svg" xmlns:xlink="http://www.w3.org/1999/xlink" x="0px" y="0px"
	 viewBox="0 0 512 512" style="enable-background:new 0 0 512 512;" xml:space="preserve">
<style type="text/css">
	.st0{fill:#F0F0F0;}
	.st1{fill:#D80027;}
</style>
<circle class="st0" cx="256" cy="256" r="256"/>
<g>
	<path class="st1" d="M200.348999,222.6089935h309.4840088C493.4700012,97.0019989,386.0669861,0,256,0
		c-19.1150055,0-37.7319946,2.1129999-55.6520081,6.085v216.5240021h0.0010071V222.6089935z"/>
	<path class="st1" d="M133.5650024,222.6080017V31.1270008C63.2719994,69.4810028,12.9499998,139.8320007,2.1670001,222.6089935
		h131.397995V222.6080017z"/>
	<path class="st1" d="M133.5639954,289.3909912H2.1670001c10.783,82.7770081,61.1049995,153.1279907,131.397995,191.4810181
		L133.5639954,289.3909912L133.5639954,289.3909912z"/>
	<path class="st1" d="M200.3480072,289.3919983V505.914978C218.2680054,509.8869934,236.8849945,512,256,512
		c130.0670166,0,237.4700012-97.0020142,253.8330078-222.6090088H200.3480072V289.3919983z"/>
</g>
</svg>
