<?xml version="1.0" encoding="utf-8"?>
<!-- Generator: Adobe Illustrator 24.2.3, SVG Export Plug-In . SVG Version: 6.00 Build 0)  -->
<svg version="1.1" id="Layer_1" xmlns="http://www.w3.org/2000/svg" xmlns:xlink="http://www.w3.org/1999/xlink" x="0px" y="0px"
	 viewBox="0 0 512 512" style="enable-background:new 0 0 512 512;" xml:space="preserve">
<style type="text/css">
	.st0{fill:#F0F0F0;}
	.st1{fill:#0052B4;}
	.st2{fill:#D80027;}
</style>
<circle class="st0" cx="256" cy="256" r="256"/>
<g>
	<path class="st1" d="M52.9199982,100.1419983c-20.1090012,26.163002-35.2719994,56.3179932-44.1010017,89.0769958H141.996994
		L52.9199982,100.1419983z"/>
	<path class="st1" d="M503.1809998,189.2189941c-8.82901-32.7579956-23.9930115-62.9129944-44.1010132-89.0759964
		l-89.0749817,89.0759964H503.1809998z"/>
	<path class="st1" d="M8.8190002,322.7839966c8.8299999,32.7579956,23.993,62.9129944,44.1010017,89.0750122l89.0740051-89.0750122
		H8.8190002L8.8190002,322.7839966z"/>
	<path class="st1" d="M411.8580017,52.9210014c-26.1629944-20.1089973-56.3169861-35.2719994-89.0759888-44.1020012v133.177002
		L411.8580017,52.9210014z"/>
	<path class="st1" d="M100.1419983,459.07901c26.163002,20.1090088,56.3179932,35.2720032,89.0759888,44.1019897V370.0050049
		L100.1419983,459.07901z"/>
	<path class="st1" d="M189.2169952,8.8190002c-32.7579956,8.8299999-62.9129944,23.993-89.0749969,44.1010017l89.0749969,89.0749969
		V8.8190002z"/>
	<path class="st1" d="M322.7829895,503.1809998c32.7579956-8.8299866,62.9129944-23.9930115,89.0749817-44.1010132
		l-89.0750122-89.0749817v133.1759949H322.7829895z"/>
	<path class="st1" d="M370.0050049,322.7839966l89.0750122,89.0759888
		c20.1080017-26.1619873,35.2720032-56.3179932,44.1010132-89.0759888H370.0050049z"/>
</g>
<g>
	<path class="st2" d="M509.8330078,222.6089935H289.3930054h-0.0010071V2.1670001C278.4609985,0.744,267.3169861,0,256,0
		c-11.3190002,0-22.4609985,0.744-33.3909912,2.1670001v220.4400024v0.0010071H2.1670001C0.744,233.5390015,0,244.6829987,0,256
		c0,11.3190002,0.744,22.4609985,2.1670001,33.3909912h220.4400024h0.0010071v220.4420166
		C233.5390015,511.256012,244.6809998,512,256,512c11.3169861,0,22.4609985-0.7430115,33.3909912-2.1669922V289.3930054v-0.0010071
		h220.4420166C511.256012,278.4609985,512,267.3190002,512,256C512,244.6829987,511.256012,233.5390015,509.8330078,222.6089935z"/>
	<path class="st2" d="M322.7829895,322.7839966L322.7829895,322.7839966L437.0190125,437.019989
		c5.2539978-5.2520142,10.2659912-10.7430115,15.0480042-16.4349976l-97.802002-97.802002H322.78302v0.0010071H322.7829895z"/>
	<path class="st2" d="M189.2169952,322.7839966h-0.0019989L74.9800034,437.0190125
		c5.2519989,5.2539978,10.7430038,10.2659912,16.4349976,15.0480042l97.8020096-97.8040161v-31.4790039H189.2169952z"/>
	<path class="st2" d="M189.2169952,189.2189941v-0.0019989L74.9810028,74.9800034
		C69.727005,80.2320023,64.715004,85.7230072,59.9330025,91.4150009l97.803009,97.8030014h31.4809875V189.2189941z"/>
	<path class="st2" d="M322.7829895,189.2189941L322.7829895,189.2189941L437.019989,74.9810028
		c-5.2520142-5.2539978-10.7430115-10.2659988-16.4349976-15.0470009l-97.802002,97.8029938V189.2189941z"/>
</g>
</svg>
