<svg xmlns="http://www.w3.org/2000/svg" width="930.03" height="135.25" viewBox="0 0 930.03 135.25">
  <defs>
    <style>
      .cls-1 {
        fill: #0b212e;
        fill-rule: evenodd;
      }
    </style>
  </defs>
  <path id="Lotte_Munk" data-name="Lotte Munk" class="cls-1" d="M1278.45,489.016h112.42v-40.3h-2.02q-4.245,17.482-13.44,27.6t-25.39,10.12h-32.75V360.584h20.42v-2.576h-59.24v2.576h20.42V486.44h-20.42v2.576Zm148.04-57.868A34.717,34.717,0,0,1,1431,419a17.376,17.376,0,0,1,7.64-6.716,30.12,30.12,0,0,1,21.71,0,17.406,17.406,0,0,1,7.63,6.716,34.521,34.521,0,0,1,4.51,12.144,97.7,97.7,0,0,1,1.47,18.492q0,13.067-2.02,20.792T1466.6,482.3a15.326,15.326,0,0,1-7.72,5.428,34.836,34.836,0,0,1-18.77,0,15.35,15.35,0,0,1-7.73-5.428q-3.315-4.14-5.34-11.868t-2.02-20.792A97.7,97.7,0,0,1,1426.49,431.148Zm-16.19,34.776a45.62,45.62,0,0,0,23.37,22.356,39.463,39.463,0,0,0,31.65,0,45.65,45.65,0,0,0,23.36-22.356,36.925,36.925,0,0,0,3.68-16.284,36.3,36.3,0,0,0-3.95-16.744,46.547,46.547,0,0,0-23.92-22.08,37.505,37.505,0,0,0-29.99,0,46.547,46.547,0,0,0-23.92,22.08,36.187,36.187,0,0,0-3.96,16.744A36.925,36.925,0,0,0,1410.3,465.924Zm87.62-53.268h14.17v58.512q0,9.755,5.43,15.088t19.22,5.336a21.415,21.415,0,0,0,9.2-1.748,17.774,17.774,0,0,0,5.98-4.416,18.553,18.553,0,0,0,3.41-5.612,42.265,42.265,0,0,0,1.65-5.336l-2.57-.92a22.83,22.83,0,0,1-5.06,10.764,12.953,12.953,0,0,1-10.4,4.692,13.675,13.675,0,0,1-3.77-.552,8,8,0,0,1-3.59-2.3,12.76,12.76,0,0,1-2.67-4.968,28.745,28.745,0,0,1-1.01-8.372V412.656h26.13V410.08h-26.13V384.872a11.978,11.978,0,0,1-3.86,2.116,15.835,15.835,0,0,1-4.79.644,18.08,18.08,0,0,1-4.41-.368q-1.29-.368-2.76-0.92V410.08h-14.17v2.576Zm64.07,0h14.17v58.512q0,9.755,5.42,15.088t19.23,5.336a21.415,21.415,0,0,0,9.2-1.748,17.875,17.875,0,0,0,5.98-4.416,18.756,18.756,0,0,0,3.41-5.612,43.976,43.976,0,0,0,1.65-5.336l-2.57-.92a22.83,22.83,0,0,1-5.06,10.764,12.953,12.953,0,0,1-10.4,4.692,13.675,13.675,0,0,1-3.77-.552,7.944,7.944,0,0,1-3.59-2.3,12.632,12.632,0,0,1-2.67-4.968,28.745,28.745,0,0,1-1.01-8.372V412.656h26.13V410.08h-26.13V384.872a12.082,12.082,0,0,1-3.86,2.116,15.88,15.88,0,0,1-4.79.644,17.969,17.969,0,0,1-4.41-.368q-1.29-.368-2.76-0.92V410.08h-14.17v2.576Zm83.85,28.152a75.579,75.579,0,0,1,1.56-11.592,34.534,34.534,0,0,1,3.59-9.752,18.254,18.254,0,0,1,6.44-6.716,19.388,19.388,0,0,1,10.3-2.484,20.55,20.55,0,0,1,6.53,1.012,11.763,11.763,0,0,1,5.16,3.4,16.953,16.953,0,0,1,3.31,6.44,37.428,37.428,0,0,1,1.19,10.3v4.6a34.708,34.708,0,0,1-.36,4.784h-37.72Zm56.48,2.576q0-10.118-3.4-16.928a32.082,32.082,0,0,0-19.41-16.928,36.486,36.486,0,0,0-27.23,1.748,44.19,44.19,0,0,0-21.99,23,40.058,40.058,0,0,0-3.22,15.732,44.419,44.419,0,0,0,3.13,17.02,38.061,38.061,0,0,0,8.83,13.156,38.866,38.866,0,0,0,13.52,8.464,47.989,47.989,0,0,0,17.02,2.944q9.2,0,15-2.852a30.169,30.169,0,0,0,9.2-6.624,26.784,26.784,0,0,0,4.97-7.544,53.28,53.28,0,0,0,2.11-5.8l-2.76-.552q-0.735,2.208-2.21,5.7a25.11,25.11,0,0,1-4.5,6.9,24.625,24.625,0,0,1-8.28,5.8q-5.25,2.392-13.34,2.392t-12.98-3.5a22.308,22.308,0,0,1-7.36-8.832,38.278,38.278,0,0,1-3.22-11.96,115.2,115.2,0,0,1-.73-12.7q0-2.941.09-4.876t0.09-3.772h56.67Zm38.64,45.632h43.61V486.44h-20.42V362.976h0.37L1808.31,489.2l43.97-127.512h0.37V486.44h-20.42v2.576h59.25V486.44h-20.43V360.584h20.43v-2.576h-40.67L1816.77,457h-0.37l-34.04-98.992h-41.4v2.576h20.43V486.44h-20.43v2.576Zm251.86-2.576h-14.17V410.08h-29.8v2.576h13.98v42.688a38.248,38.248,0,0,1-2.39,13.892,39.191,39.191,0,0,1-5.98,10.58,27.237,27.237,0,0,1-7.91,6.808,17.317,17.317,0,0,1-8.38,2.392,14.964,14.964,0,0,1-7.72-1.748,13.722,13.722,0,0,1-4.79-4.784,19.355,19.355,0,0,1-2.48-7.084,56.21,56.21,0,0,1-.65-8.832V410.08h-29.99v2.576h14.17v52.256a39.534,39.534,0,0,0,.92,9.292,26.047,26.047,0,0,0,2.21,6.164,13.385,13.385,0,0,0,2.85,3.772,35.38,35.38,0,0,0,2.85,2.3,30.076,30.076,0,0,0,7.18,3.5,35.933,35.933,0,0,0,11.96,1.656,26.713,26.713,0,0,0,10.58-1.932,28.932,28.932,0,0,0,7.91-4.968,29.939,29.939,0,0,0,5.7-6.808,65.73,65.73,0,0,0,3.96-7.452h0.37v18.584h29.62V486.44Zm9.59,2.576h44.16V486.44H2032.4V444.856a39.023,39.023,0,0,1,2.3-13.616,33.94,33.94,0,0,1,6.35-10.856,29.4,29.4,0,0,1,9.38-7.176,25.514,25.514,0,0,1,11.22-2.576q7.185,0,10.58,4.6t3.41,11.776V486.44h-14.17v2.576h44.16V486.44h-14.17V432.712q0-12.877-7.63-18.768-7.65-5.887-19.78-5.888a31.51,31.51,0,0,0-22.64,8.464,32.087,32.087,0,0,0-5.79,7.176c-1.41,2.455-2.49,4.479-3.22,6.072h-0.37V410.08h-29.62v2.576h14.16V486.44h-14.16v2.576Zm113.14,0h40.11V486.44h-10.12V446.88h2.02l32.57,39.56h-13.06v2.576h41.4V486.44h-7.92l-40.66-49.128,28.7-24.656h11.04V410.08h-28.52v2.576h13.07L2147.56,444.3h-2.02V356.352h-29.99v2.576h14.16V486.44h-14.16v2.576Z" transform="translate(-1278.44 -356.344)"/>
</svg>
