<svg xmlns="http://www.w3.org/2000/svg" width="930.03" height="135.25"><path data-name="Lotte Munk" d="M.01 132.672h112.42v-40.3h-2.02q-4.245 17.482-13.44 27.6t-25.39 10.12H38.83V4.24h20.42V1.664H.01V4.24h20.42v125.856H.01v2.576zm148.04-57.868a34.717 34.717 0 014.51-12.148 17.376 17.376 0 017.64-6.716 30.12 30.12 0 0121.71 0 17.406 17.406 0 017.63 6.716 34.521 34.521 0 014.51 12.144 97.7 97.7 0 011.47 18.492q0 13.067-2.02 20.792t-5.34 11.872a15.326 15.326 0 01-7.72 5.428 34.836 34.836 0 01-18.77 0 15.35 15.35 0 01-7.73-5.428q-3.315-4.14-5.34-11.868t-2.02-20.792a97.7 97.7 0 011.47-18.492zm-16.19 34.776a45.62 45.62 0 0023.37 22.356 39.463 39.463 0 0031.65 0 45.65 45.65 0 0023.36-22.356 36.925 36.925 0 003.68-16.284 36.3 36.3 0 00-3.95-16.744 46.547 46.547 0 00-23.92-22.08 37.505 37.505 0 00-29.99 0 46.547 46.547 0 00-23.92 22.08 36.187 36.187 0 00-3.96 16.744 36.925 36.925 0 003.68 16.284zm87.62-53.268h14.17v58.512q0 9.755 5.43 15.088t19.22 5.336a21.415 21.415 0 009.2-1.748 17.774 17.774 0 005.98-4.416 18.553 18.553 0 003.41-5.612 42.265 42.265 0 001.65-5.336l-2.57-.92a22.83 22.83 0 01-5.06 10.764 12.953 12.953 0 01-10.4 4.692 13.675 13.675 0 01-3.77-.552 8 8 0 01-3.59-2.3 12.76 12.76 0 01-2.67-4.968 28.745 28.745 0 01-1.01-8.372V56.312h26.13v-2.576h-26.13V28.528a11.978 11.978 0 01-3.86 2.116 15.835 15.835 0 01-4.79.644 18.08 18.08 0 01-4.41-.368q-1.29-.368-2.76-.92v23.736h-14.17v2.576zm64.07 0h14.17v58.512q0 9.755 5.42 15.088t19.23 5.336a21.415 21.415 0 009.2-1.748 17.875 17.875 0 005.98-4.416 18.756 18.756 0 003.41-5.612 43.976 43.976 0 001.65-5.336l-2.57-.92a22.83 22.83 0 01-5.06 10.764 12.953 12.953 0 01-10.4 4.692 13.675 13.675 0 01-3.77-.552 7.944 7.944 0 01-3.59-2.3 12.632 12.632 0 01-2.67-4.968 28.745 28.745 0 01-1.01-8.372V56.312h26.13v-2.576h-26.13V28.528a12.082 12.082 0 01-3.86 2.116 15.88 15.88 0 01-4.79.644 17.969 17.969 0 01-4.41-.368q-1.29-.368-2.76-.92v23.736h-14.17v2.576zm83.85 28.152a75.579 75.579 0 011.56-11.592 34.534 34.534 0 013.59-9.752 18.254 18.254 0 016.44-6.716 19.388 19.388 0 0110.3-2.484 20.55 20.55 0 016.53 1.012 11.763 11.763 0 015.16 3.4 16.953 16.953 0 013.31 6.44 37.428 37.428 0 011.19 10.3v4.6a34.708 34.708 0 01-.36 4.784H367.4zm56.48 2.576q0-10.118-3.4-16.928a32.082 32.082 0 00-19.41-16.928 36.486 36.486 0 00-27.23 1.748 44.19 44.19 0 00-21.99 23 40.058 40.058 0 00-3.22 15.732 44.419 44.419 0 003.13 17.02 38.061 38.061 0 008.83 13.156 38.866 38.866 0 0013.52 8.464 47.989 47.989 0 0017.02 2.944q9.2 0 15-2.852a30.169 30.169 0 009.2-6.624 26.784 26.784 0 004.97-7.544 53.28 53.28 0 002.11-5.8l-2.76-.552q-.735 2.208-2.21 5.7a25.11 25.11 0 01-4.5 6.9 24.625 24.625 0 01-8.28 5.8q-5.25 2.392-13.34 2.392t-12.98-3.5a22.308 22.308 0 01-7.36-8.832 38.278 38.278 0 01-3.22-11.96 115.2 115.2 0 01-.73-12.7q0-2.941.09-4.876t.09-3.772h56.67zm38.64 45.632h43.61v-2.576h-20.42V6.632h.37l43.79 126.224L573.84 5.344h.37v124.752h-20.42v2.576h59.25v-2.576h-20.43V4.24h20.43V1.664h-40.67l-34.04 98.992h-.37L503.92 1.664h-41.4V4.24h20.43v125.856h-20.43v2.576zm251.86-2.576h-14.17v-76.36h-29.8v2.576h13.98V99a38.248 38.248 0 01-2.39 13.892 39.191 39.191 0 01-5.98 10.58 27.237 27.237 0 01-7.91 6.808 17.317 17.317 0 01-8.38 2.392 14.964 14.964 0 01-7.72-1.748 13.722 13.722 0 01-4.79-4.784 19.355 19.355 0 01-2.48-7.084 56.21 56.21 0 01-.65-8.832V53.736H614.1v2.576h14.17v52.256a39.534 39.534 0 00.92 9.292 26.047 26.047 0 002.21 6.164 13.385 13.385 0 002.85 3.772 35.38 35.38 0 002.85 2.3 30.076 30.076 0 007.18 3.5 35.933 35.933 0 0011.96 1.656 26.713 26.713 0 0010.58-1.932 28.932 28.932 0 007.91-4.968 29.939 29.939 0 005.7-6.808 65.73 65.73 0 003.96-7.452h.37v18.584h29.62v-2.58zm9.59 2.576h44.16v-2.576h-14.17V88.512a39.023 39.023 0 012.3-13.616 33.94 33.94 0 016.35-10.856 29.4 29.4 0 019.38-7.176 25.514 25.514 0 0111.22-2.576q7.185 0 10.58 4.6t3.41 11.776v59.432h-14.17v2.576h44.16v-2.576h-14.17V76.368q0-12.877-7.63-18.768-7.65-5.887-19.78-5.888a31.51 31.51 0 00-22.64 8.464 32.087 32.087 0 00-5.79 7.176c-1.41 2.455-2.49 4.479-3.22 6.072h-.37V53.736h-29.62v2.576h14.16v73.784h-14.16v2.576zm113.14 0h40.11v-2.576H867.1v-39.56h2.02l32.57 39.56h-13.06v2.576h41.4v-2.576h-7.92l-40.66-49.128 28.7-24.656h11.04v-2.576h-28.52v2.576h13.07l-36.62 31.644h-2.02V.008h-29.99v2.576h14.16v127.512h-14.16v2.576z" fill="#0b212e" fill-rule="evenodd"/></svg>