<svg id="Isolation_Mode" data-name="Isolation Mode" xmlns="http://www.w3.org/2000/svg" width="348.86447" height="153.88478" viewBox="0 0 348.86447 153.88478"><title>munk</title><path d="M567.18158,500.93582c-1.91327,9.10049-3.6994,18.23022-5.78217,27.29178-1.52521,6.636-3.3255,13.21613-5.24536,19.74994a23.41115,23.41115,0,0,1-3.12164,6.21313c-3.52167,5.273-7.99493,5.51767-11.5058.2912a40.69376,40.69376,0,0,1-5.03064-10.75949c-2.7453-9.05188-3.40839-18.4639-3.88739-27.87012-.03351-.65839-.07178-1.3165-.1438-2.63165-1.61,5.29214-2.9093,10.00586-4.479,14.62766-3.00684,8.85312-6.73315,17.40085-12.36725,24.92853a33.54411,33.54411,0,0,1-6.96063,7.03772c-4.71408,3.42084-9.4426,2.97043-13.97046-.68573a24.99089,24.99089,0,0,1-8.9971-17.03351c-1.155-9.724-1.59531-19.54187-2.09885-29.33215-.80374-15.627-1.05118-31.29166-2.25259-46.885a118.82134,118.82134,0,0,0-4.39221-22.46487c-2.15015-7.7355-4.93729-8.15265-10.50058-2.38376-7.40012,7.67368-11.75012,17.05728-15.0549,27.01657a126.64145,126.64145,0,0,0-6.66919,34.20627c-.37814,8.44818.81982,16.95468.94125,25.44052.15335,10.72113-.07086,21.44769-.14218,32.17188-.00333.49716.08072,1.16589-.19281,1.45886-.88651.94943-1.90381,2.4119-2.90286,2.43781a3.74116,3.74116,0,0,1-2.7966-2.37143,123.43879,123.43879,0,0,1-1.53467-14.86484c-.62927-21.46771-.88364-42.94772-1.65549-64.40952-.45123-12.54739-1.27985-25.11844-4.43216-37.361a34.3449,34.3449,0,0,0-3.12091-7.84021c-1.88248-3.43954-4.35675-3.81522-7.37662-1.281a43.4482,43.4482,0,0,0-10.483,13.23325,130.11546,130.11546,0,0,0-14.71539,53.99271c-.30362,5.55991,1.33621,11.2059,1.84036,16.83438.89038,9.94037,1.68549,19.8916,2.32407,29.85089.22806,3.55746-.75619,4.87024-2.76126,5.02658-2.02811.15814-3.21545-1.02182-3.60785-4.46469q-1.893-16.60849-3.5036-33.2489c-1.47635-15.24313-3.00439-30.4845-4.19479-45.75119-1.1713-15.02219-1.96173-30.07428-2.88968-45.11508-.2308-3.74075-.33438-7.48929-.52972-11.23248a19.951,19.951,0,0,0-.45026-2.34119l-3.39035,4.1683-.71756-.567c1.32385-1.82974,2.64771-3.65952,4.44391-6.14206a23.04807,23.04807,0,0,1,1.07913,3.39246c1.36316,11.1543,2.608,22.32343,4.02713,33.47043,1.41766,11.13559,2.99765,22.25052,4.99774,33.45291a8.01091,8.01091,0,0,0,.54794-1.37018c2.53726-12.52621,6.01132-24.72806,12.52289-35.86a35.3271,35.3271,0,0,1,11.201-12.1987c5.94525-3.84445,11.557-2.62457,15.40219,3.3688,3.67645,5.7305,5.08945,12.26648,6.28934,18.81769,1.19669,6.53375,2.09891,13.12143,3.20288,20.14774,1.19492-3.96765,2.1615-7.56714,3.36148-11.08707,3.30927-9.70728,7.62976-18.84552,15.71643-25.59894a25.78005,25.78005,0,0,1,6.2803-3.9527c4.3562-1.85632,8.2428-.83649,10.569,3.23959a56.4458,56.4458,0,0,1,5.22528,12.2894c3.362,11.72119,4.81259,23.80679,5.6517,35.93521,1.14874,16.60458,1.87082,33.23929,3.09424,49.83765a90.71955,90.71955,0,0,0,2.82626,14.91458,15.67333,15.67333,0,0,0,3.05011,5.64581c2.77875,3.52182,5.611,3.84229,8.97009.92114a28.41623,28.41623,0,0,0,5.18481-6.00937c7.08057-11.01813,10.93762-23.30853,13.41211-36.027,2.07977-10.68979,3.67-21.47446,5.52161-32.20941a7.86366,7.86366,0,0,1,1.15326-3.51108c.70038-.8728,2.22778-1.84982,3.0802-1.62079a3.71042,3.71042,0,0,1,1.98572,2.88574c.053,8.22766-.312,16.45935-.198,24.68494a149.50082,149.50082,0,0,0,4.93585,38.02261,31.17766,31.17766,0,0,0,6.17194,12.22855c1.07642-1.63678,2.31622-2.8541,2.75848-4.3132,1.684-5.55493,3.37433-11.132,4.57581-16.80383,2.188-10.32953,4.0072-20.73688,6.04041-31.09995.269-1.3714.94763-2.65732,1.33386-4.01212.51215-1.79663,1.88586-2.85065,3.47742-2.5751a4.80409,4.80409,0,0,1,3.0083,2.48962c1.86853,4.168,3.27661,8.54135,5.12128,12.72125,3.4516,7.821,6.786,15.72089,10.79285,23.25635,1.64362,3.09106,4.72742,5.5293,7.48383,7.88019,2.23151,1.9032,4.16461,1.57751,5.72614-.88113a24.92719,24.92719,0,0,0,3.627-7.8468c2.03094-9.58972,3.62469-19.27133,5.46234-28.9032a21.744,21.744,0,0,1,1.65155-5.44864c1.65857-3.39423,4.77228-3.58554,6.62988-.262a56.38324,56.38324,0,0,1,4.0929,9.60931c1.79511,5.36093,3.2851,10.82379,4.91968,16.23886.1557.51584.42364.9978.78,1.8197,1.42584-3.93015,2.5838-7.54959,4.04285-11.0433,2.18542-5.233,4.66779-10.31876,8.799-14.38751,5.02936-4.95331,9.6239-4.313,12.98682,1.93292,3.24921,6.03473,4.39832,12.68948,5.5387,19.34348,1.07709,6.285,2.22266,12.5582,3.4696,19.577,1.55548-2.111,2.55249-3.6113,3.69879-4.98718,2.01355-2.41684,4.01587-2.582,6.46088-.59088,1.21527.98969,2.35565,2.07135,3.99719,3.52527.72888-1.88818,1.64166-3.33942,1.82538-4.87772,1.12311-9.407,2.38867-18.81284,3.0304-28.25821,1.38159-20.336,1.35352-40.77344,4.52948-60.97662.14172-.90192.34247-1.79459.51636-2.69147.35956-1.85385,1.5033-2.8125,3.36121-2.55377,1.87714.26138,2.561,1.57321,2.5517,3.40436-.02466,4.8201.01453,9.64047.02112,14.46075.02789,20.38144.01147,40.763.108,61.14416.02478,5.2395.408,10.47711.61548,15.716.08325,2.10306.98193,2.97089,3.19067,2.4968,10.45465-2.24393,19.95825.4873,28.8764,5.82117a28.1007,28.1007,0,0,1,4.05621,3.617q-.26944.55875-.539,1.11743a17.9794,17.9794,0,0,1-4.05408-.69223,43.527,43.527,0,0,1-6.19177-3.20743c-7.17541-4.42908-14.90173-4.81055-22.91235-3.31107-4.65778.87183-7.03821-.09738-8.10809-4.65225a90.72088,90.72088,0,0,1-1.87689-15.01788,79.48814,79.48814,0,0,1,.5025-14.37613c-1.5329,8.73929-3.01666,17.4877-4.63678,26.21078a24.36255,24.36255,0,0,1-1.8595,5.67194c-1.45825,3.16507-3.47424,3.52231-6.11115,1.299-.31805-.26819-.614-.563-.91528-.85059-2.91827-2.78537-3.26221-2.74271-5.5567.715-.78265,1.1795-1.51361,2.39587-2.341,3.54279-1.86359,2.58316-4.53595,2.50439-5.81934-.42255a33.80513,33.80513,0,0,1-2.28217-7.86206c-1.29407-7.623-2.248-15.30432-3.5863-22.9187a31.42377,31.42377,0,0,0-2.55927-7.53094c-1.94965-4.24222-3.92456-4.6477-7.06683-1.28458a38.67413,38.67413,0,0,0-6.09485,8.142c-2.46863,4.691-4.354,9.68933-6.47528,14.56238a14.88266,14.88266,0,0,0-.47345,1.42041c-.59821,1.87195-1.39142,4.14139-3.5282,3.87463-1.13879-.14218-2.48322-2.27661-2.92163-3.7532-1.79718-6.05441-3.207-12.2226-4.91278-18.30591-.86346-3.07968-2.05365-6.06778-3.09619-9.09726l-.88751.09589c-.334,2.12936-.66376,4.25937-1.00269,6.388-1.72577,10.83936-3.1012,21.77209-7.55511,31.95071a22.6851,22.6851,0,0,1-3.58929,5.63309c-3.20764,3.71417-7.37219,4.03445-11.33875,1.17148a34.53053,34.53053,0,0,1-11.83832-16.04718c-3.11694-8.05524-5.774-16.28842-8.62933-24.44495q-.59976-1.71346-1.19861-3.42728Z" transform="translate(-378.42996 -409.87689)"/></svg>