<svg id="Layer_1" xmlns="http://www.w3.org/2000/svg" viewBox="0 0 163.66701 158.533"><style>.st0{fill:#FFFFFF;} .st1{fill:#496481;}</style><path class="st0" d="M163.667 66.333c0 20.996-14.027 45.56-30.555 58.72-5.64 4.49 9.463 30.27 2.555 33.28-5.505 2.4-32.82-17.674-38.94-16.38-6.322 1.338-23.672-1.27-30.393-2.286C37.667 135.333 0 117.43 0 77.667S32.494 0 78.333 0s85.334 26.57 85.334 66.333z"/><path class="st1" d="M132.293 148.99c-1.377-1.905-2.508-3.978-3.59-6.066-1.072-2.095-2.065-4.23-3.004-6.388-.932-2.163-1.8-4.353-2.592-6.576-.394-1.112-.77-2.233-1.1-3.375-.163-.573-.316-1.15-.44-1.745-.06-.298-.114-.6-.146-.92-.015-.163-.026-.328-.018-.515.027-.187-.018-.38.244-.736.093-.1.205-.17.205-.17l.092-.06.183-.118.367-.238.734-.476 1.445-.983c.954-.668 1.9-1.347 2.82-2.06 1.848-1.418 3.63-2.92 5.33-4.503 3.404-3.163 6.475-6.674 9.107-10.472 5.3-7.548 8.814-16.416 9.297-25.56.458-9.13-1.83-18.332-6.295-26.3-4.412-8.02-10.788-14.882-18.16-20.307-7.386-5.428-15.82-9.42-24.668-11.802-8.853-2.376-18.122-3.202-27.248-2.354-9.124.837-18.092 3.33-26.313 7.34-8.23 3.982-15.74 9.487-21.81 16.29-6.01 6.824-10.6 14.973-12.627 23.8-1.027 4.4-1.443 8.94-1.197 13.453.28 4.512 1.214 8.983 2.724 13.262 1.49 4.29 3.633 8.35 6.176 12.135 2.542 3.792 5.53 7.297 8.854 10.463 13.395 12.64 31.823 19.7 50.357 20.048 2.28.117 4.567-.14 6.872-.44 2.3-.32 4.595-.74 6.87-1.238 1.137-.25 2.272-.518 3.393-.82l.837-.23.104-.03c.093-.036.387-.043.418-.018.196.038.27.083.374.126.176.085.32.17.454.256.535.345 1.002.702 1.476 1.062l5.558 4.332c3.722 2.837 7.563 5.53 11.665 7.773 2.048 1.124 4.165 2.133 6.374 2.9 2.204.76 4.52 1.286 6.873 1.26zm0 0c-2.35.126-4.71-.303-6.965-.978-2.263-.678-4.444-1.606-6.56-2.653-4.22-2.123-8.175-4.727-12.01-7.458l-5.69-4.155c-.472-.336-.952-.676-1.414-.952-.114-.07-.227-.128-.317-.168-.03-.014-.09-.03-.04-.017-.04 0 .18.012.2-.02l-.108.035-.853.265c-1.137.344-2.28.65-3.428.943-2.296.58-4.61 1.077-6.953 1.478-2.335.383-4.733.728-7.152.684-18.998.058-38.152-6.814-52.424-19.74-7.063-6.477-12.924-14.5-16.234-23.655-1.662-4.56-2.716-9.358-3.066-14.22-.316-4.865.083-9.775 1.144-14.53 1.037-4.766 2.815-9.348 5.106-13.627 2.287-4.284 5.09-8.276 8.28-11.914 6.42-7.247 14.332-13.08 22.992-17.3 17.352-8.44 37.76-10.225 56.304-5.035 9.263 2.595 18.06 6.864 25.756 12.64 3.844 2.89 7.423 6.147 10.602 9.768 3.164 3.633 5.92 7.626 8.172 11.892 4.547 8.505 6.784 18.283 6.106 27.92-.708 9.667-4.57 18.87-10.223 26.532-2.843 3.835-6.11 7.332-9.687 10.452-1.788 1.56-3.65 3.03-5.575 4.412-.958.696-1.942 1.356-2.932 2.003l-1.5.95-.758.46-.38.228-.19.115-.094.057c-.063.036-.007.017.032-.033.075-.124 0-.004.008.096-.01.106-.006.236.002.366.018.264.057.542.106.82.096.56.227 1.123.368 1.684.286 1.124.62 2.243.976 3.356.713 2.226 1.513 4.43 2.36 6.614.84 2.187 1.74 4.354 2.72 6.484.986 2.125 2.023 4.237 3.317 6.2z"/><path class="st1" d="M85.24 96.482c2.784-1.59 5.034-2.964 6.75-4.113 1.717-1.154 3.462-2.674 5.236-4.56 1.66-1.768 2.93-3.63 3.82-5.574.887-1.95 1.508-4.454 1.864-7.523h-4.263c-3.67 0-6.555-.9-8.655-2.707-2.1-1.806-3.15-4.454-3.15-7.944 0-2.488.93-4.812 2.794-6.972 1.865-2.16 4.427-3.24 7.68-3.24 5.09 0 8.73 1.67 10.92 5.008 2.19 3.335 3.285 7.726 3.285 13.16 0 3.84-.826 7.338-2.485 10.5-1.657 3.157-3.67 5.982-6.037 8.462-2.427 2.538-5 4.698-7.723 6.47-2.722 1.773-5 3.217-6.837 4.34l-3.197-5.308zm-34.834 0c2.783-1.59 5.03-2.964 6.747-4.113 1.717-1.154 3.462-2.674 5.24-4.56 1.716-1.827 3.002-3.7 3.86-5.62.858-1.916 1.464-4.408 1.82-7.477h-4.26c-3.67 0-6.555-.9-8.658-2.707-2.1-1.806-3.15-4.454-3.15-7.944 0-2.488.93-4.812 2.796-6.972 1.864-2.16 4.426-3.24 7.68-3.24 5.092 0 8.73 1.67 10.92 5.008 2.19 3.335 3.284 7.725 3.284 13.16 0 3.84-.827 7.338-2.486 10.5-1.654 3.157-3.668 5.982-6.037 8.462-2.423 2.538-4.998 4.698-7.722 6.47-2.72 1.772-5 3.217-6.836 4.34l-3.196-5.308z"/></svg>