<svg id="Layer_1" xmlns="http://www.w3.org/2000/svg" viewBox="0 0 163.667 158.533"><style>.st0{fill:#FFFFFF;} .st1{fill:#496481;}</style><path class="st0" d="M163.667 66.333c0 20.996-14.027 45.56-30.555 58.72-5.64 4.49 9.463 30.27 2.555 33.28-5.505 2.4-32.82-17.674-38.94-16.38-6.322 1.338-23.672-1.27-30.393-2.286C37.667 135.333 0 117.43 0 77.667S32.494 0 78.333 0s85.334 26.57 85.334 66.333z"/><path class="st1" d="M127.294 146.324c.237-.01.103 0-.55.014l-.466.003c.34.01.677-.005 1.016-.016zM122.925 145.9c-.755-.147-1.624-.343-1.15-.18.752.144.93.194 1.743.314.646.113 1.13.176 1.02.17.23.034 1.012.107 1.364.113-.85-.047-1.922-.195-3.03-.406-.235-.055-.003-.015.053-.01zM64.172 130.827l.397.11c-.107-.043-.243-.08-.398-.11zM28.855 114.802c.238.18.365.218.406.192-.233-.15-.428-.268-.405-.192zM24.315 109.93c.092.11.17.2.252.3-.072-.14-.16-.264-.252-.3zM64.172 130.827l-1.017-.285c-.094.11.516.176 1.017.285zM114.576 143.04l.532.227-.494-.224-.038-.002zM81.396 131.363l.316-.038c.09-.044.17-.095.246-.15l-.562.188zM94.69 128.79c-.327-.12-.5.07-.596.186-.035.028-.062.073-.09.1.026-.018.054-.045.096-.056.17-.14.448-.157.727-.018.018-.033-.012-.102-.138-.212zM112.085 141.323l.334.174c-.09-.045-.234-.12-.335-.174zM71.958 131.396c-.02-.044-.065-.086-.114-.112-.002.036.043.074.114.112zM120.842 132.253c-.01-.008-.008.008-.015.007.035.07.05.09.015-.007z"/><path class="st1" d="M127.294 146.324l-.123-.177-.026-.038zM17.173 100.296c.01.02.013.03.022.05.22.228.113.087-.022-.05zM57.594 17.114c-1.348-.177 1.83-1.122-.15-1.198.22.17-1.45 1.264.15 1.198zM114.268 142.878l-.495-.244c.226.11.377.186.495.244zM57.442 15.916v-.004l-.206-.003.206.006zM8.283 74.854c-.09.06-.156.173-.22.29.054-.012.117-.08.22-.29zM12.802 94.705l-.16-.493c.047.204.104.36.16.493zM8.268 64.246c.082-.267.166-.346.182-.728-.034.03-.06.06-.09.1.04.147.036.33-.092.628zM11.485 53.605c-.06.038-.12.1-.18.148l-.107.338.287-.485zM134.853 106.834c-.225.143-.39.21-.53.25.255-.015-.846 1.3.53-.25zM114.59 142.998c-.068-.012-.16-.046-.322-.12l.346.165c.036.004.047-.002-.023-.045zM4.227 63.023l.476-1.863c-.163.514-.334 1.192-.476 1.863zM130.37 31.092l.347.262c-.11-.125-.23-.223-.346-.262zM6.154 55.657c.29-.263.51-.568.7-.896-.016-.088-.02-.185-.06-.257l-.64 1.154zM134.32 107.087h.004-.005z"/><path class="st1" d="M125.698 115.685c1.4-1.078.487-.714.683-1.064 1.585-1.373.883-.46 1.533-.8.973-.89 1.536-1.767 2.27-2.412.087-.014.238-.132.118.066.86-1.103 2.97-2.868 3.818-4.284.102-.07.163-.097.202-.103-.298.086-.448.004-.502-.115.515-.592.8-1.23 1.162-1.31-.322.358-.28.445-.38.658l.472-.68c.727-.357-.654.92-.486 1.066 1.016-1.257 1.964-2.894 2.79-3.81.422-.005-1.7 2.334-.452 1.216-.422.48-.877.934-1.313 1.4 1.326-.806-.778.868.498.175 1.71-1.88 1.682-2.282 3.262-4.26.172-.572-.335-.004-.166-.576 1.698-3.142 2.325-1.875 3.283-4.392.128-.717-.14-1.15.93-2.707l.083.758c.6-1.08.586-1.476.638-1.853.048-.38.127-.755.767-1.88-.016.488-.65 1.824-.453 1.504.998-1.39.264-1.175.752-2.354l.463-.105c.935-2.464 1.53-5.32 2.056-8.167.088.18.104.696.386.056.566-3.638 1.205-7.79 1.32-11.398-.145-.45-.275-.9-.46-1.34-.02-.315.135-.6.242-.263.04-1.403-.262-.052-.476-.703-.095-.78.147-1.063.31-.575-.528-2.433-1.714-6.75-2.07-9.323l.256.448c-.334-2.01-1.525-1.88-1.7-3.768l.186.31c-1.243-4.187-3.822-8.234-5.012-11.39-.88-.168-2.124-3.774-3.105-3.402-.548-1.126-.685-1.583-.914-2.127-.25-.528-.597-1.143-1.595-2.605-.586-.737-1.395-.623-2.243-1.397l.36-.38c-.482-.266-.972-.516-1.476-.747l-.147-1.03-.863-.67c.285.33.486.817.334.88-1.325-1.042-2.767-3.055-2.607-3.316-1.102-.772-2.24-1.492-3.364-2.21.21-.127.77.246 1.266.476-1.996-.925.057-.71-1.81-1.506.135.257-.31.173-.41.235-.294-.42-.874-.985-1.582-1.515-.714-.52-1.533-1.04-2.25-1.446l.47-.14c-2.443-1.723-5.415-3.204-8.414-4.667.99.704.434 1.178-.457.802l-.085-.712c-.72.05.807.66-.54.488-1.076-.6-.456-.985.27-.844-.475-.175-.973-.3-1.458-.45-.007-.2.356-.14.536-.31-.722.102-2.14-1.673-3.24-1.38l-.013-.198c-1.55-.636-2.7-1.04-3.8-1.345-1.093-.328-2.11-.63-3.423-.99-.203.493-1.186.072-2.07.256-.937-.33-1.915-.73-2.954-1.12-1.04-.378-2.16-.68-3.338-.91-1.705-.05-.566.36-1.364.545-.035-.504-2.408-.84-1.128-.993-1.428-.208-2.346-.283-3.363-.332-1.014-.063-2.13-.084-3.954.01.38.233.812.352.572.506-.657.036-1.473-.313-1.367-.546l.176-.04c-1.025.093-2.117.108-3.237-.016l-3.4-.414c-.567-.07-1.128-.142-1.677-.19-.548-.03-1.083-.048-1.598-.04-1.028.025-1.977.12-2.76.49l.178-.072c-1.102.312-2.2.597-3.285.936-1.543.153.867-.52-.313-.655-1.745.698-3.162.88-4.504 1.11-.672.103-1.33.19-1.99.33-.658.166-1.323.378-2.015.696-1.32-.473-3.32.146-5.36.893-1.014.403-2.05.81-3.024 1.165-.97.373-1.893.652-2.722.72l.305.262c-.626.613-.985.195-1.572.36.19.218.935-.066.55.317-3.085 1.533-6.275 3.056-9.47 4.693-3.198 1.63-6.343 3.483-9.215 5.623-2.095 1.59.048 2.33-2.943 3.86l.248-1.104c-1.693 2.046-3.55 3.96-5.337 5.944-1.74 2.017-3.448 4.08-4.586 6.412.05-.337-.106-.454.18-.87-.496.318-1.082 1.145-1.473 1.934-.372.803-.58 1.54-.42 1.647-.453.66-.392-.02-.816.304-.82.8-.798 2.7-1.494 2.983-.114.053.01-.34.075-.535-.18.713-1.512 2.975-.745 2.58-.54.815-.864 1.687-1.13 2.525-.27.837-.576 1.6-.953 2.286.117.578-.217 1.333-.494 2.023-.28.687-.435 1.33-.085 1.595-.396-.188-.79.584-1.076 1.567-.248.993-.345 2.196-.28 2.83-.177-.45-.467 1-.727.463-.2 1.4-.235 2.698.234 2.513-.684 1.208-.555 2.547-.496 3.7.136 1.168.24 2.166-.42 2.892.464 4.185 1.268 7.942 2.298 11.485-.41.027-.654-.97-.896-1.934-.19-.972-.368-1.91-.782-1.77.903 3.48 2.097 5.253 2.983 8.597.195.884-.496-.37-.73-.62 1.39 3.24 2.4 6.388 4.238 8.948-.068.026-.3-.23-.506-.482.32.526.593 1.305.867 1.076l-.374-.478c-.004-1.088 2.08 1.614 2.39 1.54-1.402-.365 1.38 2.7-.55 1.975.27.308.676.648.822.445.26.54.253.774-.295.405 1.393 1.712 1.262.854 2.38 2.48-.138.09-.418-.2-.694-.254.83.645 1.73 1.212 2.628 2.62-.138-.02-.12.214-.422-.18 1.87 2.19 3.766 3.166 5.77 5.544-1.144-.152.606.896.322 1.438.442.355.902.687 1.37 1.01l-.32-.655c1.116.968 2.33 1.543 3.21 2.453l-1.003-.5 2.223 1.634-1.08-1.14c1.34.696.332-.66 1.74.677-.353-.183 1.155.878 1.58 1.59l-.006-.003c.686.287 1.387.572 2.213 1.27.135.3-.53.38-.444.58.43.005 1.16.454 1.916.906.773.424 1.57.856 2.078.883-.315-.06-.475.175-.42.275l.7-.005c.52.452.582.543.374.684 1.762 1.03-.234-.895 1.744.51-.18-.065-.126.025-.5-.116 1.026.653 2.09 1.155 3.15 1.594.528.228 1.048.454 1.557.693.515.224 1.025.45 1.518.713.4.726-1.84-.662-1.328.03 3 1.248 6.407 1.97 9.32 3.03l-.532-.233c.598-.47 2.12.968 3.72 1.112-.382-.06-.582.21-.462.168 2.038.647 4.28.9 7.476 1.29-.14.035-.28.055-.42.082 1.214.33 3.25.61 4.59.807.42-.106 1.185 0 .742-.263 2.023.667 4.04.634 5.97.604 1.932-.103 3.796-.122 5.68-.03-.442.047-1.056.194-.7.172 1.058-.126 2.105-.276 3.142-.468-.275-.174-.426-.06-1.102-.148.382-.17 1.247-.373 2.014-.492-1.375.344.058.326.682.34-.11-.045.085-.146.024-.2 1.676.07.207-.428 2.447-.598l-.096.123c.813-.212 1.542-.492 2.43-.654.41.13-.85.283-.872.47 1.242-.278 2.357-.93 3.518-1.004-.508.19-1.263.366-1.775.545 1.274-.045 1.4-.146 2.312-.34l-.09.017c.704-.146 1.406-.303 2.107-.473l-.545.093c.426-.288.935-.503 1.372-.672.23-.128.45.044.673.162.25.148.5.32.758.498.518.357 1.072.74 1.718 1.098-1.83-1.013-.372-.073-.618-.01.404.365 1.03.907.81.81.9.48 1.28 1.095 2.56 1.768.017.085.87.644.6.622 1.092.736-.194-.26-.06-.252 1.733 1.056 3.742 2.957 6.32 4.358 2.163 1.285 2.626 1.42 4.66 2.55.654.438-.62-.214-.62-.214 1.07.68 1.918 1.126 2.996 1.644-.226-.09-.016.047.297.236.867.414.617.202 1.747.77-.208-.067-.482-.14-.914-.31 1.037.46 2.08.868 3.18 1.273.276.145-.68-.204-1.072-.342 1.22.506 3.22 1.143 3.625 1.207l-.8-.266c.457.143.223.113-.116.01-1.086-.316-1.53-.56-1.58-.6l.784.28c-.77-.38-3.116-1.22-4.617-1.982l.68.206-1.58-.69c-.31-.197-.494-.38.244-.008-1.027-.623-.96-.46-1.82-1.032-.093-.068-.045-.048.048 0l-1.034-.555c.214.09-.114-.19.494.196-1.758-1.153-2.95-1.68-3.542-2.22l.152.087c-2.46-1.57-.308-.042-2.22-1.128-.342-.374-.676-.755-1.004-1.142l-.32-.042c-.243-.18-.72-.536-.594-.523-.97-.57.115.167-.472-.13-1.09-.967-3.263-2.317-3.35-2.746-.498-.205 1.04.924-.25.064-.162-.518-1.457-1.043-2.42-1.966.43.108 1.366.952.41.016-.407-.128-.91-.534-1.432-.985l-.798-.678c-.286-.222-.495-.394-.878-.57-.022.033-.096.02-.218.002-.118-.033-.3-.042-.504.048-.832.3-2.32.64-3.617 1.01.096-.104-3.467.64-5.2.802l.04-.06c-.274.364-2.053.614-3.337.85.024-.2.245-.312.93-.493l-1.21.163c-.273.135-.644.25-1.427.363l.278-.28c-1.614.17-3.2.593-5.31.3-.128.253 1.668.735-.572.858-.08-.138-.155-.375.43-.417-.192.013-.685.097-1.068.03l.895-.21c-.953-.128-.506.18-1.272.14.024-.2-.56-.157-.443-.314.195-.013.663.1.958.03-.86-.04-1.892-.253-2.224-.43.07.12-.015.27-.646.252-1.626-.105-.538-.288-1.473-.467-.403.104-1.416-.177-1.477.136-.473-.057-.544-.215-.716-.323-.857.08-3.887-.544-3.005-.04l.21.057-.138-.008h.007-.006c-2.804-.062-5.61-1.27-8.29-1.813l.035-.115c-1.607-.327-3.52-.925-4.704-1.08-.46-.157-1.007-.59-.762-.666-1.212-.312-1.397-.23-2.997-1.1 1.248.253-.33-.346 1.254.32-1.46-.72-1.735-.992-3.456-1.385.67-.07-.935-.893-1.675-1.115l.93.688c-.812-.304-1.49-.643-2.157-1.026l.567-.226c-1.35-.985-2.765-1.445-4.06-1.973-1.314-.484-2.487-1.063-3.293-2.134-.92-.17 1.396 1.144.53 1.07-1.287-.83-2.195-2.323-2.58-2.59-1.55-1.375-1.98-.536-3.628-1.972.12.296.02.877-1.365-.02-1.156-1.022-.973-1.778-.14-1.285.29.218.39.375.34.413.42.26.963.605.62.07l-.263.018c-.466-.623-2.084-1.922-1.51-1.845-.953-.635-.57-.088.02.53-1.275-1.49-2.288-1.99-3.563-3.54.15.297.208.66-.016.438-1.92-2.223-1.174-.65-2.607-2.044-.556-1.03.782-.174-.75-1.48-.63-1.066.214-.527.647-.275-1.445-1.134-1.987-2.727-2.515-3.597l.687.655c-.41-.39-.684-.762-.965-1.137l.012.67c-.28-.485-.56-.86-.424-.95-.553-.305-.257.743-1.234.038-.257-.734-1.466-1.765-1.172-2.272 1.168 2.037.297-.51 1.47 1.073-.263-.28-.52-.664-.774-1.163.003-.102.135.004.244.112-.83-2.1-1.048-.528-2.26-2.504.416.09.2-.74-.018-1.043.444.808-.227.65-.834.004-.49-1.426-.933-1.336-1.26-2.05.087.29.21.562.315.844-.425-.118-.727-.808-1.252-1.72.178-.183.553.788.49.405-.49-.406-.648-1.064-.802-1.772-.133-.72-.235-1.5-.71-2.176-.084-.765.517-.28.41-.932-.934-1.556-.26-1.943-1.073-3.628-.267.636-.137.708-.89-.458l.556 1.45.636 1.418c-.393-.562-.842-1.115-1.2-1.705.245.913.88 1.802.98 2.36-.63-.786-.503-.733-.686-.187.096-.72-.22-1.286-.52-1.895-.29-.607-.62-1.242-.612-2.02l1.034-.225c-.064-1.123-.348-2.05-.745-3.058-.333-1.015-.718-2.13-.744-3.576-.04.316-.072.63-.08.944-.502-.32-.224-1.764-.493-2.68.378.058.428-.53.657-.94-.268.06-.028-2.087-.766-2.346.144-.432.343-.86.512-1.284.257-2.296-.897-2.713-.558-4.974.32.724.69-.255.828 1.265.064-.74.22-1.394-.023-1.44.306-.39-.184-2.13.303-2.747-.092-.34-.453-.518-.24-1.343.094-.074.18.043.18.043-.18-.04.04-1.357-.523-.723.395-.513.72-1.15.99-1.857.278-.703.44-1.493.703-2.246.24-.758.47-1.513.748-2.172.312-.646.66-1.2 1.087-1.568.235-.79.572-1.633.913-2.455.172-.41.34-.818.504-1.208l.54-1.075c.056.138.167.094-.003.324 1.31-1.626-.4-1.68 1.197-3.504 1.162-.702-.37 1.245.226.726.63.187.958-.43 1.316-1.222.377-.777.826-1.714 1.57-2.15l-.153.357c.505-.376.842-1.027 1.22-1.78.374-.752.76-1.632 1.447-2.344 0 0 .026.145.14.132.345-1.46 1.91-3.536 3.147-5.02-.07.774-.43.797.193.902.56-.65-.768-.397.363-1.706.59-.2 1.645-.886 2.147-.578-.4.355-.766.745-1.142 1.124 1.06-.077 1.495-1.43 2.212-1.905l.125.304c.868-.86 1.21-1.416 1.587-1.976.382-.552.764-1.154 1.85-1.923l-.364-.023c.707-1.49 1.24-.377 2.067-1.71l.815.395c.673-.69 2.342-2.52 3.768-3.524-.268.507-.79 1.086-1.35 1.654-.55.58-1.124 1.18-1.54 1.664.393-.26 1.046-.72 1.63-1.188.6-.442 1.126-.898 1.235-1.193-.286.264-.592.678-.977.77.66-1.12 1.805-2.23 3.496-3.115.42 1.476 4.548-1.997 6.33-1.39 2.804-1.87 6.157-2.29 9.806-3.426-1.643-.75 1.07-.355.516-1.462.858-.312 1.204-.366 1.302-.313.954.02 1.89 0 2.836.06.71.217-.78.43-.635.693 1.933-.324.915.332 2.238.384-.345-.366.54-.76 1.665-.795-.55-.106-1.092-.163-1.645-.247 1.282-.61 1.924-.43 2.55-.275.63.168 1.246.295 2.568-.195-.273.157-.543.317-.81.493.68-.226 1.972-.345 3.25-.595 1.28-.225 2.56-.47 3.23-1.01.26.12.605.426-.01.557 3.35-.044 7.562-1.16 10.176-.328l-.28.273c.636-.042 1.15-.485 1.91-.097-.052.115-.28.26.008.31.34-.064 1.728-.322 2.545-.063l-.754.245c1.617.368 2.883.417 4.126.32 1.228-.027 2.423-.147 3.816.058-.194.836 2.277 1.666 3.474 2.173l-.076.1c3.65 1.117 6.42 1.325 9.867 2.425 1.71 1.613 6.662 3.538 9.412 5.867-.39-.402.4-.477.99-.212.606.596 2.235.84 1.718 1.36l-.24-.178c.14.91 1.63 1.747 2.69 2.56l.742-.606c.993 1.604 2.836 2.94 4.488 4.256 1.636 1.32 3.107 2.57 3.32 3.674.745.46 1.466 1.22 2.164 1.73l-.388.27c.713.926 1.26 1.605 1.81 2.37.562.754 1.215 1.526 2.064 2.688l-.605-.292c.9 1.33 2.287.933 3.1 2.23l-.335.736c1.5 2.44 2.32 5.21 3.91 7.577-.105-.008-.31-.016-.512-.427.57 1.217 1.412 4.938 2.083 4.225-.548.204.83 2.802 1.345 4.286l-.447-.148c.79 1.156.966 1.172 1.383 2.962.02.437-.25.422-.243-.16.022 1.45.583 1.057.54 2.833l-.31-.623c.12 1.48.24 1.346.606 2.146.192.933.01 2.842-.318 3.055.202.197.473 1.02.35 1.898-.133.112-.19-.21-.23-.37-.333 2.453.158 3.73-.42 5.385-.12.018-.197.118-.255.25.31-1.943.434-3.523.454-3.373-.336-.025-.53 1.53-.88.242.188 1.264.393 3.505-.063 4.998-.045.067-.09.132-.15.177l-.002-.164c-.103.343-.14.66-.148.967-.152.47-.276.76-.39 1.22-.28.113-.595 1.71-.84 2.46.338.04-.04 1.013.528.173-.064.112.016-.153.145-.667.024-.118.058-.254.06-.336l.014.06c.14-.502.32-1.16.493-1.912.025.653-.01 1.334-.444 2.124.098.457.167.957.18 1.23-.776.908-1.734 2.784-2.113 2.94-.71 2.33-2.247 5.24-2.557 6.845-.29.64-.54.613-.742.793.154-.377.4-.785.44-1.013-.536 1.297-2.114 3.53-2.005 4.01-1.144 1.35.3-.994-1.047 1.01l.1-.33c-1.6 1.762-2.6 3.41-3.777 5.044-1.17 1.627-2.505 3.25-4.638 4.84.292-.223.438-.336.527-.35-3.723 3.287-7.65 6.64-12.027 9.28-.377.144-.412.586-.416.94.002.302.036.582.074.86.078.555.192 1.09.307 1.62.415 1.67.603 1.807.998 2.776l-.01.393.732 1.632c.936 2.34 1.298 4.185 2.725 7.054l-.113-.4c.438 1.06 1.505 3.306 1.384 3.15.058.104.198.324.37.737l-.01.044 1.29 2.504c1.02 1.932-.263-.246 1.317 2.523.593 1.03 1.855 2.817 1.604 2.45-.282-.387-.684-1.013-.697-1.047.194.304.39.606.597.903l.146.21c-.052-.085-.327-.453-.98-1.608l-.898-1.616-.253-.54.72 1.38-.957-1.834-.312-.71-.825-1.616c-.06-.214.387.717-.094-.402-.38-.76.27.774-.33-.5-.324-.824-.185-.603-.63-1.54-.033-.146.068.05.24.423-.395-.836-.95-2.252-1.186-2.67-.28-.88-1.153-2.896-.984-2.865-.132-.26-.67-1.482-.96-2.28.686 1.396-1.02-3-.646-2.697-.528-1.015-1.333-3.933-1.704-5.822.03.102.1.304.116.476-.067-.463-.077-.79-.05-1.01.012-.067.08-.085.1-.136.057.06.024.017.043.03l.137-.068c.014-.262 1.528-1.232 2.25-1.893 1.32-.57-.567.698-.073.64-.157-.107 1.96-1.5 1.456-1.38.983-.485.817-.46 1.397-.612-.04-.376.8-.62 1.395-1.323 1.35-.818.53.022 1.83-1.12.714-.43-.42.618-.42.618zm21.91-34.057h.008l-.172.84.165-.84zm.582-3.434c-.076.418-.156.94-.236 1.493-.14.1-.245-.05-.188-.393.054.2.244-.598.424-1.1zm-3.8 6.542c.102-.516.192-.672.282-.723l-.197.898.023.072c-.05-.065-.092-.137-.107-.246z"/><path class="st1" d="M144.553 85.772c-.014.076-.013.12-.037.217.058-.096.11-.187.16-.282l-.05-.21-.073.274zM64.64 130.955l-.07-.02c.056.023.108.044.14.07-.044-.023-.043-.033-.07-.05zM133.287 33.715l-.084.086.284.156zM83.35 132.232c.04.015.112.025.255.02-.014-.015-.123-.018-.255-.02zM91.337 130.573l1.134-.23-1.133.23zM96.566 131.276c.083.02.116.014.146.01l-.01-.01h-.136zM10.113 96.563c-.043-.075-.093-.146-.138-.21-.335-.484-.142-.136.138.21zM30.673 118.242c-.3-.125-.598-.248-.894-.405.41.34.74.59.893.405zM4.182 63.23s.004 0 .01.004c.008-.074.02-.14.036-.21-.02.067-.033.136-.046.205zM28.67 117c.358.408.744.636 1.11.838-.334-.284-.732-.607-1.11-.838zM119.75 145.152l.286.095c-.004-.004.014 0 .037.004l-.324-.098zM120.073 145.25l.323.093-.323-.092zM121.077 145.53l-.68-.187c.232.072.522.156.68.186zM112.182 141.776l-.1-.015c.048.02.083.025.1.016zM109.982 140.544c.513.313 1.266.823 2.016 1.203l.082.013c-.375-.137-1.577-.976-2.098-1.216zM101.65 134.162l1.656 1.292c-.262-.264-.602-.616.172-.057-2.015-1.728.357.437-1.83-1.235zM96.534 130.102c.927.66.053-.093.125-.09-.622-.383-.774-.47-.126.09zM50.59 127.054l.216-.273c-.827-.24-.05.118-.216.274zM41.6 125.18l.677.573.506-.112zM38.14 120.42c.114.05.227.104.345.148l-1.277-.632.932.485zM11.176 55.608l-.656.026c-.083.58.51.918.656-.026zM30.68 29.233c.485.03 1.355-.362 1.637-.957-.627.413-1.38.665-1.638.957zM123.684 30.768l-.635-.272 1.074.664zM45.407 93.815zM69.767 81.795c.008-.1.008-.184-.053-.194-.033.094.003.16.053.195zM71.393 79.975c-.04.036-.066.07-.098.103.077-.02.13-.053.098-.103zM61.925 91.128c-.13-.174-.235 0-.388.076l.388-.076zM57.538 95.126l-.084.06c.018.08.047.17.084.27v-.33zM53.762 96.775c.08.224.08.354.033.435.056.09.135.192.25.313.093-.03-.182-.522-.283-.748zM45.335 93.69l.042-.062c-.05-.095-.097-.19-.144-.28l.102.34zM73.546 76.215l-.016.016c.03.128.038.063.016-.015zM54.197 49.214c.564.382-.586.805.218 1.184-.126-.198.435-.99-.218-1.184zM73.747 66.65c.057-.008.126-.035.24-.115-.1.027-.17.07-.24.114zM72.732 63.008c.024-.1.094-.148-.004-.26-.026.017-.043.033-.06.052.084.03.13.085.064.208zM71.728 59.323c-.034.034-.055.07-.082.105l.07.105.012-.21z"/><path class="st1" d="M74.19 70.4c-.485.173-.37.203-.816-.267.096.356.2.717.282 1.082-.213-.245-.432-.484-.656-.718-.016.313.263.685.17.87-.367-.35-.25-.303-.657-.182.747-.387-.368-.86.125-1.33l1.18.036c.54-.783-.598-1.335-.342-2.314l-.193.32c-.477-.11-.083-.592-.3-.895.397.006.527-.2.763-.352-.287.04-.025-.724-.824-.74l.476-.484c.116-.82-1.215-.757-1.2-1.503.46.157.68-.23 1.065.232-.036-.254-.002-.495-.272-.454.226-.193-.644-.6-.322-.9-.192-.07-.6-.022-.627-.302.072-.047.192-.04.192-.04-.19.038-.357-.37-.73-.037 1.044-1.048-.615-2.027.145-2.992-.31-.487-.686-1.06-.925-1.508.12-.02.18-.08.182.025.04-.805-1.206.1-1.182-.772.37-.656.5.21.595-.125 1.096-.717-.613-.77-.262-1.616l.136.074c.147-.6-.988-.64-1.362-1.22 0 0 .11-.046.154-.122-.816.026-1.585-.438-2.195-.71.487-.265.4-.004.645-.485-.28-.138-.48.675-1.01.433.035-.338-.165-.778.095-1.263.166.102.334.202.49.32.194-.768-.642-.426-.817-.7l.2-.24c-.852-.395-1.228.29-2.03-.15l-.01.253c-.755.53-.21-.573-.884-.21l.128-.79c-.393.055-1.34.36-1.915.39.44-.51 1.196-.61 1.733-.793-.322-.127-1.133-.276-1.388.067.146-.05.36-.187.456-.035-.556.49-1.103.675-1.712.562.355-1.51-1.574-.618-1.96-1.796-.608.253-1.134.173-1.78.07-.627-.1-1.32-.23-2.05-.058.7 1.094-.418.1-.1 1.294-.29.14-.41.146-.457.078l.076.035-.08-.04v.002c-.366-.158-.753-.312-1.155-.43-.348-.26.23-.36.123-.612-.777.16-.474-.403-1.103-.513.258.376-.04.67-.53.718.278.077.548.168.81.27-.712 1.01-1.33-.562-2.03.59l.117-.522c-.42.454-1.888 1.287-1.587 2.4-.166-.035-.498-.178-.377-.42-1.177.93-1.053 2.796-2.068 3.33l-.206-.238c-.055.257.27.64-.133.762-.102-.07-.216-.228-.286-.135.024.166.172.81-.11 1.032l-.193-.394c-.905 1.074.038 2.17.055 3.167-.87-.18-1.32.822-1.473 1.358l-.124-.025c-.148 1.575.758 2.474 1.337 3.71-.4.49-.325 1.235-.1 2.02.224.79.617 1.592.785 2.37.02-.28.602-.322.815-.17.033.393 1.018.365.347.82l-.06-.105c-.482.693.176 1.135.56 1.54l.8-.694c-.038 1.037.81 1.528 1.584 1.812.784.298 1.485.42 1.555 1.2.406-.116.777.04 1.16-.115l-.2.53c.81.422 1.248.62 2.344.692l-.296.353c.624.154 1.034-1.472 1.544-1.443l.06.858c.51.052 1.01.27 1.52.378.256.058.51.076.764.043.164-.018.18-.052.218-.105.04-.053.088-.125.147-.22-.024.123-.07.367-.114.4.18.023.16.573.734-.587-.39.755.255.074.88-.26l-.538.56c.823-.713 1.067-.908 1.665-1.105 0 .04-.17.196-.257.264-.098.076-.15.098-.135.04-.25.407.63-.315.265.266-.13.047-.263.1-.396.163-.082.27.144.093.588.008.22.087-.255.69-.8.84.328-.078.738 0 .548.212-.204.045-.316 0-.372-.016-.468.41.54.615-.144 1.1-.182-.034-.28-.025-.343.002.04-.14.08-.275.113-.396.04-.144.043-.134.066-.2.034-.09.063-.144.08-.13-.526 0-.635.082-1.33-.072.096.017.218.05.338.1.03.012.06.023.09.04l.074.113c.048.077.093.154.132.23.16.31.232.615.055.8-.055.007-.108.014-.19.008l-.04-.057c-.078.084-.058.185 0 .293-.12.114-.21.177-.256.303-.42-.08-.376.408-.474.602.534.177.346.425.877.328-.05.02-.048-.064-.017-.214-.003-.038 0-.08-.022-.113l.04.03c.04-.145.09-.336.147-.553.22.26.38.526.003.665.3.23.6.488.736.624-.852.04-1.472.4-1.947.266.01.747-.54 1.486.106 2.432.002.25-.383.037-.563.01-.026-.157.062-.265-.032-.398.02.488-.574 1.043-.044 1.558-.58.223-.37-.636-.702.005l-.122-.212c-.883.185-.862.89-.943 1.625-.073.722-.254 1.473-1.356 1.5.146-.01.215-.02.318.05-.884.412-1.455 1.155-2.1 1.84-.643.68-1.363 1.304-2.393 1.347-.564.094-.35.515-.428.982l-.428-.447-.087.868c-.393.838-1.942-.55-2.263.774l.323.28c-.34.118-.83.787-1.023.357.008.083.12.423-.107.313l-.173-.265-.463.912c-.69.153-.55-1.133-1.412-.68-.198.235-.346.95-.283 1.28l-.414-.058c.037.103.155.234.266.284l.747.104c.025.026.05.046.072.08l-.205.316c.026.053.05.107.075.16l-.045.027.237.393c.153.336.315.658.545.905l1.264 2.102c-.042.03-.08.066-.123.095.058-.005.104-.03.16-.037l.274.457c-.078.1-.164.155-.25.106-.025.757.345 0 .28.782-.016.112-.045.14-.082.144.116.032.228.057.334.074-.122.135-.23.758-.317.38.1.63.356.754.534.785l.126.027c.056-.066.106-.118.148-.15.085-.063.14-.04.168.13l-.07.104c.516-.494.54-.69.565-.95.007-.123.02-.266.06-.447l.375-.23c.083.348.184.686.322 1l.043-.747c.09-.03.276-.095.282.19.273-.667-.096-.252.02-.794.253.17.54-.09.775-.254.237-.166.46-.26.766.12-.104-.482-.577-.057-.32-.602.673.812.375-.45.98-.265.18.525-.303.494.304.68-.278-.906.787-.263.988-.598-.377-.62.477-.662.84-1.18.102.222 1.14-.244 1.752-.334l.053.11c-.313-.67.236-.872.49-1.236.238.37.277.556.2.847l.323-.23c-.06-.248-.03-.42.128-.636l.24.504c.415-.338.472-1.143 1.226-1.267-.2-.29-.724-.564-.93-.93.09-.07.18-.143.27-.214.105.148.177.3.137.406.025-.066.027-.31.194-.295l.068.54c.367-.027-.116-.405.1-.52.242.31.315.107.484.373-.026.07-.27.006-.246.185.26-.116.667-.143.942.016-.16-.157-.337-.41-.214-.578.384-.355.442.25.808.208-.08-.292.362-.294-.018-.747.117-.098.32.09.47.172.036-.372.897-.904.248-1.162l-.08.015c.002-.018.013-.028.016-.048.247-1.018 1.562-1.006 2-1.814l.14.14c.203-.53.715-.934.65-1.497.104-.114.513-.03.644.177.16-.4.018-.576.644-.806 0 .534.326.094-.08.48.472-.286.8-.18.74-.96.268.47.75.09.784-.207l-.514.067c.118-.267.304-.433.492-.605l.444.514c1.334-.406.047-2.383 1.62-2.304-.227-.496-.602.31-.91-.21.35-.352 1.433-.276 1.52-.412.684-.397-.485-1.057.093-1.536-.25-.04-.836-.293-.77-.852.315-.374 1.16-.037 1.175.332-.04.115-.136.127-.203.082-.005.18-.024.416.3.373l-.174-.175c.337-.093.647-.712.91-.382-.015-.444-.262-.327-.506-.143.612-.397.484-.87 1-1.39-.166.042-.462.006-.412-.088.688-.78-.213-.585-.047-1.232.48-.206.746.465.724-.28.38-.298.618.146.734.38-.19-.756.706-1.012.904-1.35l.07.39c-.035-.233.015-.393.07-.556l-.51.04c.138-.164.19-.325.38-.262-.237-.285-.8-.09-1.09-.59.303-.18-.034-.81.59-.736-.418.73.64.074.548.778-.036-.152.016-.31.147-.482.075-.01.12.06.14.124.74-.644-.588-.535-.4-1.32.324.18.7-.043.654-.192-.08.326-.608.03-.82-.312.367-.455-.097-.585-.025-.84l-.177.277c-.33-.162-.248-.4-.304-.76.28.01.14.34.28.236-.558-.467.767-.79.4-1.39.264-.232.667.037.85-.176-.41-.664.544-.657.19-1.345zm-14.67 6.95c-.026-.162.093-.174.21-.158-.012.07-.022.153-.02.267l.06.038c-.098-.05-.188-.097-.25-.147zm-11.444 20.9l.093.153c-.04-.008-.08-.013-.124-.034.003-.05.02-.08.03-.12z"/><path class="st1" d="M60.13 77.848c.003.025.02.044.016.073.058-.01.107-.025.15-.04-.05-.04-.1-.076-.147-.112l-.02.08zM61.388 91.234c-.03-.004-.057-.008-.09-.027.03.01.042.023.065.033l.025-.006zM51.338 98.532l-.752.285c.165.152.433.328.088.61 1.167.025-.316-.376.664-.895zM53.354 97.626c-.244.274.172.264.223.378.083-.288.1-.36-.223-.378zM65.34 88.6c.133-.262-.146-.134-.357-.368l.357.367zM68.638 85.318l.118-.5-.106.356zM72.426 59.816l-.573.28c.165.15.854-.02.573-.28zM64.603 51.092c.014-.336-.235-.66-.544-.454.237.146.385.475.543.454zM48.238 71.24c.17.08.34.142.508.203l-.162-.178c-.115 0-.23-.014-.346-.024zM104.602 81.798c.008-.1.008-.184-.053-.194-.034.092.002.16.052.194zM106.228 79.977c-.04.036-.066.07-.098.103.077-.02.13-.053.098-.103zM96.76 91.13c-.13-.175-.235 0-.388.075l.388-.076zM92.373 95.127l-.084.06c.017.08.046.17.083.27v-.33zM88.597 96.775c.08.224.08.354.033.435.056.09.135.192.25.313.094-.03-.18-.52-.283-.748zM80.17 93.69l.04-.062-.143-.28.102.34zM108.382 76.218l-.016.016c.03.126.038.06.016-.016zM89.037 49.213c.564.382-.586.804.218 1.184-.127-.198.435-.99-.218-1.184zM108.583 66.652c.057-.007.126-.034.24-.114-.098.027-.17.07-.24.114zM107.57 63.01c.023-.1.093-.147-.005-.26-.026.018-.043.034-.06.053.084.03.13.085.064.208zM106.565 59.326c-.034.034-.055.07-.082.105l.07.106.012-.21z"/><path class="st1" d="M109.026 70.402c-.485.174-.37.204-.815-.266.097.356.2.717.283 1.082-.213-.245-.432-.484-.656-.718-.016.313.263.685.17.87-.367-.35-.25-.303-.656-.182.748-.387-.367-.86.126-1.33l1.18.037c.54-.785-.598-1.336-.342-2.315l-.193.32c-.476-.11-.082-.592-.298-.895.396.005.526-.2.762-.353-.288.04-.025-.724-.824-.74l.476-.484c.116-.82-1.215-.757-1.2-1.503.46.156.68-.23 1.065.23-.035-.253 0-.494-.27-.453.224-.193-.646-.6-.324-.9-.192-.07-.6-.022-.627-.302.07-.047.19-.04.19-.04-.19.038-.357-.37-.73-.037 1.044-1.047-.615-2.026.145-2.99-.31-.488-.686-1.062-.925-1.51.12-.02.18-.08.182.026.04-.806-1.206.1-1.182-.773.37-.656.5.21.595-.125 1.096-.717-.613-.77-.262-1.615l.136.074c.145-.6-.99-.637-1.363-1.218 0 0 .11-.046.154-.122-.815.026-1.584-.438-2.193-.71.487-.264.4-.004.645-.484-.278-.138-.48.676-1.01.434.036-.338-.165-.778.096-1.263.166.102.334.203.49.32.195-.767-.642-.425-.816-.7l.2-.24c-.852-.395-1.228.292-2.03-.15l-.01.253c-.755.53-.21-.573-.884-.21l.128-.792c-.393.056-1.34.36-1.915.39.443-.51 1.198-.61 1.735-.792-.322-.128-1.133-.276-1.388.066.146-.05.36-.187.456-.034-.558.488-1.105.674-1.714.56.354-1.51-1.575-.617-1.96-1.795-.608.252-1.134.173-1.78.07-.627-.1-1.32-.23-2.05-.058.7 1.095-.417.098-.1 1.293-.288.14-.408.146-.456.078l.075.035-.08-.04v.003c-.367-.157-.753-.312-1.156-.43-.35-.26.23-.36.122-.612-.777.16-.474-.402-1.102-.512.257.376-.04.67-.53.718.278.077.548.17.81.27-.712 1.008-1.33-.563-2.03.587l.117-.52c-.42.452-1.887 1.284-1.587 2.397-.166-.035-.498-.18-.377-.42-1.18.93-1.056 2.798-2.07 3.33l-.206-.237c-.054.258.272.64-.132.762-.102-.07-.216-.228-.286-.135.023.167.17.812-.112 1.033l-.192-.393c-.905 1.073.038 2.168.055 3.166-.87-.18-1.32.822-1.473 1.357l-.123-.025c-.15 1.576.757 2.473 1.336 3.71-.4.49-.326 1.235-.102 2.02.225.79.618 1.593.786 2.37.02-.28.602-.32.815-.168.034.393 1.02.366.347.82l-.06-.105c-.484.693.174 1.135.558 1.542l.8-.695c-.038 1.036.81 1.528 1.583 1.814.784.3 1.485.42 1.555 1.2.407-.114.778.04 1.162-.113l-.2.53c.81.422 1.247.62 2.343.693l-.296.354c.624.154 1.034-1.472 1.544-1.443l.06.858c.51.052 1.01.27 1.52.378.256.058.51.076.764.043.164-.017.185-.05.22-.104.04-.053.088-.125.147-.22-.025.123-.07.367-.115.4.18.023.16.573.732-.587-.39.755.254.074.88-.26l-.54.56c.824-.713 1.068-.908 1.666-1.105.008.033-.167.194-.253.26-.095.074-.155.103-.14.043.01.052-.05.134-.004.128.033.005.107-.03.18-.06.147-.065.29-.09.095.196-.13.047-.263.102-.396.164-.083.27.144.093.59.007.22.087-.258.692-.804.842.33-.08.74-.004.55.21-.205.044-.318 0-.373-.016-.47.415.54.606-.145 1.09-.18-.035-.28-.026-.343 0 .04-.14.08-.273.113-.394.034-.125.043-.13.065-.19.035-.09.065-.145.083-.132-.456.003-.62.055-1.1-.027.38.19.748.962.458 1.226-.053.007-.107.014-.187.007l-.043-.06c-.078.084-.06.184 0 .292-.122.112-.21.176-.258.3-.42-.08-.378.408-.478.602.534.18.344.426.876.332-.05.02-.047-.065-.016-.215-.004-.038 0-.08-.022-.112l.04.03c.04-.145.09-.336.15-.552.216.26.38.53-.002.666.3.234.598.492.733.628-.852.037-1.47.395-1.947.26.003.755-.545 1.5.104 2.444.002.248-.384.038-.564.01-.026-.155.062-.263-.032-.396.02.49-.57 1.047-.036 1.56-.578.224-.375-.635-.7.007l-.123-.212c-.88.19-.854.892-.933 1.625-.07.72-.25 1.472-1.353 1.5.145-.012.213-.022.317.05-.882.41-1.454 1.153-2.1 1.838-.64.68-1.36 1.305-2.392 1.348-.564.094-.35.515-.428.98l-.428-.445-.086.868c-.393.838-1.942-.55-2.263.774l.323.28c-.34.118-.83.787-1.023.357.008.083.12.423-.107.313l-.173-.265-.472.912c-.69.153-.55-1.133-1.41-.68-.246.292-.422 1.334-.2 1.447.132-.063.42-.025.586.243l-.205.317c.027.053.05.107.076.16l-.045.027.046-.027-.045.027.238.393c.153.337.315.66.546.906l1.264 2.1c-.042.03-.08.065-.123.094.057-.005.103-.03.158-.037l.275.457c-.078.1-.164.155-.25.106-.025.756.345 0 .28.78-.016.113-.045.142-.082.145.116.033.228.058.334.075-.122.135-.23.758-.317.378.1.633.357.756.536.787.045.01.087.016.125.03.056-.065.105-.12.148-.15.085-.062.14-.04.168.13l-.07.105c.517-.495.542-.692.566-.952.006-.122.02-.265.06-.446l.375-.23c.084.348.185.686.323 1l.044-.75c.09-.03.276-.095.282.19.272-.667-.097-.252.02-.794.252.17.54-.09.774-.254.237-.166.46-.26.766.12-.104-.482-.577-.057-.32-.602.673.812.375-.45.98-.265.18.523-.303.492.304.677-.278-.905.787-.262.988-.597-.377-.62.477-.662.84-1.18.102.222 1.14-.244 1.752-.334l.053.11c-.313-.67.236-.872.49-1.236.238.37.277.556.2.846l.324-.23c-.058-.247-.03-.418.13-.635l.24.505c.414-.338.47-1.143 1.225-1.267-.2-.29-.724-.565-.93-.93.09-.07.18-.144.27-.215.105.148.177.3.137.406.025-.067.027-.312.193-.296l.07.54c.366-.027-.118-.405.098-.52.243.31.316.107.485.373-.025.07-.268.005-.244.185.26-.117.667-.143.942.016-.16-.158-.337-.41-.214-.58.384-.354.442.252.808.21-.08-.293.362-.295-.018-.748.117-.098.32.09.47.172.036-.372.897-.903.248-1.162l-.08.016c.002-.018.013-.028.016-.048.247-1.018 1.562-1.006 2-1.814l.14.14c.204-.53.716-.934.65-1.497.104-.113.513-.028.644.178.16-.4.018-.576.644-.806 0 .532.326.092-.08.48.47-.288.8-.182.738-.963.27.47.75.09.785-.206l-.514.07c.118-.268.304-.434.492-.606l.444.514c1.333-.405.045-2.382 1.62-2.303-.228-.496-.603.31-.91-.21.348-.352 1.43-.276 1.52-.412.683-.396-.486-1.057.092-1.536-.25-.04-.836-.293-.77-.852.315-.373 1.16-.037 1.175.332-.04.115-.136.127-.203.082-.005.18-.024.415.3.372l-.174-.175c.336-.093.647-.712.91-.382-.015-.444-.262-.327-.506-.143.612-.397.485-.87 1-1.39-.165.042-.462.006-.41-.088.687-.78-.214-.585-.048-1.232.48-.206.746.465.724-.28.38-.298.62.146.735.38-.19-.756.706-1.012.904-1.35l.07.39c-.036-.233.014-.393.07-.556l-.512.04c.14-.164.192-.325.38-.262-.236-.285-.798-.09-1.088-.59.302-.18-.035-.81.59-.736-.42.73.64.075.547.78-.036-.153.016-.31.147-.483.076-.01.12.06.14.124.74-.645-.588-.536-.4-1.32.324.178.7-.044.654-.193-.08.326-.608.03-.82-.312.367-.455-.097-.585-.025-.84l-.177.277c-.33-.162-.248-.4-.304-.76.278.01.14.34.28.236-.56-.466.766-.79.4-1.39.263-.23.665.038.85-.175-.417-.66.538-.653.184-1.34zm-14.68 6.93c-.025-.163.093-.176.21-.16-.013.07-.02.155-.02.268.016.01.04.026.058.04-.097-.05-.187-.098-.247-.148zM82.913 98.248l.093.154c-.04-.008-.08-.013-.123-.034.002-.05.02-.077.03-.12z"/><path class="st1" d="M94.6 75.348c-.08-.04-.157-.062-.23-.04.093.02.155.027.23.04zM94.952 77.832c.005.025.022.044.016.073.058-.012.108-.025.15-.042-.05-.038-.1-.076-.148-.11l-.018.08zM96.223 91.235c-.03-.004-.057-.008-.09-.027.03.01.042.023.065.033l.025-.005zM86.173 98.533l-.752.285c.166.152.434.328.09.61 1.167.025-.317-.376.663-.895zM88.19 97.626c-.244.274.172.264.223.378.082-.287.1-.358-.223-.378zM100.175 88.6c.133-.26-.146-.132-.357-.366l.357.367zM103.473 85.32l.118-.5-.105.355zM107.263 59.82l-.573.28c.165.15.854-.02.573-.28zM99.442 51.094c.014-.336-.235-.66-.544-.454.238.146.386.475.544.454zM83.07 71.238c.17.078.34.142.508.202l-.162-.178c-.115-.002-.23-.015-.346-.024z"/></svg>