<svg id="Layer_1" xmlns="http://www.w3.org/2000/svg" viewBox="0 0 930 356.92874"><style>.st0{fill-rule:evenodd;clip-rule:evenodd;fill:#FFFFFF;}</style><path class="st0" d="M844.667 193.595l-7.334-99.333C837.333 61.53 775.44 0 742.71 0L592 .262c-7.44 40.254-10.277 52.755-6 121.333 4.277 68.58 1.333 151.334 1.333 151.334 0 32.73-16 62.665-14.666 84l253.565-11.03c32.73 0 18.435-119.573 18.435-152.305zM272 242.262l16-106.667c0-32.73-16.32-111.89-49.052-111.89l-50.27 16.855c-32.732 0-48.253 51.184-48.253 83.916l25.947 105.416c0 32.732-146.894 42.43-126.838 115.204l383.423 3.965C432 306.93 272 274.995 272 242.263z"/><path style="fill:#496481;" d="M597.8 162.93l-.715-156.85-.004-.904.92-.012 43-.604 21.5-.173 21.5-.082c14.333-.058 28.667 0 43 .17l43 .64.44.005.27.305c5.64 6.35 11.332 12.655 17.03 18.953 5.733 6.266 11.426 12.568 17.225 18.773L822.3 61.825l17.474 18.542.272.29.006.423.446 32.373.3 32.375.33 64.75c.042 21.583-.024 43.166-.188 64.75l-.306 32.374-.165 16.188-.25 16.187-1.22-1.22 45.5.433 45.5.587v.4l-45.5.588-45.5.43-1.2.013-.02-1.23-.25-16.188-.164-16.188-.306-32.374c-.163-21.584-.23-43.167-.187-64.75l.33-64.75.3-32.375.445-32.374.278.71L821.2 62.834l-17.165-18.827c-5.7-6.295-11.508-12.493-17.274-18.727-5.802-6.203-11.61-12.399-17.47-18.548l.71.31-43 .64c-14.333.17-28.667.228-43 .17l-21.5-.082-21.5-.173-43-.604.915-.914-.715 156.85h-.4zM553 339.877c15-.26 30-.465 45-.63l-.83.83c-.495-6.88-.738-13.762-.88-20.643-.14-6.882-.13-13.763.294-20.644.4-6.88.852-13.762.814-20.643.023-6.882-.338-13.763-.673-20.644-.392-6.88-.543-13.762-.657-20.644l-.193-10.322c.01-3.44-.06-6.882.02-10.322.2-13.763.664-27.525 1.905-41.287h.4c1.24 13.76 1.704 27.523 1.905 41.286.08 3.44.01 6.88.02 10.322l-.193 10.32c-.114 6.883-.265 13.764-.657 20.645-.335 6.88-.696 13.762-.673 20.644-.038 6.88.414 13.762.814 20.643.425 6.88.433 13.762.295 20.644-.142 6.88-.385 13.762-.88 20.643l-.06.84-.77-.008c-15-.167-30-.372-45-.633v-.4z"/><path style="fill:#496481;" d="M632 80.927c8.366-.828 16.73-1.26 25.095-1.555 4.183-.184 8.365-.225 12.548-.333l12.547-.112 12.547.105c4.183.112 8.365.147 12.547.333 8.365.293 16.73.728 25.095 1.56-8.366.834-16.73 1.27-25.096 1.562-4.182.186-8.364.22-12.547.333l-12.547.106-12.547-.11c-4.183-.11-8.365-.15-12.548-.334-8.365-.294-16.73-.727-25.094-1.555zM632 107.584c5.38-.763 10.76-1.1 16.14-1.35 2.69-.11 5.38-.206 8.07-.23 2.69-.047 5.38-.018 8.07.112 5.38.26 10.76.903 16.14 1.023 5.38.128 10.76-.074 16.14-.45 2.69-.17 5.38-.387 8.07-.51 2.69-.14 5.38-.21 8.07-.286 5.38-.147 10.76-.31 16.14-.246 10.76.19 21.52.648 32.28 1.936v.4c-10.76 1.288-21.52 1.747-32.28 1.936-5.38.063-10.76-.098-16.14-.245-2.69-.076-5.38-.147-8.07-.285-2.69-.124-5.38-.342-8.07-.51-5.38-.378-10.76-.58-16.14-.45-5.38.12-10.76.763-16.14 1.023-2.69.13-5.38.158-8.07.11-2.69-.022-5.38-.118-8.07-.23-5.38-.25-10.76-.585-16.14-1.35v-.4zM632 134.442c7.167-.764 14.334-1.1 21.5-1.35l5.376-.15 5.375-.07c3.584-.057 7.167-.014 10.75.105 7.167.25 14.334.904 21.5 1.016 7.167.152 14.334-.098 21.5-.446 3.584-.168 7.167-.387 10.75-.51 3.584-.14 7.167-.212 10.75-.276 7.167-.138 14.334-.306 21.5-.25 7.167.096 14.334.235 21.5.557 7.167.296 14.334.725 21.5 1.375v.4c-7.166.65-14.333 1.08-21.5 1.375-7.166.32-14.333.46-21.5.558-7.166.054-14.333-.114-21.5-.252-3.583-.065-7.166-.137-10.75-.276-3.583-.123-7.166-.342-10.75-.51-7.166-.35-14.333-.6-21.5-.447-7.166.113-14.333.766-21.5 1.017-3.583.12-7.166.162-10.75.106l-5.374-.072-5.375-.148c-7.166-.25-14.333-.587-21.5-1.35v-.4zM632 159.5l146.195 2-146.194 2zM632 186.357l103.875 2-103.874 2zM632 213.214l144.094 2-144.093 2zM632 240.07l172 2-172 2zM632 266.93l75.586 2-75.585 2zM768 15.93c.315 5.338.5 10.676.662 16.013.137 5.337.28 10.674.32 16.01l.086 8.002.004 8.002c.028 5.335-.05 10.67-.103 16.002l-1.926-2c3.75.018 7.5.186 11.25.29 3.748.133 7.495.332 11.242.545l5.62.378 5.617.47c3.744.36 7.488.725 11.227 1.286-3.76.393-7.517.59-11.273.785l-5.633.22-5.63.127c-3.753.047-7.506.08-11.257.046-3.75-.063-7.502-.062-11.25-.21l-1.968-.078.04-1.922c.116-5.333.203-10.666.398-15.998l.254-7.998.336-7.996c.208-5.332.516-10.662.82-15.992.33-5.33.68-10.658 1.162-15.985zM511 340.277c-10.502.275-21.004.42-31.505.62-10.502.215-21.004.266-31.506.407-10.502.097-21.004.292-31.506.306l-31.505.147-1.7.008.02-1.73c.082-7.052-.158-14.192-.89-21.196-.38-3.5-.89-6.987-1.732-10.32-.425-1.66-.935-3.29-1.618-4.745-.344-.722-.723-1.405-1.154-1.966-.23-.283-.406-.5-.72-.763-.27-.254-.568-.512-.914-.77-2.67-2.08-5.734-3.986-8.72-5.866-3.018-1.873-6.075-3.7-9.15-5.502-6.16-3.588-12.35-7.14-18.592-10.603-12.494-6.897-25.032-13.77-37.8-20.092-3.214-1.577-6.365-3.08-9.69-4.463-3.41-1.5-6.537-3.582-9.28-6.046-2.75-2.46-5.14-5.28-7.198-8.3-2.045-3.05-3.797-6.214-5.14-9.704l1.498.563c-.638.322-1.185.5-1.826.64-.623.136-1.29.18-1.97.1-.68-.084-1.374-.336-1.96-.733-.588-.396-1.053-.923-1.4-1.476-.707-1.117-.98-2.31-1.17-3.46-.177-1.16-.205-2.297-.19-3.43.013-.57.045-1.148.13-1.747.094-.596.22-1.238.612-1.9.393-.692 1.163-1.14 1.7-1.344.557-.224 1.01-.38 1.43-.607 1.677-.862 2.86-2.667 3.824-4.52 1.903-3.788 3.06-8.014 4.1-12.21 1.02-4.216 1.84-8.49 2.577-12.78l.074-.432.447-.148c.945-.314 1.99-.9 2.898-1.536.924-.65 1.798-1.384 2.595-2.2 1.61-1.62 2.963-3.502 4.113-5.5 2.28-4.02 3.73-8.503 4.668-13.064.955-4.568 1.39-9.25 1.49-13.933.102-4.685-.105-9.378-.504-14.054l.64.588-3.194.004-.798.002H289.784c.56.72-.82-.976-.67-.823l.012-.046.35-1.548c.456-2.072.875-4.155 1.27-6.242.783-4.174 1.463-8.37 2.016-12.578 1.086-8.412 1.785-16.915 1.288-25.348-.26-4.203-.806-8.408-2.04-12.373-.622-1.975-1.434-3.88-2.517-5.587l-3.667-5.186c-4.89-6.962-9.634-14.074-16.204-19.233-6.515-5.204-14.394-8.447-22.443-10.846l-12.245-3.696c-2.033-.618-4.07-1.244-6.056-1.745-2.002-.516-3.812-.69-5.897-.54l-6.352.438-6.354.377c-4.127.33-8.222 1.12-12.184 2.326-3.956 1.21-7.802 2.826-11.317 4.915-1.748 1.048-3.423 2.218-4.864 3.544-.716.66-1.372 1.366-1.877 2.088-.51.705-.828 1.493-.808 1.905l.08 1.62-1.75.167c-4.05.39-8.31 1.204-11.913 2.814-.892.41-1.732.885-2.462 1.426-.755.548-1.264 1.114-1.836 1.916-1.123 1.585-2.102 3.47-3.013 5.353-1.81 3.8-3.376 7.78-4.77 11.794-.694 2.01-1.342 4.035-1.912 6.065-.558 2.008-1.094 4.113-1.284 5.964-.08.756.023 1.906.08 2.93l.26 3.187c.19 2.132.41 4.268.644 6.402.47 4.27 1 8.536 1.596 12.787.596 4.25 1.255 8.492 2.038 12.688.395 2.095.82 4.18 1.316 6.224.493 2.015 1.063 4.117 1.818 5.705l1.028 2.166-2.236.758-4.668 1.584 1.43-1.82c-.368 4.635-.565 9.275-.452 13.892.12 4.61.51 9.213 1.434 13.672.9 4.455 2.297 8.8 4.463 12.644 1.09 1.91 2.37 3.693 3.867 5.208.742.766 1.55 1.447 2.393 2.043.422.295.854.57 1.29.803.218.12.435.226.65.326l.31.13.21.08 1.335.502.2 1.21c.71 4.27 1.5 8.524 2.484 12.7 1 4.153 2.14 8.337 3.905 11.965.89 1.784 1.982 3.386 3.263 4.042.34.188.707.322 1.326.576.308.133.703.313 1.128.62.424.304.837.752 1.1 1.2.523.905.644 1.667.747 2.335.09.673.115 1.286.125 1.884.003 1.187-.038 2.373-.24 3.617-.22 1.238-.517 2.543-1.355 3.853-.413.645-.98 1.283-1.71 1.764-.724.485-1.585.786-2.4.878-.818.093-1.596.028-2.304-.13-.357-.077-.697-.18-1.032-.3-.354-.13-.616-.23-1.05-.46l2.876-1.078c-.723 1.863-1.523 3.467-2.42 5.12-.893 1.628-1.872 3.21-2.936 4.733-2.134 3.043-4.6 5.878-7.433 8.345-2.823 2.47-6.035 4.547-9.52 6.03l-2.484 1.03c-.805.354-1.613.69-2.42 1.06-1.61.723-3.22 1.47-4.825 2.237-12.834 6.157-25.483 12.827-38.032 19.625-6.272 3.408-12.505 6.888-18.69 10.438-3.093 1.773-6.17 3.574-9.207 5.423-3.014 1.86-6.09 3.73-8.82 5.816-.35.26-.66.523-.95.79-.325.265-.54.516-.786.815-.468.602-.875 1.31-1.233 2.057-.715 1.502-1.24 3.156-1.682 4.836-.873 3.372-1.404 6.877-1.81 10.393-.777 7.04-1.06 14.184-1.023 21.28l.005.968-.94-.01L0 340.276v-.4l61.027-.735-.935.958c-.16-7.2.003-14.37.673-21.558.353-3.59.83-7.18 1.688-10.75.438-1.78.962-3.56 1.753-5.305.4-.87.867-1.733 1.484-2.554.64-.835 1.426-1.514 2.14-2.078 2.916-2.304 5.937-4.197 8.97-6.144 3.038-1.918 6.1-3.782 9.18-5.617 6.162-3.658 12.39-7.194 18.64-10.683 12.523-6.953 25.108-13.76 37.994-20.106 1.613-.79 3.237-1.567 4.878-2.323.814-.384 1.654-.744 2.48-1.116l2.46-1.05c3.08-1.348 5.93-3.226 8.46-5.49 2.54-2.256 4.776-4.874 6.716-7.702.964-1.42 1.862-2.887 2.682-4.394.805-1.49 1.583-3.103 2.146-4.576l.82-2.147 2.057 1.068c.05.026.293.134.452.187.18.062.362.117.538.152.357.08.683.09.95.06.52-.084.81-.27 1.177-.816.357-.53.6-1.396.746-2.297.145-.913.18-1.915.172-2.91-.01-.49-.036-.97-.093-1.378-.05-.407-.168-.735-.2-.774-.02-.022.014.02-.004.002-.015-.013-.115-.072-.307-.152-.39-.16-1.052-.396-1.672-.733-1.28-.674-2.323-1.687-3.1-2.693-.792-1.017-1.397-2.07-1.932-3.124-2.07-4.232-3.224-8.54-4.294-12.85-1.037-4.314-1.864-8.644-2.6-12.98l1.535 1.71c-.306-.09-.432-.144-.623-.217l-.503-.21c-.32-.15-.632-.303-.93-.467-.6-.324-1.166-.683-1.71-1.063-1.08-.765-2.077-1.615-2.977-2.54-1.815-1.84-3.297-3.928-4.54-6.108-2.466-4.385-3.963-9.137-4.926-13.906-.983-4.78-1.384-9.61-1.507-14.415-.114-4.807.087-9.6.503-14.358l.12-1.383 1.31-.437 4.678-1.555-1.207 2.923c-1.076-2.33-1.57-4.44-2.107-6.608-.51-2.154-.933-4.3-1.325-6.447-.776-4.294-1.417-8.587-1.994-12.887-.577-4.3-1.085-8.602-1.536-12.914-.224-2.157-.433-4.315-.615-6.484l-.246-3.267-.086-1.67-.02-.878c.01-.314.013-.692.05-.986.275-2.444.856-4.53 1.453-6.673.61-2.12 1.29-4.204 2.018-6.27 1.46-4.128 3.08-8.186 5.006-12.167.983-1.99 1.997-3.954 3.377-5.89.672-.957 1.638-2.005 2.647-2.71 1.01-.737 2.067-1.314 3.136-1.8 2.143-.957 4.33-1.585 6.523-2.07 2.21-.47 4.368-.808 6.667-.983l-1.67 1.787c.053-1.743.793-2.933 1.49-3.954.73-1.015 1.55-1.862 2.405-2.636 1.713-1.542 3.57-2.797 5.482-3.92 3.836-2.226 7.92-3.886 12.12-5.126 4.2-1.232 8.53-2.02 12.898-2.327l6.405-.313 6.402-.376c1.09-.048 2.24-.055 3.403.06 1.164.112 2.292.356 3.36.632 2.138.563 4.162 1.232 6.196 1.882l12.167 3.878c8.185 2.577 16.336 6.056 23.11 11.637 3.38 2.766 6.326 6.014 8.954 9.427 2.635 3.417 5.002 6.98 7.402 10.49l1.805 2.63c.608.885 1.21 1.7 1.836 2.67 1.176 1.91 2.012 3.97 2.642 6.064 1.244 4.2 1.734 8.52 1.946 12.81.358 8.6-.36 17.156-1.5 25.623-.578 4.235-1.282 8.45-2.09 12.645-.408 2.097-.84 4.19-1.308 6.275l-.363 1.566-.012.05c.125.2-1.184-1.526-.604-.797H290.086l.4.002.798.003 3.195.01.593.003.047.588c.38 4.718.566 9.456.438 14.196-.15 4.735-.51 9.485-1.465 14.154-.928 4.66-2.377 9.276-4.727 13.483-1.185 2.092-2.592 4.08-4.295 5.818-.843.875-1.774 1.67-2.773 2.383-1.022.71-2.036 1.327-3.327 1.765l.52-.58c-.71 4.318-1.508 8.625-2.512 12.9-1.03 4.266-2.172 8.53-4.105 12.6-.5 1.01-1.063 2.007-1.776 2.94-.703.927-1.6 1.808-2.7 2.4-.537.298-1.115.51-1.566.702-.463.204-.676.357-.835.628-.34.595-.417 1.712-.424 2.727.007 2.064.198 4.272 1.153 5.782.48.738 1.124 1.163 1.93 1.25.786.097 1.793-.163 2.53-.545l1.038-.54.46 1.102c2.653 6.36 6.782 12.338 11.987 16.872 2.61 2.27 5.544 4.148 8.7 5.478 3.3 1.31 6.632 2.83 9.86 4.352 12.952 6.18 25.65 12.785 38.225 19.64 6.284 3.433 12.553 6.897 18.743 10.517 3.097 1.807 6.18 3.643 9.24 5.536 3.06 1.924 6.092 3.78 9.073 6.09.37.276.75.6 1.133.956.375.31.786.773 1.113 1.19.656.858 1.15 1.748 1.565 2.642.823 1.79 1.362 3.594 1.815 5.397.885 3.61 1.38 7.22 1.752 10.827.707 7.223.902 14.4.772 21.642l-1.678-1.722 31.504.147c10.502.014 21.004.21 31.505.306 10.5.142 21.003.193 31.505.41 10.5.196 21.003.343 31.505.617v.4z"/></svg>