<svg id="Layer_1" xmlns="http://www.w3.org/2000/svg" viewBox="0 0 275.9755554 582.9567261"><style>.st0{fill-rule:evenodd;clip-rule:evenodd;fill:#FFFFFF;} .st1{fill:#496481;}</style><path class="st0" d="M235.39 581.806H40.99c-20.647 0-37.385-16.738-37.385-37.385v-390.3c-1.446 0-2.617-2.294-2.617-3.74v-7.477c0-1.445 1.17-3.738 2.617-3.738V124.21c-1.446 0-2.617-2.293-2.617-3.738v-7.477c0-1.445 1.17-3.74 2.617-3.74V94.303h-.748c-1.445 0-1.87-.797-1.87-2.243V78.6c0-1.445.425-2.243 1.87-2.243h.748V41.963c0-20.647 16.738-37.385 37.385-37.385h163V3.83c0-1.445.797-1.87 2.243-1.87h24.675c1.445 0 2.243.425 2.243 1.87v.748h2.243c20.65 0 37.387 16.738 37.387 37.385V544.42c0 20.648-16.738 37.386-37.386 37.386z"/><path class="st1" d="M235.39 581.673c-.86.01-.37.094 2-.053l1.676-.152-3.675.205zM250.906 578.392l1.872-.935c.607-.28 1.09-.663 1.49-.9.778-.505 1.06-.715.272-.274-.582.37-1.048.682-1.478.932l-1.23.615-1.265.635c-.46.257-1.015.484-1.71.75-1.122.395-2.082.802-2.756.954-.67.16-1.005.234-.815.17-.408.108-1.3.34-2.245.584-.963.16-1.976.33-2.613.437l2.442-.342 2.633-.66c.922-.195 1.824-.564 2.754-.907l1.408-.525c.475-.173.916-.435 1.38-.65.797-.37.038.018-.14.117zM273.54 354.417l-.07 1.5c.038-.41.06-.923.07-1.5zM274.145 210.24c.015 1.097.085 1.556.148 1.61-.045-1.018-.087-1.855-.148-1.61zM274.942 185.623l-.05 1.45c.067-.552.103-1.11.05-1.45zM273.54 354.417l.185-3.852c-.18-.27-.14 1.974-.185 3.852zM271.034 554.818c-.16.788-.44 1.4-.623 1.98.206-.624.477-1.206.607-1.854l.017-.126zM273.632 417.975l-.007 1.17c.042.346.092.67.15.974l-.143-2.145zM273.383 466.752c.017-1.103-.202-1.487-.298-1.91.09.623.13 1.44.142 2.406.04.018.09-.126.156-.496zM272.868 544.096c.014.458-.03.916-.042 1.374.008-.357.06-.96.042-1.374zM273.923 383.063c.06-.082.116-.257.15-.444-.052 0-.102.174-.15.443zM178.85 581.43c-.04.006.017.01.004.015.284-.007.372-.012-.003-.014zM235.39 581.82l-.782.004c-.084.01-.17.02-.17.03l.953-.033zM275.72 140.573l-.012.2c.07 1.185.057.514.01-.2zM2.676 41.308c.224-2.4.164-.427.212 1.19.076 1.61.144 2.924.257-.604-.12.686-.06-6.546-.47-.586zM271.353 553.604c.15-.637.347-1.274.466-1.93-.18.886-.364 1.47-.467 1.93z"/><path class="st1" d="M3.145 41.894h.002l.057-.735-.06.734zM274.755 36.462c-.064.237-.072.68-.074 1.14.052-.043.085-.3.075-1.14zM274.482 114.1l.078-1.912c-.054.758-.072 1.374-.078 1.913zM249.005 5.536l-1.218-.51c-.383-.155-.813-.332-1.547-.462.126.06.252.113.417.175.54.055 1.213.306 2.348.796zM208.856.5c.22.04.514.07.77.103l1.326-.03L208.856.5zM51.845 580.49c.915.097 1.484.198 1.93.296-.645-.226 5.494-.245-1.93-.295zM271.082 554.81c.04-.24.12-.588.27-1.206l-.335 1.34c-.018.12-.014.15.065-.134zM246.044 8.955c-.967-.34-1.974-.558-2.96-.85-.248-.064-.494-.142-.745-.2l-.762-.125-1.522-.257c.844.185 1.838.275 2.85.557 1.01.297 2.096.53 3.138.875zM5.074 314.175l.054 1.524c.004-.588-.01-1.13-.054-1.525zM222.604 4.572c-1.185-.187-2.44-.296-3.74-.37-.274.04-.588.073-.77.132l4.51.238zM53.788 580.79c-.014-.002-.014-.004-.014-.004s0 .002.014.003z"/><path class="st1" d="M97.523 580.61c-6.327-.083-2.972.244-4.314.396-7.552.026-3.496-.248-6.066-.43-4.715.022-8.33.29-11.847.25-.263-.058-.946-.085-.145-.148-4.985.236-14.798-.134-20.605.217-.432-.04-.65-.074-.76-.106.942.21 1.086.412.894.557-2.835-.005-5.263.247-6.33-.03 1.738.014 1.883-.095 2.697-.176l-2.972.107c-2.675-.41 4.057-.118 4.057-.402l-9.003.21-2.188.046-2.046-.073c-.66-.04-1.303-.032-1.907-.117l-1.71-.294c-.412-.3 2.082.17 4.012.152.963.034 1.76.086 1.98.04.215-.03-.203-.067-1.626-.255 1.092.115 2.243.143 3.39.172l3.436.1c-5.25-.663 4.175.08-.65-.625-2.246-.068-4.054-.04-5.503-.114l-2.018-.098-.93-.037-.9-.125-1.822-.26c-.312-.05-.636-.08-.964-.15l-1.01-.258-2.292-.606-2.707-1.05c-1.892-.514.438.644-1.437.042-1.412-.645-2.644-1.146-3.586-1.792-.955-.618-1.803-1.065-2.415-1.625-1.25-1.076-2.108-1.79-2.723-2.62-1.285-1.59-2.354-2.74-5.257-6.155-.4-.427-.81-.743-1.15-1.134-.348-.386-.707-.793-1.118-1.325-.405-.533-.906-1.168-1.335-2.115-.438-.94-1.065-2.066-1.476-3.647.437.624.827 1.254 1.343 1.818l-.318-.675-.23-.64-.416-1.11c-.252-.67-.5-1.197-.665-1.656-.302-.925-.542-1.493-.777-2.078-.24-.585-.484-1.186-.634-2.213-.17-1.02-.443-2.437-.372-4.653.14 1.572.965 6.52.82 5.26-.086-1.426-.187-2.372-.3-3.07-.05-.706-.12-1.16-.213-1.575-.16-.845-.48-1.46-.442-3.765l.546-.946c-.024-9.32-.39-19.586-.472-29.91.172.572.348 2.34.535-.075-.248-13.02.152-27.792.53-40.35l-.525-4.797c.006-1.116.24-2.07.34-.862.203-4.893-.334-.253-.54-2.605-.037-2.784.304-3.678.462-1.913-.447-8.637-.968-24.602-.424-33.7l.16 1.773c.196-7.085-1.08-7.996-.607-14.567l.093 1.26c.184-15.378-.304-32.373.36-44.106-.68-2.23.21-15.22-.704-16.21.403-8.78.578-6.266.77-18.633.01-3.303-.557-4.923-.66-9.007l.42-.1-.47-5.543.468-2.95-.132-3.83c-.012 1.525-.158 3.242-.276 3.01-.11-2.99-.058-6.637.037-9.554.095-2.916.234-5.104.33-5.178l-.413-14.153c.142.314.208 2.684.316 4.558-.42-7.555.357-1.372-.028-8.295-.07.928-.208-.502-.277-.66.183-3.45.116-11.306-.005-17.12l.223 1.117c-.105-10.5-.22-22.132-.34-33.915-.055 4.226-.375 3.255-.416-.2l.262-1.38c-.175-2.232-.085 3.607-.306-.972.015-4.402.284-2.96.386-.432l-.12-5.35c.076-.315.122.94.223 1.266-.167-2.195.192-9.236-.09-12.404l.07-.302c-.09-11.778-.133-17.12-.207-26.715-.187-.186-.156-3.938-.308-6.797.045-7.05.166-14.876.143-23.372l-.063-2.832c-.02-.485-.038-.6-.057-.613s-.04.077-.06.003c-.01-.037-.022-.116-.033-.27l-.018-.304-.02-.635c0-.053.06-.275.006-.555-.146-.02-.325-.042-.544-.084l-.17-.028c-.024 0-.06-.012-.104-.03-.043-.014-.03-.014-.05-.022-.044-.028-.092-.046-.14-.08-.198-.123-.413-.342-.61-.606-.394-.53-.692-1.263-.787-1.83-.055-.3-.057-.49-.05-.716.008-.22.015-.365.022-.406.008-.04.017.023.027.22.006.09.006.253.02.383.01.128.03.293.08.496-.116-.49-.052-1.19-.072-1.816l-.005-1.803c-.004-1.153-.008-2.22-.01-3.246l-.004-.762v-.377c.005-.112.003-.194.016-.297.045-.4.17-.824.342-1.22.172-.394.402-.77.675-1.064.33-.292.31-.49 1.543-.573.035-.57.005-1.483.01-1.758l-.008-1.287-.023-2.883-.066-7.484c-.065 1.4-.093 2.973-.146 2.158-.008-.803-.003-1.68.01-2.466.01-.393.02-.763.027-1.09-.002-.466.052-.937.006-1.213-.374-.05-.662-.094-.84-.167-.062-.044-.075-.063-.037-.058.028.01.046.032.183.06l.267.035.52.057c-.27-.033-.55-.052-.864-.115-.17-.062-.227-.103-.347-.18-.21-.152-.41-.36-.587-.597-.35-.48-.62-1.07-.757-1.67-.072-.324-.09-.548-.084-.93v-1.064c0-.714 0-1.432.003-2.155l.01-2.183.01-1.1c.005-.37-.008-.755.034-1.03.086-.622.35-1.27.704-1.808.177-.27.388-.51.612-.685.11-.088.226-.16.337-.205.28-.09.652-.103.957-.135.062-.42.026-1.073.043-1.455l.013-.956.028-1.91.057-3.79.104-8.125c.06-.195-.155-.113-.27-.133l-.397-.003-.79-.008-.346-.01-.147-.02c-.09-.02-.17-.04-.23-.068-.118-.058-.164-.104-.228-.205-.06-.104-.113-.285-.142-.497-.056-.407-.023-1.004-.03-1.555l.002-1.633c-.002-2.143-.024-4.148-.076-5.97l.015.647-.064-5.92c.02-.425.123-.78.27-.914.074-.075.175-.136.327-.182.08-.018.16-.04.256-.048.13-.016.39-.012.573-.02l.594-.016.296-.008.147-.004c.053.003.107.006.087-.063l-.006-1.2-.02-1.69c.046-5.498.126 3.3.25-.77-.267-12.893.133-20.37-.042-30.99.098-1.02.25-2.197.358-3.537.023-.672.224-1.36.333-2.092.14-.725.235-1.492.418-2.267.746-3.102 1.954-6.522 3.694-9.79 1.797-3.238 4.162-6.236 6.704-8.68l1.936-1.724c.664-.52 1.347-.983 1.99-1.45l.956-.68.984-.554 1.846-1.013-.617.16c.56-.413 1.055-.668 1.49-.86.432-.202.798-.353 1.147-.49.696-.268 1.306-.5 2.28-.792-.154-.004-.895.16-1.35.362-.466.18-.704.26.053-.154.67-.3 1.374-.52 2.06-.784.698-.237 1.372-.553 2.1-.702 1.435-.35 2.857-.798 4.344-.95.737-.104 1.472-.232 2.213-.317l2.242-.1c1.47-.102 3.066-.03 4.61-.03l18.82.26 37.747.753c9.106.147 5.167-1.303 16.65-.617l-3.26.476c18.38-.496 37.582.26 55.575-.233-1.073.127-1.103.296-2.86.287 3.8.426 14.054.08 14.12-.267 2.8.048.648.312 2.374.492 3.81.266 9.567-.508 11.593-.08.345.072-1.07.136-1.77.167 1.244-.1 4.137-.077 6.423-.092l1.565-.022 1.834-.05c1.004-.047 1.15-.123.07-.25.524.01 1.045.023 1.558.035.26.006.516.01.77.017l.38.007.298-.047.04-2.156.022-.557c.016-.125-.023-.09-.038-.127l-.03-.032-.008-.008-.715-.4-.016-.008c-.132-.086-.07-.073.015.06.032.055.114.184.162.312.03.068.077.17.104.256l.04.134c.013.04.008.012.013.02.002-.004.075-.015.158-.025.087-.01.204-.015.33-.018l.543-.003 4.257-.05c2.765-.034 5.382-.05 7.838.093 1.757-.28 4.647-.205 7.237-.16 1.295.024 2.516.04 3.482-.002.483-.02.902-.055 1.236-.11.287-.053.42-.12.51-.21-.034.07-.005.137.044.203.014.036.06.065.063.098.002.016.02.03.01.042-.01 0 .097-.244.12-.304.095-.213.2-.348.234-.382 0 0 .024-.02-.04.028l-.09.052c-.233.12-.468.24-.706.36l-.065.188c.007.842-.025 1.807-.05 2.79.282.093.73.088 1.175.097l1.38.024c.477.006.966.01 1.464.017l.414.007.355.014.405.026c1.09.085 2.247.065 3.364.187 1.116.136 2.205.27 3.18.387.96.2 1.812.36 2.473.462-.69-.035.148.223.926.546.764.37 1.487.736.698.636 2.153.7 4.09 1.672 5.48 2.265 1.33.704 2.14 1.016 1.92.62 3.293 2.685 6.472 5.404 8.946 8.284 2.528 2.823 4.084 5.887 4.42 8.283 1.363 3.075 2.252 6.286 2.75 9.527.105.81.136 1.628.21 2.44l.097 1.217c.026.415.027.86.04 1.285.043 1.72.084 3.428.125 5.125l.382 19.9c-.927-.47-.066-14.394-1.03-13.835.342 12.353 1.133 19.478.89 31.727-.133 3.17-.406-1.8-.564-2.872.367 12.34-.128 23.86.383 34.84-.09-.03-.186-1.214-.258-2.334.03 2.165-.146 5.034.29 4.79l-.116-2.11c.636-3.456 1.32 8.593 1.66 8.98-1.257-3.673-.32 10.847-1.91 5.012.082 1.425.29 3.21.584 2.884-.086 2.114-.26 2.785-.592.64.235 7.753.705 5 .692 12.022-.214-.025-.295-1.442-.546-2.17.414 3.557.832 7.13.65 13.064-.128-.357-.295.332-.292-1.438.063 10.193 1.11 17.373.71 28.555-.925-3.3-.302 3.803-1.1 4.396l.244 6.014.385-2.413c-.01 5.268.572 9.922.315 14.45l-.33-3.914.16 9.87.294-5.586c.412 5.33 1.002-.57.784 6.44-.08-1.425-.01 5.268-.47 8.013l-.002-.018c.25 2.606.513 5.287.322 9.18-.25 1.013-.863-.813-1.028-.154.653 2.57.196 12.336.885 15.59-.162-1.084-.566-1.14-.65-.784l.526 2.158c-.165 2.44-.245 2.796-.566 2.4-.085 7.34.968-2.33.56 6.38-.043-.685-.12-.358-.2-1.782-.204 8.75.34 16.902.1 24.94-.74 2.373-.194-7.023-.82-4.308.168 11.59.934 24 .784 35.216l.075-2.09c.995 1.554-.473 8.353.008 14.025-.074-1.39-.542-1.82-.433-1.446-.126 7.68.3 15.704.608 27.342l-.233-1.442c-.188 4.526-.07 11.92-.147 16.81.222 1.452.196 4.25.5 2.55-.58 7.538-.36 14.728-.168 21.705.203 6.977.377 13.742.007 20.43-.01-1.6-.17-3.812-.164-2.54l.215 11.395c.265-.902.155-1.494.362-3.888.168 1.443.293 4.66.294 7.482-.18-5.124-.428.045-.556 2.258.077-.37.167.387.246.2-.43 5.952.51.998.22 9.124l-.127-.43c.072 3.04.234 5.843.2 9.124-.256 1.36-.125-3.238-.344-3.447.04 4.607.497 9.09.257 13.26l-.15-6.727c-.28 4.54-.196 5.067-.226 8.44l.005-.332-.08 7.8.06-1.987c.583 5.765.153 11.74.495 19.504-.31-7.547-.177-1.246-.386-1.825-.05 1.983-.096 4.998-.157 4.14.178 3.67-.08 6.127.166 11.306-.057.233.013 3.928-.13 3.1.07 4.772.088-1.13.162-.727.196 7.355-.115 17.29.132 27.87.105 9.124.224 10.81.277 19.277-.048 2.858-.118-2.34-.118-2.34-.027 4.61.008 8.083-.824 12.345.187-.856-.05.018-.41 1.287l-.45 1.845c-.123.435-.24.738-.35 1.08l-.442 1.27c-.197.56-.45 1.307-.986 2.323.15-.363.35-.766.544-1.29.18-.533.392-1.17.657-1.96-1.32 3.855-3.2 7.508-5.858 10.82-.353.438.018-.085.585-.867l.93-1.283c.32-.43.544-.894.742-1.21-.563 1.054-1.448 2.1-2.262 3.24-.394.583-.893 1.092-1.358 1.617-.47.522-.933 1.04-1.38 1.536-.977.91-1.88 1.75-2.606 2.428l-1.657 1.307c.818-.61 1.664-1.185 2.397-1.898-1.284 1.17-.694.56.245-.31 1.536-1.35 2.483-2.478 3.162-3.2l.784-.823c.17-.2.27-.32.308-.368-.607.803-1.328 1.513-1.987 2.275 1.104-1.084 3.165-3.36 4.866-6.327.942-1.428 1.633-3.097 2.393-4.673.318-.815.592-1.636.88-2.42l.415-1.156.292-1.137c-.09.414-.166.832-.266 1.243l-.382 1.212c.162-.496.364-.978.494-1.483l.365-1.52c.247-1.012.51-2.02.61-3.06.23-1.305.437-2.2 0 .784.76-4.316.468-3.843.723-7.59.01-.415.018-.227.022.156l-.036-4.27c.028.836.1-.71.075 1.913.1-7.667-.095-12.363.028-15.25l.01.642c-.042-10.636-.117-1.028-.272-9.006l.344-5.37-.14-1.045c.005-1.096.02-3.267.08-2.865-.098-4.084-.067.696-.162-1.674.15-5.28-.072-14.56.216-15.752-.136-1.895-.11 5.05-.202-.587.323-1.607-.05-6.517.107-11.342.18 1.482.067 6.053.245 1.225-.305-2.91.103-9.395.067-13.465-.28-.19-.09-8.85-.172-15.677.105.433.22-12.85.396-19.202l.064.187c-.378-1.23-.287-7.783-.358-12.554.252.19.35 1.047.444 3.632l.025-4.486c-.13-1.058-.196-2.457-.234-5.367l.323 1.127c.03-5.97-.34-12.022-.064-19.704-.356-.432-.958 6.11-1.2-2.013.188-.302.515-.6.59 1.524-.024-.696-.156-2.482-.073-3.885l.313 3.243c.15-3.498-.262-1.83-.228-4.626.276.056.203-2.07.422-1.67.024.715-.123 2.44-.02 3.512.06-3.155.244-6.967.47-8.227-.165.275-.384 0-.414-2.31.002-5.97.36-2.043.53-5.525-.198-1.446.04-5.255-.415-5.355.01-1.747.224-2.07.353-2.745-.187-3.09.01-14.432-.518-10.95l-.036.793-.02-.504v.025-.024c-.473-10.127.334-21.037.143-31.086l.18.016c-.19-5.998-.09-13.35-.487-17.634 0-1.774.348-4.187.57-3.428-.13-4.585-.346-5.1-.02-11.723.327 4.61.3-1.59.236 4.726.176-5.958.497-7.307-.024-13.704.494 2.177.64-4.485.497-7.318l-.37 4.175c-.067-3.185-.017-5.97.03-8.798l.664 1.53c.856-12.193-1.36-21.988.045-31.27-.478-3.224-.35 6.623-.907 3.74.096-5.61 1.1-11.453 1.106-13.21.402-7.68-1.01-7.167-.736-15.205-.25 1.028-.918 2-1.153-4.01.094-5.612 1.06-6.897 1.26-3.354.02 1.345-.062 1.995-.147 1.938.09 1.814.194 4.193.47 1.97l-.25-.727c.26-2.784.24-10.505.652-8.692-.236-4.24-.412-1.812-.546 1.33.37-7.2.02-11.247.273-18.656-.142 1.178-.44 2.264-.437 1.09.32-10.867-.48-4.784-.59-12.148.39-4.184.927 1.5.603-5.913.265-4.526.677-.96.884.84-.488-6.753.324-12.618.416-16.475l.206 3.557c-.123-2.127-.12-3.87-.118-5.643l-.51 2.03c.088-2.088.09-3.856.303-3.817-.334-2.153-.85 1.647-1.306-2.624.258-2.783-.28-8.478.395-9.44-.227 8.758.677-.968.79 6.445-.08-1.43-.08-3.174.01-5.27.075-.313.14.297.18.868.597-8.38-.768-3.85-.757-12.536.38 1.103.718-2.013.635-3.43-.003 3.5-.632 1.674-.925-1.537.29-5.57-.224-6.052-.19-8.97l-.138 3.33c-.378-1.128-.33-3.912-.45-7.794.292-.332.203 3.525.332 2.14-.665-4.31.675-9.74.224-15.75.25-2.784.702-.27.87-2.714-.494-6.736.495-7.295.083-14.375-.492 2.04-.372 2.397-.862-2.588l.368 11.638-.734-7.47c-.004 3.513.322 7.413.24 9.517-.413-3.56-.287-3.193-.7-1.512.743-4.806-.442-9.53.057-15.085l1.224.17c.523-8.353-.652-14.84-.366-25.687l-.202 3.487c-.495-1.467-.037-6.67-.312-10.236.4.337.473-1.962.567-3.567-.156.115-.382-1.973-.9-4.153-.305-1.08-.64-2.19-.958-3.076-.392-.862-.77-1.495-1.04-1.67-.23-.805-.37-1.654-.68-2.437l-.875-2.393c-.222-.533-.5-1-.773-1.44l-.776-1.255-.726-1.118c-.26-.335-.523-.643-.772-.94-.502-.594-.975-1.127-1.432-1.627-.443-.51-.973-.903-1.44-1.338l-1.453-1.282c-.5-.43-1.072-.82-1.644-1.287-.594-.442-1.16-1-1.89-1.493-.716-.508-1.49-1.078-2.344-1.735 1.16.606 1 .273 1.143.185.072-.043.224-.023.665.214.22.117.513.29.905.537.195.126.415.27.664.43.23.187.49.395.777.627-2.232-1.926-4.422-3.455-4.62-3.224-.678-.528-2.446-1.57-4.473-2.325-.495-.21-.998-.42-1.492-.628l-1.485-.497c-.952-.316-1.78-.683-2.403-.94-.62-.075-1.054-.042-1.72-.094-.674-.03-1.554-.26-3.16-.472-.338-.128.043-.18.043-.18-.022.09-1.29-.04-2.2-.083-.915-.006-1.47.094-.097.408-.947-.23-2-.343-3.124-.485-.283-.03-.57-.063-.86-.095-.125-.022-.385-.032-.57-.047-.2-.01-.4-.024-.604-.036l-.302-.016c-.037-.016-.132.026-.12-.038l.005-.164c.005-.19.017-.378.005-.564-.005-.094-.02-.186-.04-.276-.035-.102-.022-.123-.166-.38-.236-.417-.65-.762-1.047-.94-.4-.185-.775-.253-1.12-.293-.717-.065-1.215-.03-1.8-.04l-1.714.003-6.865.048c-4.485.023-8.64-.02-11.578-.39-1.19.024-2.43.05-3.677.078-.375.022-.78.064-1.24.208-.453.138-1.008.45-1.38.95-.18.24-.31.53-.328.602-.028.085-.043.174-.05.264-.016.18-.003.36 0 .543l.002.117c-.026.013-.072.005-.107.01l-.227.006-.457.01-1.102.02-3.043.04c-1.988.02-3.878.04-5.594.055.357-.105.017-.175 1.07-.14-7.68-.31-4.722 1.01-13.464.655-4.467-.55 4.64-.307 1.857-.515-1.212-1.13-10.55.174-16.433-.464l1.425-.07c-4.497-.356-10.973.45-18.32.39 0 0 .358-.096.044-.162-5.024.56-14.535.75-21.603.9 2.2-.396 3.212-.215 1.87-.613-3.168.064.928.645-5.396.763-2.056-.212-6.618-.388-7.223-.8l5.966-.042c-3.056-.53-7.72.048-10.864-.034l.4-.233c-9.14.12-9.267.682-19.092.668l1.015.162c-5.368.546-4.5-.288-9.857.117l-1.62-.523c-3.544.144-12.41.54-18.764.637 3.6-.365 11.033-.585 15.634-.836-3.512.013-11.935.1-13.764.346 1.415-.052 3.198-.18 4.596-.11-4.31.41-9.977.602-16.975.605.62-.453-3.94-.49-9.29-.498-1.34.002-2.713-.03-4.123.067-.7.03-1.393.064-2.073.095-.682.026-1.338.17-1.98.244l-1.844.248c-.59.066-1.127.238-1.64.333-1.018.225-1.893.38-2.543.492l-2.225.877-1.11.432c-.362.164-.713.353-1.07.528l-2.135 1.063c-.697.38-1.36.827-2.044 1.237-1.397.78-2.627 1.817-3.93 2.767-.648.48-1.212 1.067-1.826 1.598-.594.554-1.237 1.065-1.767 1.695l-1.67 1.825c-.565.61-1.022 1.313-1.542 1.972-1.07 1.302-1.877 2.81-2.794 4.272-.414.757-.767 1.555-1.156 2.342l-.573 1.192c-.15.415-.304.833-.458 1.252-.295.842-.636 1.68-.895 2.55l-.67 2.668c.89-2.483.63-1.427.24.134-.236.774-.3 1.72-.387 2.397-.067.68-.063 1.107.098.902l-.165 1.167-.044.993c-.03.604-.052 1.093-.07 1.486-.04.786-.07 1.185-.093 1.337L2.88 52.06c-.13 2.414-.118-3.194-.226-2.885-.003 7.355-.19 3.086-.287 7.953.162-.998.252 2.558.208 6.75l.186-5.904c.144 5.14.052 7.36-.032 9.592-.043 1.116-.085 2.234-.098 3.72 0 .745 0 1.58.002 2.554.007.444.014.92.02 1.432.006.052.01.105.015.16-.02.034-.095.02-.15.034l.128-.034c.004-.043-.022-.105-.027-.142l-.008-.03c-.002-.01-.004.006-.008-.088l-.018-.41-.038-.82.018 1.098c0 .078.003.16.004.243l.006.07c-.014.008-.042.004-.064.007-.006 0-.04.004-.023 0-.166.02-.336.04-.52.087-.36.088-.782.27-1.127.598-.348.324-.56.747-.667 1.117-.22.744-.166 1.417-.17 1.956l.014 1.753.03 3.635c.036 2.445.07 4.887.1 7.044.016.51-.003 1.12.174 1.75.088.315.233.652.478.944.243.294.575.506.885.62.31.11.6.144.86.16.093-.003.158-.01.226-.02.194-.073.154.1.184.206l-.02.138c-.01.12-.017.236-.024.343-.017.213-.035.383-.053.45s-.036.034-.05-.164l-.036-.736.076 13.45c-.056.007-.086.014-.162.048-.243.11-.45.253-.634.406-.366.31-.647.66-.875 1.027-.446.74-.75 1.52-.847 2.4-.042.487-.012.807-.015 1.19l.01 1.108c.01.737.016 1.468.023 2.193l.02 2.153c0 .355.004.708.007 1.06-.005.342.032.82.13 1.175.19.757.507 1.444.955 2.064.232.306.5.595.834.838.088.057.172.117.265.17l.248.117c.046.012.12.035.18.035.048.087.013.192.023.354 0 .288 0 .574-.002.856l-.008 1.654-.037 3.07-.09-.965c.03 2.37.17 4.128.08 7.096-.036-.154-.09-.955-.094.142l.023.915.013.624c-.003.058.028.156-.002.207-.033.004-.07.012-.104.028.06-.034-.213.093-.35.18-.316.194-.57.445-.804.71-.445.543-.776 1.165-.998 1.83-.112.334-.2.677-.242 1.04-.028.172-.03.38-.034.544v.458c-.004.604-.01 1.183-.013 1.71l-.05-1.343c-.006-.45-.063-.86-.005-1.443-.03.18-.04.377-.05.568l-.003.46-.007.907-.008 1.753c0 1.143 0 2.237.002 3.29.016.54-.032.995.058 1.662.092.6.284 1.132.53 1.636.25.5.56.97.977 1.384.207.206.45.395.734.548l.223.104c.01.003.005-.007.03.003.032.01.065.012.1.012.04.012.015.085.027.125l.006.074.004.22c.006.342.01.682.017 1.02l.037 2.013c.026 1.333.05 2.655.077 3.996.05 2.684.093 5.448.11 8.546-.138-.014-.232 2.417-.3 5.46-.05 3.044-.107 6.7-.146 9.132l-.04-.17c-.088 14.432.15 24.514.24 37.88-.41 8.295-.296 28.1-.647 41.433.094-2.038.333.332.365 2.702-.11 3.13.267 8.65-.15 8.153l.015-1.115c-.427 2.357-.376 8.788-.428 13.81l.588.827c-.47 6.566-.472 15.168-.418 23.025.046 7.857.14 14.968-.362 18.552.16 3.167.132 7.093.304 10.235l-.408-.17c-.168 8.78-.26 13.165-.226 24.018l-.302-2.213c-.078 6.122 1.242 7.73 1.258 13.377l-.694 1.7c-.03 10.68-.72 21.49-.09 32.043-.107-.173-.318-.487-.342-2.216-.038 5.027-.565 19.447.47 17.62-.67.126-.087 11.02.212 16.79l-.5-.9c.634 4.87.81 5.025.987 11.823-.067 1.612-.403 1.412-.274-.728-.265 5.368.474 4.183.208 10.692l-.322-2.426c-.037 5.524.135 5.085.51 8.127.2 3.473-.123 10.478-.573 11.294.275.744.644 3.77.518 7.025-.17.44-.275-.746-.328-1.342-.323 9.236.59 13.734.12 20.086-.16.132-.24.546-.287 1.072-.005-7.337.01-13.246.048-12.693-.455 0-.516 5.927-1.156 1.212.36 4.758 1.113 12.893.92 18.67-.04.28-.08.554-.15.764l-.05-.596c-.04 1.333.006 2.527.084 3.65-.064 1.845-.112 3.016-.11 4.786-.356.684-.16 6.797-.16 9.752.46-.244.402 3.625.768 0-.03.47-.057-.558-.083-2.523-.016-.446-.025-.97-.053-1.26.01.056.026.126.04.2-.013-1.94-.033-4.47-.055-7.346.25 2.335.453 4.774.205 8.042.304 1.517.612 3.186.756 4.127-.32 2.022-.556 4.982-.757 7.572l-.285 3.445c-.08.954-.105 1.7-.193 1.98.293 4.713 1.618 10.198 3.93 14.74 2.276 4.557 5.315 8.15 7.63 9.928l.608.637.515.484c.3.293.517.534.694.747.353.426.54.735.868 1.108-1.173-.97-2.552-2.154-3.144-2.734.23.238.477.488.734.75l.87.748 1.89 1.643c1.42.992 2.833 2.166 4.35 2.954.74.416 1.434.853 2.117 1.183.696.3 1.34.578 1.902.822.568.228 1.048.44 1.447.55.403.1.7.152.868.15 3.05 1.22 2.158 1.01 1.548.868-.303-.07-.532-.124-.147.03.193.072.536.21 1.107.397l2.5.614-1.23-.162c2.14.717 4.275 1.022 6.327 1.303 2.072.117 4.078.207 5.948.125 3.786-.086 7.397-.24 11.068-.375 7.34-.283 14.92-.46 24.608-.16-1.34-.035-2.012-.052-2.287-.107 11.046.1 22.428-.036 33.773-.112 11.345-.083 22.654-.114 33.553-.04 6.196.02 6.867-.08 10.65-.158l1.34.11 6.468-.142c9.168-.085 15.877.19 27.486.028l-1.498-.05c4.17.005 13.206-.04 12.51.014.426-.01 1.367-.05 2.996-.026l.127.035 10.24-.064c7.94.02-1.242.13 10.343.13 4.307-.013 12.264-.093 10.647-.114-1.74-.002-4.44-.02-4.57-.052l3.938-.016c.714-.093 3.743-.188-5.926-.254l-6.737.056-2.17-.048h5.67c-3.217-.04-5.257-.01-7.54.017-.54-.025-1.486-.043-2.823-.054l-6.614.087c-.802-.04 2.966-.072-1.473-.103-3.098.04 2.972.093-2.158.116-3.223-.05-2.282-.09-6.064-.055-.532-.03.27-.044 1.768-.053-3.367.025-8.91-.01-10.65.05-3.357-.078-11.368-.014-11.036-.137-1.058.025-5.93.077-9.024.074 5.65-.144-11.578-.058-10.084-.255-4.182.15-15.106-.02-22.513.05.414-.015 1.228-.046 1.88-.03-4.168-.045-5.38-.127-8.06-.195-.535.196-7.028.202-10.528.327-5.11-.253 3.104-.25 1.5-.466.257.183-8.88.112-7.14.29-3.91-.174-3.37-.093-5.383-.323-.685.32-3.64.02-6.88.204-5.656-.216-1.456-.347-7.67-.293-2.955-.148 2.57-.218 2.57-.218zM4.89 511.896h.01l.02 3.05-.03-3.05zm.02-12.42c-.01 1.513-.02 3.396-.03 5.387-.17.436-.343-.035-.332-1.285.112.678.213-2.25.36-4.102zm-3.315 26.268c-.076-1.965.013-2.624.11-2.893l.07 3.437.058.23c-.09-.186-.175-.4-.238-.775zM2.223 529.28c.01.283.03.44.036.81l.1-1.174c-.05-.24-.103-.483-.15-.696.005.357.01.727.013 1.06zM273.46 356.18l.01-.264c-.018.218-.036.418-.066.55.023-.175.037-.175.056-.287zM5.36 328.005l-.097.018.093 1.085zM272.168 424.572c-.027.13-.055.387-.076.898.02-.04.046-.427.076-.898zM272.244 454.116l-.063 4.178.064-4.178zM272.253 476.83c.036.288.062.37.086.445v-.044l-.087-.4zM270.478 115.666c-.003-.305-.01-.606-.026-.876-.114-2.056-.07-.658.026.876zM271.888 223.145c-.108-1.14-.214-2.265-.282-3.455-.044 1.913-.054 3.4.282 3.455zM246.674 9.2c.012 0 .002-.005.014-.006l-.644-.24.63.245zM271.612 214.692c-.117 1.914-.09 3.513-.006 4.998.038-1.57.098-3.416.006-4.998zM260.574 571.72l-.805.732c.015-.01-.03.037-.09.095l.894-.826zM259.68 572.547c-.302.267-.578.565-.91.795.453-.322.777-.685.91-.795zM256.742 574.882l2.027-1.54c-.706.528-1.576 1.18-2.028 1.54zM272.502 545.206l-.016-.342c-.002.186.003.306.016.342zM272.504 536.074l-.03 8.508.012.282c-.01-1.422.072-6.722.018-8.79zM273.045 497.933l-.065 7.656c.058-1.34.142-3.1.14.383.21-9.652-.13 1.992-.075-8.04zM273.237 474.19c.015 4.113.112-.05.156.17-.054-2.61-.072-3.242-.156-.17zM274.005 302.608l.488.414c-.06-3.172-.19-.03-.488-.414zM271.41 269.81l-.315 3.085.472 1.468zM275.124 250.433l.07 1.385-.178-5.29zM216.29.033l.958.576c2.144-.108 2.594-.762-.958-.577zM93.775 3.56c-1.355-.214-4.855-.333-7.01-.113 2.796.016 5.586.175 7.01.114zM2.153 295.012l-.102-2.503.065 4.715z"/><g><path class="st1" d="M17.59 79.965c-.004-.697-.015-.303-.01 1.622l.022 1.368-.012-2.99zM17.56 92.924c.015 2.265.048 4.878.076 3.41l-.06-5.2c-.004-1.93.006-3.365.016-3.04-.003-.686-.01-2.975-.015-4.03l.004 9.002c-.005.712-.013.02-.02-.142zM17.353 281.242l.018-1.214-.017 1.214zM17.215 397.92c-.004-.888-.022-1.26-.037-1.304.01.825.02 1.503.037 1.305zM17.015 417.842c.005-.428.01-.788.013-1.175-.017.448-.026.9-.013 1.175zM17.353 281.242l-.048 3.117c.048.217.037-1.6.048-3.118zM17.692 118.893l-.017-1.693.01 1.59c0 .03.003.056.007.103zM17.284 229.806v-.948l-.048-.787.048 1.736zM17.315 190.332c-.005.893.082 1.203.12 1.546-.036-.504-.052-1.165-.058-1.947-.017-.014-.036.103-.062.402zM17.505 127.74l-.006-1.11c0 .288.003.774.005 1.11zM17.23 258.06c-.017.066-.032.207-.04.36.013 0 .027-.143.04-.36zM63.313 80.21c.032-.003-.013-.005-.002-.008-.23.004-.3.008.003.01zM17.557 79.962h.634c.07-.004.138-.01.138-.01l-.77.01zM16.82 454.3l.004-.162c-.017-.96-.014-.416-.003.16zM257.062 459.598c-.048 3.792-.073-6.17-.124-.462.02-.53.097 5.188.124.462zM17.688 119.915c0 .533.003 1.075.004 1.618l-.004-1.618zM256.938 459.136l-.006.59.006-.59zM51.198 505.262c-.172-.025-.507-.043-.856-.06.03.013.222.03.856.06zM17.13 475.723l-.02 1.548c.01-.613.015-1.11.02-1.547zM83.69 505.046c.843.01 1.13.028 2.28.01l-.35-.017c-.417.018-.97.027-1.93.006zM117.512 505.027l-.624-.026-1.072.01 1.696.017zM166.096 80.404c-.74-.03-1.202-.063-1.56-.095.52.073-4.45.092 1.56.094zM17.667 118.91c.012.198.018.487.02 1.005 0-.388-.002-.76-.003-1.125-.007-.098-.013-.12-.017.12zM85.066 503.988l5.373.025-5.374-.025zM256.455 231.868l-.014-1.234c.006.475.01.912.015 1.234zM106.385 504.01c.96.046 1.976.073 3.026.09.224-.01.478-.017.625-.03l-3.65-.06zM164.523 80.307c.01 0 .012.002.012.002l-.012-.003z"/><path class="st1" d="M129.13 80.474c5.12.016 2.405-.11 3.49-.177 6.112-.025 2.83.094 4.91.16 3.815-.023 6.74-.133 9.587-.125.212.02.765.03.117.055 4.034-.096 11.975.015 16.675-.114.35.012.525.024.613.034-.76-.07-.878-.138-.722-.187 2.296 0 4.26-.085 5.124.006-1.407-.003-1.524.033-2.182.06l2.404-.037c2.166.13-3.283.04-3.283.136 4.69-.036 10.156-.142 13.75-.103.75.132-8.404.037-3.61.157l-5.56-.055c4.25.207-3.378-.018.526.202l15.483-.006c1.644-.07-.543-.11 1.1-.18 10.376-.13 8.167.35 15.795.175 1.975-.09 2.74-.267 8.17-.17l-1.85.158c7.084.023 4.044-.227 11.463-.114-1.317.062-5.567.05-4.495.07 4.807.13 3.4-.09 7.095-.088l.765.145 24.205-.142c-.462.044-1.893.09.06.137 1.318-.006 2.657-.012 4.012-.02.678 0 1.36 0 2.044-.003l1.03-.002h.344c.048.007.13-.02.15.017l-.024 7.905-.122 16.187.13 3.882c0 .902-.06 1.675-.084.697-.05 3.96.084.205.135 2.11.01 2.252-.076 2.976-.115 1.547.11 6.99.242 19.91.106 27.273l-.04-1.436c-.05 5.736.27 6.472.152 11.79l-.024-1.02c-.046 12.446.076 26.2-.09 35.694.17 1.806-.052 12.318.176 13.118-.1 7.107-.144 5.072-.192 15.08-.003 2.672.14 3.983.165 7.288l-.106.08.118 4.487-.117 2.388.033 3.1c.004-1.236.04-2.625.07-2.437.027 2.42.015 5.37-.01 7.73l-.04 2.96c-.015.744-.03 1.202-.042 1.232l.103 11.454c-.034-.255-.05-2.173-.077-3.69.104 6.115-.09 1.11.006 6.714.017-.75.05.406.07.533-.047 2.795-.03 9.15 0 13.856l-.056-.903.085 27.446c.013-3.42.093-2.635.103.16l-.065 1.12c.043 1.804.02-2.922.076.785-.004 3.562-.07 2.395-.096.35l.03 4.33c-.02.254-.03-.762-.056-1.026.042 1.776-.048 7.474.022 10.037l-.017.245.052 21.62c.045.15.038 3.187.076 5.5l-.036 18.915c.023 4.832.037 1.41.062 3.584-.038.356-.034 7.222-.062 3.66l.038 20.976c.016-1.132.024-2.406.037-1.746.006 1.893-.017 4.308-.036 4.037l-.005-.5c.06 11.714-.13 27.036-.053 36.364l-.004-.522.04 9.673c-.012 4.45-.032-2.668-.064.625l.01 25.08c-.17 6.65-.023 23.602-.157 32.58l.046-.52c.04 2.32-.032 2.808-.046 4.518.036-.243.046-2.518.068-1.076v7.426l-.003 1.872-.002.716c.022.07-.068.025-.1.038h-.4l-3.77-.01c-5.04-.02-10.126-.043-15.228-.065l-30.548-.188c-7.37-.037-4.183.326-13.475.154l2.637-.12c-14.875.124-30.415-.065-44.976.058.87-.032.894-.074 2.315-.072-1.537-.053-4.38-.058-6.846-.04l-3.205.045c-.416.014-.756.024-.995.03-.238.01-.373.022-.38.033-2.267-.012-.525-.078-1.922-.123-3.085-.067-7.744.127-9.383.02-.28-.018.867-.034 1.43-.042-2.01.05-9.365-.022-7.44.104-5.466-.065-10.454.048-14.814-.03-2.84.14-9.354-.078-10.257.126.392-.21-9.58-.18-13.037-.08 1.157-.065-3.004-.07-1.65-.16-3.942 0-7.556.036-6.87.15-7.264-.27-14.6.2-18.692-.143l-33.09.237c.38-.232 11.647-.017 11.195-.258l-12.87.166-5.868.06-.18.003c-.023-.005-.07.013-.077-.012v-.088l-.003-.47c0-.54 0-1.09-.002-1.654l.01-3.54c.035-2.566.103 1.458.143 2.324-.092-9.986.032-19.31-.096-28.195.01.012.023.258.034.614.01.357.02.823.03 1.276-.006-1.752.038-4.073-.07-3.875l.028 1.708c-.16 2.796-.33-6.955-.415-7.268.314 2.972.08-8.778.477-4.056-.02-1.153-.072-2.6-.146-2.334.022-1.71.065-2.254.148-.52-.058-6.272-.176-4.043-.173-9.727.053.02.073 1.167.136 1.755-.104-2.877-.208-5.77-.163-10.57.032.288.074-.27.073 1.163-.015-8.248-.277-14.06-.177-23.108.23 2.67.074-3.078.274-3.557l-.06-4.867-.097 1.953c.002-4.26-.143-8.028-.08-11.692l.083 3.167-.04-7.987-.073 4.52c-.103-4.312-.25.463-.196-5.21.02 1.152.003-4.265.118-6.486v.014c-.062-2.108-.127-4.278-.08-7.43.063-.82.216.66.257.126-.163-2.08-.05-9.982-.22-12.617.04.88.14.925.16.636l-.13-1.745c.04-1.975.06-2.264.142-1.943.02-5.94-.242 1.886-.14-5.162.01.553.03.29.05 1.44.05-7.08-.086-13.677-.026-20.183.187-1.92.05 5.684.207 3.487-.042-9.38-.232-19.423-.193-28.5l-.02 1.692c-.25-1.258.122-6.76 0-11.35.02 1.124.14 1.474.112 1.17.035-6.216-.07-12.71-.15-22.128l.062 1.167.048-13.604c-.06-1.174-.05-3.437-.135-2.062.314-12.2-.178-23.273.072-34.1.002 1.295.05 3.086.048 2.056l-.057-9.22c-.085.73-.05 1.208-.117 3.145-.052-1.168-.092-3.77-.092-6.056.057 4.147.137-.036.182-1.827-.025.3-.054-.313-.08-.16.145-4.82-.17-.81-.07-7.385l.042.348c-.023-2.46-.08-4.73-.067-7.384.092-1.1.045 2.62.12 2.79-.008-3.73-.174-7.357-.085-10.73l.052 5.443c.103-3.676.075-4.102.09-6.832l-.003.27.038-6.313-.025 1.608c-.223-4.666-.05-9.5-.188-15.785.128 6.11.073 1.01.16 1.478.024-1.605.047-4.044.073-3.35-.074-2.97.044-4.958-.06-9.15.026-.187-.002-3.177.064-2.507-.027-3.863-.043.912-.077.587-.09-5.953.077-13.992-.044-22.554l-.147-15.6c.027-2.314.065 1.892.065 1.892.024-3.73.015-6.537-.006-10.053.013.713.025-.02.04-1.093-.007-2.822-.057-1.887-.038-5.608l.063 2.818-.066-10.05c.02-.913.035 2.077.053 3.29-.024-3.864-.06-9.994-.07-11.217l-.007 2.482c-.003-1.41.025-.725.032.314.03 3.314-.004 4.78-.017 4.968l-.01-2.45c-.07 2.517.016 9.844.02 14.778l-.065-2.057.057 5.06c-.018 1.076-.058 1.813-.068-.624l-.016 6.17c-.007.336-.01.184-.013-.126l.02 3.456c-.015-.677-.055.575-.042-1.548-.054 6.203.055 10.004-.012 12.34l-.004-.52c.025 8.608.064.833.145 7.29l-.175 4.344.07.846c-.002.888-.008 2.645-.038 2.32.05 3.304.033-.564.08 1.355-.07 4.273.034 11.784-.097 12.748.063 1.535.05-4.087.092.476-.144 1.3.024 5.275-.044 9.18-.078-1.2-.033-4.9-.106-.992.13 2.356-.036 7.603-.015 10.897.056.078.066 1.868.067 4.33l.01 8.358c-.04-.35-.073 10.4-.125 15.54l-.023-.15c.13.994.102 6.298.128 10.158-.08-.15-.113-.846-.147-2.938l-.003 3.63c.043.857.065 1.99.08 4.344l-.104-.913c0 4.83.116 9.728.04 15.945.103.35.283-4.944.352 1.63-.055.243-.15.486-.172-1.235.007.564.045 2.01.02 3.145l-.09-2.626c-.044 2.83.076 1.48.067 3.743-.08-.045-.058 1.675-.12 1.35-.01-.577.033-1.974.002-2.84-.017 2.55-.067 5.637-.13 6.656.047-.223.11 0 .12 1.868.002 4.832-.1 1.654-.146 4.472.057 1.17-.006 4.252.12 4.333-.003 1.414-.062 1.676-.096 2.222.053 2.5.006 11.68.146 8.86l.01-.64c0 .12.003.26.005.41v-.022.02c.126 8.196-.084 17.026-.03 25.157l-.047-.013c.05 4.855.026 10.804.127 14.27 0 1.437-.088 3.39-.144 2.776.034 3.71.088 4.126.006 9.486-.082-3.73-.075 1.286-.06-3.824-.043 4.82-.122 5.913.008 11.09-.124-1.762-.16 3.63-.124 5.922l.092-3.378-.007 7.12-.165-1.24c-.214 9.868.34 17.795-.01 25.305.118 2.61.086-5.358.225-3.024-.024 4.54-.275 9.268-.276 10.69-.1 6.216.252 5.8.183 12.305.063-.83.23-1.617.29 3.245-.025 4.542-.266 5.582-.316 2.715-.004-1.09.016-1.615.038-1.57-.023-1.466-.05-3.39-.118-1.593l.063.59c-.065 2.252-.06 8.5-.163 7.033.06 3.432.103 1.468.136-1.074-.093 5.826-.005 9.102-.068 15.097.035-.953.11-1.83.11-.882-.08 8.795.12 3.872.147 9.832-.098 3.385-.232-1.213-.15 4.785-.068 3.663-.17.776-.223-.68.122 5.465-.08 10.212-.103 13.333l-.053-2.88c.03 1.723.03 3.133.03 4.568l.127-1.643c-.022 1.69-.023 3.12-.076 3.09.084 1.74.213-1.334.327 2.122-.065 2.254.07 6.863-.1 7.64.058-7.086-.168.784-.197-5.214.02 1.157.02 2.568-.002 4.263-.02.256-.035-.238-.045-.7-.148 6.78.193 3.116.19 10.145-.095-.893-.18 1.63-.16 2.776.002-2.832.16-1.354.233 1.245-.073 4.506.056 4.897.047 7.258l.035-2.694c.094.912.082 3.165.112 6.306-.073.27-.05-2.852-.083-1.73.166 3.487-.17 7.88-.056 12.744-.062 2.253-.175.218-.217 2.197.063 2.725.032 4.2-.002 5.712l-.04 2.45v1.548l.022 2.2.04-.828c.012-.157.02-.288.03-.387.015-.196.027-.26.038-.148l.018.308.022.725.012.68c.022.104-.037.294.05.343l.432-.007 1.627-.04-1.396.01-.456.005c-.072-.004-.163.01-.22-.01v-.225l-.005-.91-.023-2.408-.046-4.71.183 6.045-.06-7.7c.104 2.88.072 2.583.175 1.222-.093 1.945-.065 3.873-.03 5.876.01.5.018 1.007.027 1.52.002.324.005.65.01.98-.035.116.074.09.157.09l.25-.003.497-.003c1.118-.007 2.152-.002 3.29.028l-.136.306c6.76.13 12.01-.163 20.787-.09l-2.82-.052c1.177-.12 5.42-.02 8.26-.068-.263.1 1.514.134 2.727.195-.148-.072 6.424.003 7.222-.193l3.918.126c7.088.047 8.09-.28 14.902-.248-2.052.104 1.044.17-3.52.247h3.018c.8-.005 1.32-.017 1.338-.05 1.33.058 6.308-.13 8.4-.043.96-.042 1.272-.14 3.826-.134.278.02-.01.046-.01.046.01-.046 3.998-.064 1.766-.166 7.007.286 19.584-.025 25.686.215l15.452-.07c-.29.026-.015.043-.867.034 6.217.078 3.822-.252 10.896-.163 3.613.138-3.757.077-1.504.13.98.282 8.538-.044 13.298.115l-1.152.017c3.638.09 8.878-.112 14.823-.097 0 0-.29.024-.034.04 4.067-.14 11.764-.186 17.484-.225-1.78.1-2.6.054-1.513.154 2.565-.016-.75-.16 4.368-.19 1.664.052 5.355.096 5.845.2l-4.827.01c2.473.132 6.248-.012 8.792.008l-.325.058c7.398-.03 7.5-.17 15.452-.166l-.822-.04c4.345-.137 3.643.07 7.977-.03l1.312.13 15.185-.16c-2.914.092-8.93.148-12.653.21 2.842-.003 9.66-.025 11.14-.086-1.146.013-2.59.045-3.72.027 3.487-.102 8.074-.15 13.737-.15-.5.112 3.19.122 7.52.123 1.082 0 2.204 0 3.31.002h.769c.085-.017.258.054.21-.095l.003-1.002.005-1.577c.008-2.04.026-3.795.063-4.822-.087-10.02-.003-19.875-.035-31.547-.122 4.14-.01-3.408-.137-2.69v-4l.065-8.238c.033-1.954.03 2.584.057 2.335 0-5.953.047-2.498.07-6.437-.04.808-.062-2.07-.05-5.462l-.047 4.778c-.07-8.318.085-7.19.016-15.575l.037 2.65c-.026-4.302-.02-15.87-.102-20.09.01-.76.037-1.766.046.128l-.047-30.88.023.78c-.007-1.92-.043-3.34-.02-5.742.01.124.022.772.023-.116-.004-1.016-.02-5.095-.027-7.638l.025 2.172c.03-10.03-.06-15.392-.073-23.803.01.004.016-.117.024-.34.003-.223.01-.544.02-.94l.03-3.138.036-7.39.01.137c-.023-11.68-.04-19.84-.06-30.655.102-6.714.074-22.742.162-33.532-.023 1.65-.083-.268-.09-2.187.027-2.532-.068-7 .036-6.597l-.003.9c.107-1.907.095-7.11.108-11.174l-.147-.67c.25-10.628-.04-27.846.196-33.647l-.076-8.285.102.138.056-19.438.076 1.792c.02-4.955-.31-6.256-.315-10.826l.173-1.374c.007-8.643.18-17.392.022-25.933.027.14.08.395.086 1.794.01-4.07.142-15.738-.117-14.26.042-.025.064-.595.073-1.51l-.008-3.57c-.04-2.8-.086-6.172-.118-8.506l.125.727c-.158-3.94-.203-4.066-.247-9.567.017-1.304.1-1.143.07.59.065-4.346-.12-3.387-.053-8.654l.08 1.963c.01-4.472-.034-4.116-.127-6.578-.05-2.81.03-8.48.143-9.14-.068-.602-.16-3.05-.128-5.685.042-.355.07.604.082 1.086.042-3.737.004-6.516-.027-9.002l-.034-3.594v-1.124c-.013-.04.028-.13-.028-.127h-.154l-.308-.002-.59-.003-1.866-.03c-.107-.04-.442-.06-.868-.073h3.382l.38.002c.05.012.158-.032.16.03V80.548l-.004 3.403c-.003 1.883-.006 2.967-.01 2.743.114 0 .13-4.797.29-.98-.022-.964-.05-2.097-.08-3.33l-.043-2.065-.01-.85c-.25-.04-.568-.007-.846-.012l-1.173.02c-2.712.052-5.527.086-7.864.06l-.62-.038.485-.013c-1.08-.01-2.045 0-2.955.02l-3.872-.032c-.553-.092-5.5-.046-7.892-.05.197.122-2.934.105 0 .203-.38-.01.452-.015 2.042-.02l1.02-.014-.164.01 5.946-.01c-1.89.063-3.864.115-6.51.05-1.23.072-2.58.15-3.338.196-3.273-.168-9.582-.255-10.46-.356-7.303.072-17.205.06-21.796.276-2.077.03-2.388-.06-3.164-.093 1.2-.022 2.625-.02 3.273-.05-4.15.057-12.3.03-13.29.176-5.234-.062 2.94-.134-4.25-.106l.97-.045c-14.144-.203-22.996.364-38.677.103 1.086.014 1.63.02 1.85.043-17.877-.088-36.842.116-54.484-.006-5.015-.018-5.558.04-8.618.085l-1.087-.068-5.234.085c-7.42.052-12.85-.13-22.243-.022l1.212.032c-3.374 0-10.687.03-10.124-.004-.344.006-1.105.03-2.424.018l-.103-.02-8.288.043c-6.424-.003 1.006-.07-8.37-.045-3.36.023-7.35.05-8.616.06l3.7.01-3.19.006c-.577.03-3.028.035 4.796.087l5.453-.003 1.755.026-4.59-.016c2.604.028 4.255.02 6.102.012l2.285.034 5.353-.033c.65.024-2.4.035 1.192.06 2.507-.018-2.405-.057 1.746-.064 2.61.034 1.848.057 4.908.04.432.018-.217.027-1.43.03 2.725-.01 7.212.015 8.618-.02 2.72.05 9.2.008 8.933.09l7.303-.053c-4.573.096 9.37.028 8.16.15 3.385-.097 12.226-.013 18.22-.066-.335.01-.993.027-1.522.02 3.373.045 4.356.06 6.524.088.433-.104 5.688-.12 8.52-.186 4.136.116-2.51.128-1.213.233-.207-.09 7.187-.076 5.78-.157 3.163.075 2.726.038 4.355.14.555-.148 2.945-.02 5.568-.107 4.577.083 1.18.146 6.207.11 2.392.053-2.08.098-2.08.098zm119.585-.18v.002l-2.47.006c.516 0 1.228-.004 2.47-.008zm7.778 1.613l.003-.97v-.402l.002-.146c-.006-.045.022-.123-.05-.1h-2.042c-.353-.044.03-.088 1.04-.086-.138.008-.092.015.076.02.15.006.41.013.725.022l.164.005c.045.016.15-.03.12.06l-.012.37c-.01.423-.017.852-.025 1.227zm-18.985-2.463c1.59-.018 2.123.006 2.34.03l-2.78.017-.188.016c.15-.024.324-.046.628-.062zM234.648 79.605l-.656.01c.325.01.634.017.95.026l.562-.037-.856.002z"/><path class="st1" d="M17.374 279.816l-.003.212c.008-.175.014-.336.02-.444l-.016.232zM256.383 220.675l.024-.014-.023-.877zM17.756 224.467c.01-.105.018-.313.026-.726-.007.033-.016.346-.026.727zM17.756 200.558l.028-3.38-.028 3.38zM17.777 182.176c-.015-.233-.026-.3-.036-.36v.036l.037.324zM18.13 474.456c.004.247.006.49.008.71.028 1.663.017.532-.007-.71zM17.78 387.476c.022.924.045 1.834.07 2.797.01-1.55.013-2.752-.07-2.797zM84.477 503.986l-.01.002h.6l-.59-.002zM17.848 394.317c.03-1.548.022-2.843 0-4.044-.008 1.27-.023 2.764 0 4.044zM17.66 102.502l-.002-.885c-.002.014-.004-.038-.005-.106l.006.992zM17.653 101.51l-.006-.983.006.984zM17.635 98.458l.012 2.07-.012-2.07zM17.69 126.837l.018.28c-.004-.153-.01-.25-.018-.28z"/><path class="st1" d="M17.708 134.232l.015-6.887-.015-.23v7.117zM17.43 165.1l.027-6.198c-.028 1.084-.067 2.508-.07-.31-.093 7.81.063-1.612.043 6.507zM17.366 184.313c-.01-3.33-.047.04-.065-.137.027 2.112.034 2.623.066.137zM17.247 323.17l-.122-.336c.015 2.567.047.025.122.335zM17.9 349.713l.077-2.497-.118-1.19zM16.97 365.393l-.018-1.12.045 4.28zM111.496 505.144l-.776-.144c-1.735.027-2.1.19.776.144zM212.172 504.916c1.097.054 3.93.084 5.674.03-2.263-.013-4.52-.024-5.674-.03zM257.185 247.376l.025 2.025-.016-3.815z"/></g><g><path class="st1" d="M157.13 539.808c.013.05.047.022.025-.114l-.07-.096.046.21zM157.17 538.89c-.05-.158-.158-.336-.236-.228.114.15.084.19.198.357.02.135-.005.237-.034.215.023.048.01.21.057.284.03-.18.032-.405-.045-.637.016-.05.044-.003.06.008zM152.79 526.318l.02.1c.006-.036-.002-.07-.02-.1zM146.226 520.824c.065.018.112-.017.136-.058-.07.003-.13.01-.136.058zM145.08 519.675c.026.027.05.044.073.066-.015-.057-.037-.095-.072-.065zM152.79 526.318l-.045-.264c-.118.083-.003.16.046.264zM156.617 537.112c.018.044.043.08.07.11l-.043-.106-.027-.004zM155.16 529.262l.033.06c.046-.002.1-.01.156-.023l-.19-.038zM156.384 531.898c-.01-.068-.257.01-.37.032.11-.007.173.02.21.066.045-.018.096-.048.16-.098zM157.078 536.41l.03.076-.03-.076zM154.14 527.427c.04-.035.07-.07.085-.096-.035.027-.062.06-.085.097zM134.12 558.797c-.005.01-.003.02-.006.028.018-.01.024-.02.005-.028zM137.23 559.82h-.044c-.005.008-.01.016-.01.024l.055-.025zM142.555 518.268l.01.01c.086-.03.043-.032-.01-.01zM120.45 527.69c.28-.138-.092.486.282.244-.075-.005-.01-.475-.282-.245zM156.618 537.04l-.027-.11c.008.05.017.085.028.11zM120.732 527.934l.04-.024-.04.024zM136.02 518.067c.017.073.045.127.075.18-.005-.044-.022-.096-.076-.18zM140.75 518.843l-.106-.076c.04.047.075.066.107.076zM133.635 518.983c-.068-.02-.1-.07-.174-.002.012.02.023.032.035.044.02-.06.058-.092.14-.04zM131.18 519.605c.02.025.044.04.066.06l.07-.04-.137-.02zM127.842 555.942c-.004.105-.027.206-.055.302.083-.21.392-.09.055-.302z"/><path class="st1" d="M156.692 537.1c-.037-.008-.058-.025-.074-.06l.026.076c.02.004.04.003.048-.015zM134.085 522.122l-.354-.022c.105.028.233.035.355.022zM118.66 543.24l.052.075c-.002-.032-.017-.06-.052-.074zM132.744 522.354c-.095-.12-.18-.183-.26-.22-.006.033-.016.06-.013.106l.274.114zM127.786 556.247v-.003.003z"/><path class="st1" d="M130.105 556.857c-.29-.176-.275.24-.42.393-.4-.11-.057-.34-.1-.582-.252-.045-.57.167-.732.062.015-.064-.006-.103.066-.152-.376.142-.7-.376-1.15-.22 0-.044.006-.08.016-.11-.06.206-.155.39-.237.512-.137-.08-.383.066-.296-.2.078.06.14-.03.22-.077l-.198.01c.076-.415.258.008.402-.238-.323-.07-.814.006-.962-.223.172-.358.547.203.462-.27l.233.335c.08-.677.165.164.286-.537-.327-.376-.55-.133-.87-.52-.21.115-.158.296-.37.41-.79-.112.184-1.177-.527-1.057-.27.138-.643.52-.755.074l.4-.294c-.318-.342-.642.348-.792-.24.19-.082.37.137.357.044.025-.512-.34.05-.52-.122l.253-.358c-.398-.292-1.026-.436-1.442-.82.12-.067.283-.09.298-.282-.307-.186-.544-.476-.728-.798-.162-.34-.258-.723-.343-1.066l-.47.03c-.03-.05.082-.19.182-.185-.03-.293-.214.135-.416.125-.113-.105.07-.287.224-.28-.543-.166-1.307-.734-1.215-1.348l.153.023c-.072-.385-.922.012-.767-.476l.09.028c-.115-.408-.36-.774-.552-1.143-.183-.37-.26-.764-.145-1.14-.522.056-.132-.813-.803-.656.167-.554.332-.46.304-1.135-.036-.17-.47-.155-.603-.356l.307-.075-.42-.217.313-.227-.128-.185c.003.083-.09.196-.18.2-.202-.296.02-.813.155-.838-.146-.235-.287-.476-.423-.72.11.005.178.127.273.217-.375-.37.255-.103-.088-.442-.05.056-.16-.01-.21-.015.128-.202.056-.623-.05-.937l.17.052c-.028-.284-.095-.583-.167-.894-.067-.31-.08-.633-.097-.958-.053.23-.292.17-.313-.025l.2-.068c-.125-.13-.073.198-.227-.065.024-.246.22-.152.29-.01l-.074-.3c.057-.014.09.057.163.08-.12-.13.168-.495-.034-.688l.055-.012c.04-.646.02-.95.064-1.48-.137-.036-.083-.238-.17-.42.106-.382.322-.78.417-1.245.017-.34-.082-.123-.12-.29.12.007.224-.457.244-.194.128-.556.214-.693.368-1.407-.072.057-.123.133-.144.076.028-.13.15-.264.196-.226v.037c.087-.855 1.133-1.534 1.186-2.217l-.008.037.243-.63c.19-.243-.013.207.186.06.206-.715.65-.924.91-1.456.677-.064 1.023-1.254 1.76-1.415l-.124-.067c.018-.195.197-.076.307-.13-.092-.063-.218.03-.2-.086.842-1.054 2.305-1.563 3.55-2.036.44-.194-.315-.964.49-.862l.042.392c.323-.396.765-.645 1.224-.832.47-.172.933-.328 1.286-.713-.013.11.037.228-.05.262.3.19.7-.225.613-.47.152-.017.118.207.252.302.254.12.34-.53.547-.264.035.044-.018.115-.045.15.072-.186.585-.144.35-.46.387.047.62-.32.954-.175.076-.455.643.073.56-.536.12.613.713.37.89.064-.04.2.23.178.19.454.247-.034.46-.18.366-.507.564.73.88-.76 1.246.275.722-.35 1.434-.676 2.137-.753-.045.7-.768 0-.738.746.63-.244 1.045-.802 1.69-.594.16.108-.122.3-.186.415.678-.272 1.217.26 1.853-.055-.014.066-.088.128-.155.173.116-.004.24.147.288-.177l-.126.07c-.106-.497.64-.908.72-1.146-.385.873.528.384-.036 1.47.085-.043.21-.17.244-.39.095.092.098.226-.067.442.434-.07.38-.448.744-.346-.043.155-.132.195-.217.368.26-.255.534-.507.807-.298-.046.088-.047.218-.138.192.528.096 1.15-.476 1.63.007-.42.585.113.282-.083.847.12-.018.247-.046.366-.055l-.008-.316c.256.115.66-.162.804.118l-.294.132.53.124-.178-.332c.397-.15.293-.693.578-.374-.1.02.267.136.245.51h-.002c.215-.1.454-.222.57.025-.044.19-.354.54-.383.67.36-.355.644.22 1.067-.13-.117.073-.277.33-.293.393l.308-.273c.05.175.035.235-.112.428.31.262.28-.68.527-.17-.05.006-.066.064-.166.073.337.358.906.334 1.167.736-.23.522-.394-.114-.555.353.285.136.652.19 1.004.274.343.093.65.242.845.49l-.048-.12c.572-.502.098.58.575.523-.096-.01-.36.232-.288.185.25.342.743.46 1.36.78l-.19.064c.05.29.397.526.506.785.185-.048.26.093.4-.14-.13.64.223.85.586 1.073.376.206.695.463.587.97-.05-.075-.233-.104-.195-.045l.47.45c.196-.173.09-.148.19-.366.177-.01.376.086.46.224-.3-.164-.355.21-.408.38.056-.057.153-.063.216-.11-.216.502.49-.206.435.35l-.123.04c.135.12.354.19.404.375-.21.192-.195-.107-.404-.013.135.217.693.234.558.562-.117-.07-.19-.212-.308-.277-.167.364-.08.352-.035.54v-.02l.082.437.02-.13c.772.023.375.554.924.814-.51-.267-.232.012-.49.074-.028.128-.036.31-.124.29.277.118-.01.36.386.53-.07.037.08.204-.124.22.17.223.102-.097.205-.107.392.315.025.992.53 1.473.287.46.496.518.653.984-.058.176-.217-.097-.217-.097-.03.272.027.46.126.696-.05-.043-.077.013-.114.094.054.19.192.107.177.373-.057-.038-.146-.085-.22-.17.093.22.237.436.294.674-.06.07-.112-.136-.186-.213.092.26.158.69.255.767l.016-.176c.012.1-.072.057-.098-.014-.102-.225-.004-.337.035-.354l.038.17c.223-.2-.118-.688-.186-1.026l.22.117-.224-.33c.04-.083.15-.154.206.014.07-.266-.108-.208-.018-.442.016-.027.028-.018.04.002l-.1-.233c.055.04.158-.07.143.087.102-.474-.278-.674-.132-.876l.024.033c-.224-.58-.2-.017-.55-.402l.434-.432-.223-.003c-.007-.064-.02-.19.07-.192-.2-.19-.083.066-.255-.028.062-.175-.008-.375-.06-.547-.064-.17-.1-.316.077-.41-.216-.045-.04.32-.275.054.38-.227-.196-.33-.1-.66.25 0 .215.298.323-.043-.426-.022-.087-.556-.23-.76-.3.11-.318-.43-.594-.744.12-.026-.128-.77-.156-1.186l.062-.02c-.362.11-.495-.253-.706-.454.216-.113.325-.118.492-.036l-.13-.234c-.143.01-.243-.026-.37-.15l.3-.103c-.19-.308-.66-.43-.716-.94-.27.158-.498.76-.943.504.127-.107.35-.284.48-.223-.042-.02-.2-.036-.19-.142l.343-.007c-.02-.236-.255.047-.33-.1.198-.134.07-.196.24-.288.042.022 0 .175.114.173-.072-.176-.085-.446.02-.618-.102.095-.264.193-.37.1-.218-.277.168-.276.15-.526-.186.035-.175-.265-.473-.036-.06-.086.068-.212.124-.31-.22-.06-.583-.64-.756-.218l.01.053c-.012-.003-.02-.01-.033-.013h.002c-.69-.176-.635-1.1-1.187-1.4l.097-.097c-.368-.132-.64-.48-1.027-.422-.076-.07-.01-.363.134-.46-.277-.102-.382-.017-.544-.44.374-.024.07-.238.335.036-.192-.325-.12-.558-.667-.482.333-.214.072-.546-.132-.563l.04.372c-.185-.074-.297-.204-.413-.335l.365-.35c-.24-1.014-1.68.117-1.6-1.084-.35.206.213.436-.155.702-.245-.234-.18-1.074-.274-1.136-.272-.51-.752.46-1.09.06-.027.197-.205.667-.598.674-.262-.204-.03-.898.228-.938.08.022.09.094.06.15.127-.013.293-.02.26-.265l-.122.15c-.067-.25-.504-.443-.275-.676-.312.047-.228.234-.096.408-.285-.45-.615-.318-.977-.64.03.122.008.353-.058.326-.537-.453-.405.236-.846.16-.14-.36.317-.623-.188-.55-.197-.282.105-.5.263-.61-.51.196-.673-.497-.9-.615l.264-.09c-.16.053-.267.023-.377-.007l.02.4c-.11-.096-.217-.125-.172-.28-.197.21-.072.64-.416.906-.116-.23-.55.076-.487-.43.484.298.062-.51.535-.477-.104.036-.21.007-.322-.09-.006-.06.043-.098.085-.117-.416-.57-.37.5-.89.36.126-.265-.014-.56-.117-.51.22.04.007.482-.23.667-.298-.267-.397.11-.567.058l.184.13c-.117.27-.276.21-.52.265.013-.22.233-.12.166-.228-.328.454-.513-.59-.924-.31-.148-.21.043-.525-.095-.673-.453.33-.425-.4-.896-.118.104.374.127.285-.2.636l.736-.238-.5.525c.21.014.468-.217.59-.15-.244.298-.21.205-.14.52-.242-.57-.59.3-.892-.09l.055-.915c-.51-.404-.93.405-1.588.245l.216.14c-.08.364-.404.078-.612.237.008-.3-.13-.397-.233-.574.024.218-.494.02-.508.608l-.326-.36c-.555-.103-.512.912-1.014.885.107-.335-.152-.495.158-.776-.17.027-.33.003-.305.2-.13-.158-.407.46-.605.22-.05.135-.02.43-.208.437-.03-.05-.025-.135-.025-.135.024.136-.253.233-.032.51-.683-.734-1.358.418-1.984-.17-.336.172-.71.448-1.018.575-.006-.082-.043-.124.025-.12-.515-.06-.003.805-.577.733-.402-.292.173-.31-.04-.397-.383-.762-.547.33-1.046.06l.057-.084c-.36-.125-.46.594-.873.743 0 0-.013-.073-.052-.108-.092.492-.51.884-.8 1.21-.04-.324.08-.24-.138-.455-.136.14.29.39.02.658-.183-.075-.482-.048-.678-.29l.288-.212c-.366-.243-.38.272-.57.317l-.075-.16c-.43.36-.175.737-.65 1.067l.118.062c-.01.516-.34-.015-.41.416l-.316-.253c-.108.21-.34.753-.552 1.068-.028-.35.196-.77.31-1.073-.172.123-.516.5-.468.72.036-.084.052-.23.148-.245.008.41-.14.737-.44 1.013-.404-.54-.89.614-1.396.542-.3.73-1 1.076-1.42 1.846.474-.02-.13.216.21.404-.092.175-.14.232-.17.232l-.52.366c-.165.06.04-.2-.038-.233-.26.352-.22.07-.44.275.13.016.078.234-.08.43l.3-.225c-.14.63-.49.317-.635.95l.006-.223c-.05.155-.19.412-.306.68-.095.278-.17.564-.127.757-.053.036-.156.068-.12-.07-.167.34-.283.747-.405 1.124-.1.387-.185.753-.35 1l-.044-.076c-.028.14.037.272-.086.414-.023-.018-.044-.075-.07-.016-.004.078-.014.387-.116.547l-.017-.17c-.316.67-.124 1.13-.243 1.723-.192-.048-.44.488-.51.77l-.028-.016c-.176.84-.156 1.454-.113 2.244-.318.468-.348 1.648-.525 2.457.064-.124.25.01.28.15-.073.192.226.5-.087.493l.008-.068c-.31.162-.266.553-.268.858l.446.002c-.616.88.404 2.01-.14 2.566.164.16.203.398.374.55l-.298.068c.023.55-.01.848.258 1.467l-.262-.058c.077.383 1.044.145 1.17.455l-.45.28c.177.624.01 1.446.722 1.83-.077.026-.227.078-.29-.012.11.29.15 1.298.793.815-.437.25.298.618.668.797l-.348.148c.562.007.677-.058 1 .218.008.11-.208.24-.195.075.005.386.42.022.488.445l-.285.02c.176.284.267.19.603.17.247.076.3.553.063.8.19-.088.517-.115.558.1-.083.1-.188.093-.24.09.14.612.875.337.85.862-.087.088-.115.147-.12.195-.298-.33-.526-.608-.482-.6-.265.218-.058.528-.62.62.407.054 1.16.044 1.284.407-.012.034-.024.07-.053.114h-.053c.032.082.105.113.193.124.04.12.06.2.13.283-.174.233.207.39.336.52.24-.273.377-.076.418-.437.003.037-.055.01-.156-.06-.027-.01-.055-.026-.083-.022l.03-.015c-.095-.07-.218-.164-.338-.29.227-.024.442-.038.45.235.232-.107.472-.215.59-.26-.174.524.004 1.036-.146 1.31.536.227 1.12.702 1.784.383.173.022.033.25.02.363-.11 0-.19-.068-.286-.022.35.047.79.473 1.094.156.21.37-.415.225.082.436l-.135.074c.273.544.808.522 1.304.53.495.023.983.02 1.335.602-.053-.074-.08-.11-.066-.174.52.423 1.178.618 1.84.755.653.162 1.277.36 1.865.652.34.144.422-.017.666-.092l.03.218.42-.153c.546-.047.85.526 1.57.32l-.074-.11c.24.038.766.033.717.113.026-.016.087-.086.178-.044l.002.062c.202-.04.403-.072.602-.1.458.03-.083.206.592.162.253-.044.71-.138.618-.144-.1.002-.256-.013-.263-.045l.226-.007c.042-.083.21-.09-.335-.277-.127-.008-.254-.01-.382-.008l-.12-.084.32.064c-.18-.09-.295-.073-.425-.06-.03-.04-.08-.077-.154-.108-.126.018-.253.048-.38.083-.04-.077.174-.1-.07-.185-.178.046.155.178-.136.184-.173-.11-.114-.17-.33-.14-.024-.063.023-.076.108-.082-.192.014-.488-.12-.598-.024-.166-.182-.627-.123-.57-.36-.065.04-.352.106-.523.078.363-.227-.617-.19-.453-.55-.286.222-.808-.17-1.244-.116.03-.02.088-.063.117-.032-.208-.108-.237-.24-.35-.363-.122.297-.47.213-.718.334-.15-.424.285-.303.302-.632-.072.26-.525.047-.52.308-.124-.285-.134-.17-.13-.494-.192.4-.203-.017-.467.17-.196-.338.09-.427-.264-.45-.08-.216.24-.213.242-.22zm-6.765-4.096l.006-.004c.052.046.096.086.125.11-.027-.02-.064-.052-.13-.105zm-.453-.503c.044.07.11.15.184.23-.08.103-.194.172-.236.116.09-.03.037-.2.053-.346zm-.826 2.87c-.13-.042-.104-.126-.063-.19.043.038.102.073.186.113l.042-.023c-.057.043-.113.08-.164.1zM122.558 554.927c.02.006.037 0 .056.013.004-.04.005-.073.004-.105l-.112.054.052.037zM152.814 526.436l-.004-.017c-.003.018-.006.036-.02.057.008-.02.017-.027.024-.04z"/><path class="st1" d="M119.018 543.928l-.07.017.082.04zM154.13 530.295c-.02.02-.036.045-.04.08.015-.012.027-.043.04-.08zM154.87 531.763l.024.244c.002-.11-.01-.186-.023-.244zM155.296 532.953c.047 0 .08-.01.11-.015v-.003l-.11.018zM140.338 521.818c-.017 0-.033.003-.05.012-.12.068-.042.046.05-.012zM146.145 522.664c-.094.044-.186.09-.268.106.08.074.15.116.268-.106zM134.123 522.125v-.007l-.038.004zM145.632 522.646c.055.125.143.144.245.124-.065-.063-.137-.147-.245-.124zM156.846 538.235l.005.062c.007-.002.013.002.017.006l-.02-.068zM156.867 538.303l.02.068c-.003-.03-.008-.058-.02-.067zM156.93 538.513l-.042-.142c.007.05.013.112.043.143zM156.543 536.565l-.06-.01c.015.01.034.012.06.01zM156.41 536.067c.014.123-.05.32.028.48l.046.008c-.102-.063.047-.392-.073-.488zM156.692 533.743l.036.456c.06-.1.147-.233.206-.037.125-.63-.15.166-.242-.42zM156.395 532.368c.114.217.13-.053.186-.06-.126-.12-.16-.145-.185.06zM150.827 523.917l.26-.263c-.175-.094-.096.108-.26.263zM148.146 524.305l-.003.292.272-.24zM148.742 521.364h.102l-.353-.058zM131.522 519.153l.17.403c.104-.11.006-.59-.17-.403zM125.062 523.012c-.16-.083-.382-.028-.386.18.14-.09.345-.093.386-.18zM116.33 542.49l-.098-.142.09.277z"/></g></svg>