<svg xmlns="http://www.w3.org/2000/svg" viewBox="0 0 273.90625 582.11863"><defs><style>.cls-1{fill:#fff;fill-rule:evenodd;}.cls-2{fill:#496481;}</style></defs><title>Asset 7</title><g id="Layer_2" data-name="Layer 2"><g id="Layer_1-2" data-name="Layer 1"><path class="cls-1" d="M234.94181,581.24017H40.53842a37.38528,37.38528,0,0,1-37.3853-37.3853V153.55257c-1.4454,0-2.617-2.2932-2.617-3.7385v-7.477c0-1.4454,1.1716-3.7386,2.617-3.7386v-14.9541c-1.4454,0-2.617-2.2932-2.617-3.7385v-7.4771c0-1.4453,1.1716-3.7385,2.617-3.7385V93.73617h-.7477c-1.4453,0-1.8693-.7978-1.8693-2.2432V78.03437c0-1.4454.424-2.2432,1.8693-2.2432h.7477V41.39677a37.38528,37.38528,0,0,1,37.3853-37.3853H203.53821v-.7477c0-1.4453.7977-1.8693,2.2431-1.8693h24.6742c1.4453,0,2.2432.424,2.2432,1.8693v.7477h2.2431a37.38534,37.38534,0,0,1,37.3853,37.3853v502.4581A37.38534,37.38534,0,0,1,234.94181,581.24017Z"/><path class="cls-2" d="M234.94177,581.39014l-80.42688.15173-80.42676.39746-20.10681.10974-10.05334.05518c-1.68054-.0022-3.33325.05908-5.06311-.05579-.85535-.053-1.7168-.04529-2.56763-.15l-2.54736-.37439a18.57865,18.57865,0,0,1-2.5166-.53528c-.82764-.22656-1.6781-.38074-2.48719-.66882a38.23231,38.23231,0,0,1-4.78344-1.91089,37.8877,37.8877,0,0,1-4.511-2.4939c-.7384-.44189-1.397-1.0022-2.09912-1.49878a18.6778,18.6778,0,0,1-2.01355-1.61157l-1.92-1.72766-1.7533-1.89685c-.2876-.32044-.59058-.62805-.86523-.95935l-.78016-1.03015c-.50976-.6941-1.06225-1.3595-1.5354-2.07911a39.54525,39.54525,0,0,1-2.56164-4.48986,24.20811,24.20811,0,0,1-1.08045-2.35047l-.89941-2.42883a37.96743,37.96743,0,0,1-1.86011-10.15662c-.12744-1.746-.09411-3.40063-.10339-5.079l-.01233-5.02661L1.918,515.47351l-.09888-40.21338.08069-80.42688.29089-80.42688L2.532,233.97949l.14929-80.42688.47168.4718a2.75184,2.75184,0,0,1-2.12011-1.363,5.68969,5.68969,0,0,1-.89722-2.173A4.33343,4.33343,0,0,1,.0752,149.877l-.00184-.55017L.0752,148.243l.00366-2.16748.00366-2.1676.00183-1.08374.00366-.54993a4.37485,4.37485,0,0,1,.06177-.60913,5.67645,5.67645,0,0,1,.89575-2.16675A2.73657,2.73657,0,0,1,3.153,138.14294l-.45532.45545-.01892-14.954.47424.47436a2.75872,2.75872,0,0,1-2.12744-1.36059,5.70078,5.70078,0,0,1-.905-2.17529,4.34229,4.34229,0,0,1-.06213-.61377l-.00342-.55054-.00134-1.08374-.00281-2.16748-.00268-2.1676L.04675,112.916l.002-.55066a4.36535,4.36535,0,0,1,.061-.61548,5.71549,5.71549,0,0,1,.90234-2.18286A2.77544,2.77544,0,0,1,3.153,108.19409l-.49609.4961-.0188-14.954.515.515-.679.00086a3.54715,3.54715,0,0,1-.785-.072A1.90468,1.90468,0,0,1,.29675,93.09753a3.80269,3.80269,0,0,1-.27966-1.54065L.01428,90.19446l-.007-5.43079L.00049,79.33289,0,77.97034a3.81354,3.81354,0,0,1,.27808-1.5492A1.92815,1.92815,0,0,1,1.684,75.32385a3.57879,3.57879,0,0,1,.79016-.07428l.679-.00085-.54236.54236L2.53308,43.77814c-.00989-1.33228-.02185-2.66382.0686-4.02668l.09644-2.03234c.058-.675.18762-1.34308.27856-2.01508l.30518-2.01269.49963-1.97388c.1814-.65351.30176-1.32611.53418-1.964l.69324-1.91535a37.82842,37.82842,0,0,1,8.78674-13.58276,38.50277,38.50277,0,0,1,13.676-8.68512c.64148-.22729,1.27161-.49206,1.92322-.68768l1.97729-.51624a29.03147,29.03147,0,0,1,4.0083-.77935,31.51122,31.51122,0,0,1,4.06958-.34693c1.37464-.105,2.68164-.043,4.02344-.067l32.01294-.10321,128.05164-.41034-1.35181,1.3518-.00073-.51465.00049-.26684.01538-.36a3.1475,3.1475,0,0,1,.60986-1.68085,2.89444,2.89444,0,0,1,1.59558-.999,5.47064,5.47064,0,0,1,1.35645-.1532l4.12048-.00641,8.23462-.01226,8.23474-.01221L230.47363,0A5.49579,5.49579,0,0,1,231.84.15149a2.9331,2.9331,0,0,1,1.61926,1.01111A3.19408,3.19408,0,0,1,234.0813,2.866l.01623.36352.00122.26721.00086.51465L232.69885,2.6106c.813.003,1.61341-.01185,2.43677.00586l2.51758.12231,1.25867.06384,1.24707.18689,2.49365.37836c.81921.1861,1.63122.40863,2.4469.61273l1.22192.31372c.40466.1131.79321.27826,1.19055.41522l2.37061.865c.772.33155,1.52112.71723,2.28222,1.07471l1.13709.54718c.37427.191.724.42719,1.087.639l2.158,1.30816c.6875.4831,1.35327.9986,2.03015,1.49769l1.01074.75531.93982.84137,1.869,1.6958,1.70153,1.86389.84522.93689.75842,1.00885c.50159.67535,1.018,1.34094,1.50513,2.02624l1.31518,2.15552c.21338.36255.44947.71271.64356,1.08569l.551,1.13636c.36036.76055.7472,1.51013,1.08326,2.28112l.87292,2.371c.1388.39727.30371.78649.42029,1.19067l.31775,1.22272c.20715.81622.43078,1.62927.6217,2.44885l.38623,2.497.1908,1.249.06885,1.2608.12976,2.52259c.02124.82513.00793,1.62426.01355,2.43768l.00732,4.86035.01441,9.72058.06274,77.765-.13892,155.5299-.28747,77.765-.45227,77.76489-.38306,77.765-.06128,19.44361-.12854,2.44433c-.03064.40638-.0227.81665-.0852,1.21985l-.18689,1.20948c-.12891.80542-.24048,1.61413-.38391,2.41638l-.61426,2.36877-.31116,1.18286-.42273,1.148-.84839,2.29431-1.066,2.20142-.53711,1.09827-.637,1.04382-1.28088,2.0824-1.46814,1.955c-.24915.322-.4795.65955-.74414.96875l-.82386.903c-.555.59594-1.08557,1.21643-1.66088,1.79187a40.25813,40.25813,0,0,1-3.7129,3.17065c-.66052.47559-1.2904.99658-1.97607,1.43445l-2.09045,1.264a18.19717,18.19717,0,0,1-2.16224,1.13037c-.74023.33728-1.45471.73559-2.21606,1.02246a37.5955,37.5955,0,0,1-4.63538,1.52014A39.06866,39.06866,0,0,1,234.94177,581.39014Zm0-.29993a38.75457,38.75457,0,0,0,9.56165-1.30725,37.24968,37.24968,0,0,0,4.58484-1.52527c.7528-.287,1.45849-.6853,2.18994-1.02222a17.90716,17.90716,0,0,0,2.13562-1.12793l2.06335-1.25964c.67676-.43616,1.29749-.95483,1.94886-1.428a39.84626,39.84626,0,0,0,3.65881-3.15124c.56628-.57141,1.08789-1.1875,1.63415-1.77881l.81055-.89551c.26038-.30676.48633-.6416.7312-.96094l1.44238-1.9375,1.256-2.0625.62487-1.03308.52527-1.08691,1.04334-2.17725.827-2.26782.4126-1.13416.30139-1.16833.59619-2.3385c.1377-.79187.244-1.59009.3678-2.38452l.17957-1.19287c.06018-.39759.04992-.80237.07837-1.20313l.11657-2.40967-.02233-19.438-.38306-77.765-.45239-77.76489-.28748-77.765-.13879-155.5299.06274-77.765.01441-9.72058.0072-4.86035c-.0033-.80646.01233-1.62811-.00635-2.42206l-.11536-2.33154-.05713-1.166-.17578-1.15338-.347-2.30774-.57032-2.26208-.28735-1.13086c-.10608-.37384-.25989-.73285-.38708-1.1001l-.79761-2.19324c-.30933-.713-.66736-1.40533-.99719-2.1098l-.50379-1.053c-.178-.34558-.39746-.6687-.59387-1.00439L264.78516,21.396c-.45008-.6344-.92774-1.25025-1.389-1.87726l-.6969-.93738-.78162-.8678-1.56811-1.73205-1.72779-1.57325-.86633-.78369-.93542-.7c-.6261-.463-1.23987-.94415-1.87452-1.39471l-1.99585-1.21534c-.33557-.1972-.65771-.41931-1.004-.59668l-1.05237-.5075c-.70435-.33185-1.39588-.69391-2.10962-1.00379l-2.19348-.80548c-.36756-.128-.7262-.28473-1.101-.38995l-1.1316-.29144c-.75525-.19019-1.50634-.40082-2.26464-.57709l-2.31092-.355-1.15539-.17969-1.16822-.05975-2.33654-.12281c-.79578-.02-1.61621-.00763-2.423-.01306l-1.40307-.0094.00207-1.39154.00073-.51465-.00036-.24743-.00586-.15058c-.01428-.18872-.06275-.25006-.037-.21606.03052.04108.05139.01611-.11291-.02716a2.825,2.825,0,0,0-.6753-.066l-4.114-.00641-8.23474-.01221-8.23462-.01226-4.11426-.0058a2.88662,2.88662,0,0,0-.68506.06421c-.16931.04327-.15893.07129-.13672.03918a.96183.96183,0,0,0-.04882.23865l-.00684.154-.00122.2478-.00073.51465-.002,1.35639-1.35009-.00434L75.48645,4.953,43.47351,4.84985c-1.32495.01508-2.689-.05456-3.97693.04059a30.07114,30.07114,0,0,0-3.89831.306,27.527,27.527,0,0,0-3.84363.72009l-1.89819.48023c-.62586.183-1.23047.43439-1.847.64776a36.98689,36.98689,0,0,0-13.18933,8.25043A36.42738,36.42738,0,0,0,6.26978,28.31958l-.68213,1.84247c-.22937.61365-.34754,1.262-.52723,1.89136L4.5636,33.95508l-.30652,1.94159c-.09192.64843-.22327,1.29291-.28369,1.94494l-.10547,1.96412c-.09753,1.30017-.09583,2.63671-.09485,3.97241L3.69556,75.79108l-.00135.55285-.54113-.01037c-.98047-.01874-1.68384-.028-1.89661.54016a7.59135,7.59135,0,0,0-.18481,2.45917l-.00684,5.43078L1.058,90.19446a7.60856,7.60856,0,0,0,.17994,2.46777c.21679.58386.94079.57569,1.91516.55884l.51574-.00891-.00061.52405-.01892,14.954-.00061.51049-.4956-.01416a1.85468,1.85468,0,0,0-1.33.943,4.75178,4.75178,0,0,0-.74695,1.79187,3.42016,3.42016,0,0,0-.04748.46167l-.00318.533-.00134,1.08374-.00281,2.1676-.00268,2.16748-.00135,1.08374.00184.5332a3.41974,3.41974,0,0,0,.04626.46338,4.763,4.763,0,0,0,.74426,1.79932,1.87366,1.87366,0,0,0,1.34339.95544l.475-.01025-.00061.48474-.0188,14.954-.00061.46643-.45495-.01074a1.891,1.891,0,0,0-1.36341.96045,4.79185,4.79185,0,0,0-.75354,1.808,5.33156,5.33156,0,0,0-.04834,1.00171L.98962,143.908l.00367,2.1676L.997,148.243l.00183,1.08374.00354.53345a3.41169,3.41169,0,0,0,.0481.4657,4.77494,4.77494,0,0,0,.752,1.80188,1.8766,1.8766,0,0,0,1.35071.95288l.47107-.01245.00085.48437.14917,80.42688.34143,80.42688.29077,80.42688.08081,80.42688-.099,40.21338-.04943,20.10681-.01233,5.02661c.00012,1.67261-.03846,3.37085.07605,4.96985a35.67529,35.67529,0,0,0,1.70044,9.55884l.82824,2.2915a22.33837,22.33837,0,0,0,.9939,2.22351,37.34532,37.34532,0,0,0,2.36706,4.26026c.4386.6842.95569,1.31592,1.429,1.97754l.725.98266c.256.3158.54029.60852.80884.91419l1.63709,1.81335,1.7998,1.65332a17.189,17.189,0,0,0,1.8899,1.54663c.6604.47632,1.277,1.01819,1.97277,1.443a35.91862,35.91862,0,0,0,4.25232,2.41076,36.28332,36.28332,0,0,0,4.52173,1.86548c.76563.28382,1.57263.43518,2.35706.6604a17.25711,17.25711,0,0,0,2.38855.53614l2.42175.384c.80957.10937,1.63086.10791,2.44617.16833,1.615.13013,3.316.08936,4.986.10938l10.05334.05517,20.10681.10975,80.42676.39746Z"/><path class="cls-2" d="M17.0719,79.36359l239.301-.38636.422-.00067-.00012.42249-.0575,106.17419-.11987,106.17407-.06958,106.17408.09888,106.17419.00024.27356-.274.00024-239.26562.19629-.47009.00037v-.47046l-.01136-106.266.08765-106.24548Zm.07068.07074L17.501,291.9104l.08764,106.10278-.01135,106.0824-.47-.47,239.26562.19629-.27368.27368.099-106.17419-.06958-106.17408-.12-106.17407-.05738-106.17419.42163.42163Z"/><path class="cls-2" d="M136.78113,559.317a19.87867,19.87867,0,0,1-5.91968-.56116,21.16709,21.16709,0,0,1-5.51392-2.40271,21.45307,21.45307,0,0,1-4.53869-4.00269,20.08837,20.08837,0,0,1-3.08081-5.21594,21.687,21.687,0,0,1-1.26343-5.89148,24.86122,24.86122,0,0,1,.4646-5.95007,24.14485,24.14485,0,0,1,1.98218-5.60254,24.45009,24.45009,0,0,1,3.43725-4.88086,21.52767,21.52767,0,0,1,4.72437-3.72925,21.10764,21.10764,0,0,1,5.66931-2.14367,22.84436,22.84436,0,0,1,6.07507-.37354,21.37115,21.37115,0,0,1,5.92346,1.46362,21.69285,21.69285,0,0,1,5.18592,3.19776,22.77977,22.77977,0,0,1,3.96972,4.58105,21.16779,21.16779,0,0,1,2.385,5.52088,20.49484,20.49484,0,0,1,.57459,5.91565h-.1499a23.89647,23.89647,0,0,0-1.15088-5.69556,22.11125,22.11125,0,0,0-2.63342-5.08838,21.48827,21.48827,0,0,0-3.91272-4.11682,20.351,20.351,0,0,0-10.34327-4.22229,21.37,21.37,0,0,0-5.64965.20178,22.04529,22.04529,0,0,0-5.38135,1.80859,22.82638,22.82638,0,0,0-4.70557,3.26087,20.083,20.083,0,0,0-3.55286,4.54919,19.31918,19.31918,0,0,0-1.97009,5.448,19.76193,19.76193,0,0,0-.11072,5.77466,21.556,21.556,0,0,0,1.5857,5.49414,24.29979,24.29979,0,0,0,2.95373,4.851,23.01756,23.01756,0,0,0,4.15918,3.87988,22.1302,22.1302,0,0,0,5.09534,2.61585,24.84186,24.84186,0,0,0,5.69153,1.16418Z"/></g></g></svg>