<svg xmlns="http://www.w3.org/2000/svg" width="234.77228" height="226.41821" viewBox="0 0 234.77228 226.41821"><defs><style>.cls-1{fill:#fff;}.cls-2{fill:#496481;}</style></defs><title>Asset 1</title><g id="Layer_2" data-name="Layer 2"><g id="Layer_1-2" data-name="Layer 1"><path class="cls-1" d="M48.09917,191.17449a17.02606,17.02606,0,0,0-12.192,5.13027,17.56193,17.56193,0,0,0,0,24.565,17.05207,17.05207,0,0,0,24.38391,0,17.56191,17.56191,0,0,0,0-24.565A17.026,17.026,0,0,0,48.09917,191.17449Z"/><path class="cls-1" d="M215.63883,81.83926a46.43754,46.43754,0,0,0,1.76911-12.67136A46.95969,46.95969,0,0,0,154.78205,24.724,55.822,55.822,0,0,0,53.50826,45.95051,46.42083,46.42083,0,0,0,13.63563,59.21376C2.93465,69.61988,0,84.16755,0,97.08105c0,16.3571,8.38278,35.33807,21.093,43.73185-.02721.61876-.08165,1.23753-.08165,1.8832,0,10.19628,3.0755,19.85453,9.00877,27.19905a32.35892,32.35892,0,0,0,25.66546,12.16022,30.7845,30.7845,0,0,0,5.90605-.67259c2.28622-.48424,4.55408-1.11941,6.36874-1.69489,1.004,4.80478,4.819,13.94239,12.07632,18.59859,6.76277,4.33891,13.00739,6.10484,20.035,5.64174,13.20594-.87025,17.48041-4.2391,23.00423-9.10177a29.73413,29.73413,0,0,0,4.47449-4.75054,38.43847,38.43847,0,0,0,4.179,2.29783,47.29579,47.29579,0,0,0,20.11322,4.3045,45.88734,45.88734,0,0,0,5.98769-.37666,53.14738,53.14738,0,0,0,28.16941-12.67137,42.04126,42.04126,0,0,0,9.87968-12.83276,39.03846,39.03846,0,0,0,3.42934-10.815c.57155.02688,1.1159.10761,1.68745.10761a33.686,33.686,0,0,0,23.92358-9.95417c6.09656-6.107,9.8525-19.82953,9.8525-29.138C234.47881,101.09669,229.19644,89.6356,215.63883,81.83926Z"/><path class="cls-2" d="M50.09915,195.75528a14.503,14.503,0,0,0-5.6228,1.17361,14.25,14.25,0,0,0-4.66974,3.30066,14.49462,14.49462,0,0,0-3.86182,10.35718,14.28545,14.28545,0,0,0,4.37384,9.85281,13.99831,13.99831,0,0,0,19.55805-.00305,14.30179,14.30179,0,0,0,4.37213-9.84976,14.4984,14.4984,0,0,0-3.85809-10.35617,14.26261,14.26261,0,0,0-4.66883-3.30145A14.503,14.503,0,0,0,50.09915,195.75528Zm0,0a14.9616,14.9616,0,0,1,10.49152,4.27844,15.29521,15.29521,0,0,1,4.6629,10.553,15.49011,15.49011,0,0,1-4.1474,11.06,15.21014,15.21014,0,0,1-4.994,3.52047,15.30147,15.30147,0,0,1-16.50354-25.13241A14.95688,14.95688,0,0,1,50.09915,195.75528Z"/><path class="cls-2" d="M210.91055,81.937c.0495-.27048.10858-.558.17865-.83383l.17169-.73975q.1636-.74148.30591-1.48678.28071-1.49125.46-2.99713a46.63692,46.63692,0,0,0,.31849-6.04071,45.53837,45.53837,0,0,0-1.76911-11.9039A44.97283,44.97283,0,0,0,198.24179,37.6792a43.145,43.145,0,0,0-20.87494-10.90106,45.04269,45.04269,0,0,0-11.81915-.79721,42.88457,42.88457,0,0,0-11.57111,2.45733l-.87323.31531-.53021-.78058A54.31273,54.31273,0,0,0,142.29086,16.6636a52.321,52.321,0,0,0-13.10455-7.81054,51.67438,51.67438,0,0,0-30.0249-2.75812A52.29744,52.29744,0,0,0,72.67306,20.69849,53.1502,53.1502,0,0,0,58.63467,47.71826L58.5,48.41791l-.68329-.1127a42.50776,42.50776,0,0,0-30.27508,6.60617,43.81316,43.81316,0,0,0-6.19049,4.97067,39.04884,39.04884,0,0,0-5.20862,5.98657,40.756,40.756,0,0,0-3.8606,6.93357,50.58014,50.58014,0,0,0-2.53436,7.53558,66.12485,66.12485,0,0,0-1.81036,15.811,54.115,54.115,0,0,0,2.45239,15.65842A56.82268,56.82268,0,0,0,17.035,126.16882a44.12676,44.12676,0,0,0,4.842,6.21985,36.59289,36.59289,0,0,0,5.95118,5.06091l.43627.29874-.02069.52109a43.40307,43.40307,0,0,0,2.60334,16.62924,34.803,34.803,0,0,0,9.13482,13.87113,28.78614,28.78614,0,0,0,14.76367,7.10055,32.07533,32.07533,0,0,0,4.13282.39151,22.06719,22.06719,0,0,0,4.09112-.215,50.1809,50.1809,0,0,0,8.17554-2.0057l1.45837-.4624.33863,1.51129a30.90279,30.90279,0,0,0,3.06933,7.97009,26.497,26.497,0,0,0,5.12232,6.75742,20.05988,20.05988,0,0,0,1.59515,1.34854c.56683.39572,1.118.79919,1.75391,1.17559a38.31255,38.31255,0,0,0,3.78955,2.07227,27.38656,27.38656,0,0,0,8.12225,2.42825,26.7406,26.7406,0,0,0,4.23639.20624c.70636-.03113,1.42053-.07147,2.15729-.14407.73089-.05747,1.45929-.12436,2.1803-.21979a34.88132,34.88132,0,0,0,8.35778-1.89734,24.03637,24.03637,0,0,0,7.19587-4.35022c1.104-.93286,2.252-1.926,3.275-2.90191a25.90654,25.90654,0,0,0,2.80713-3.18766l.8761-1.15759,1.24212.80164a40.40794,40.40794,0,0,0,19.501,6.00122,47.8814,47.8814,0,0,0,37.2334-15.27488,37.95676,37.95676,0,0,0,5.78155-8.548,36.44508,36.44508,0,0,0,3.13221-9.83438l.19946-1.14887,1.11682.08646a30.1025,30.1025,0,0,0,22.20087-7.8107c3.06121-2.59292,5.01934-6.21988,6.60571-9.995a54.62294,54.62294,0,0,0,3.27838-11.88327,43.02922,43.02922,0,0,0,.57013-6.131c-.01611-2.06958-.07147-4.14832-.21545-6.21921a56.03254,56.03254,0,0,0-2.0528-12.22721,32.63059,32.63059,0,0,0-5.64679-10.9515,31.0592,31.0592,0,0,0-2.07861-2.30927l-1.10553-1.09668L216.0582,85.6362c-.76892-.70306-1.64093-1.27731-2.46924-1.90915C212.734,83.11533,211.78171,82.53238,210.91055,81.937Zm.278-.11279c.89276.53183,1.76141.99075,2.62347,1.57638.85535.61185,1.75513,1.16693,2.556,1.855l1.23322.99186,1.15814,1.08059a31.67113,31.67113,0,0,1,2.19214,2.292,33.50556,33.50556,0,0,1,6.13519,11.06372,54.80305,54.80305,0,0,1,2.45294,12.43658c.19062,2.10459.29138,4.21164.35163,6.3291a44.5682,44.5682,0,0,1-.45655,6.37989,56.40785,56.40785,0,0,1-3.13433,12.35525,38.76981,38.76981,0,0,1-2.7923,5.81372c-.29456.45835-.56873.92771-.88208,1.37683-.32764.44144-.64539.88941-.98413,1.32477l-1.10395,1.24963-1.157,1.13828a32.38132,32.38132,0,0,1-23.81506,8.72842l1.3161-1.06219a39.05727,39.05727,0,0,1-3.2262,10.58151,40.71036,40.71036,0,0,1-6.08264,9.24832,48.2055,48.2055,0,0,1-17.9046,12.66834,52.12121,52.12121,0,0,1-10.57825,3.11905,45.42945,45.42945,0,0,1-11.03766.69677,43.45455,43.45455,0,0,1-21.06891-6.4627l2.118-.3559a29.14582,29.14582,0,0,1-3.11506,3.55258c-1.1416,1.0929-2.2583,2.0614-3.43743,3.06443a27.08025,27.08025,0,0,1-8.09571,4.89846,37.94233,37.94233,0,0,1-9.12585,2.01834c-.76428.095-1.527.15973-2.28913.21433-.75408.06872-1.53466.10886-2.3244.13693a29.81594,29.81594,0,0,1-4.72387-.26419,30.42329,30.42329,0,0,1-9.00061-2.75482,41.25507,41.25507,0,0,1-4.07135-2.263c-.65082-.39136-1.30994-.8703-1.96467-1.34006a22.99,22.99,0,0,1-1.822-1.56082,29.36474,29.36474,0,0,1-5.63678-7.5289,33.61971,33.61971,0,0,1-3.29223-8.76688l1.79681,1.04877q-2.1112.668-4.25909,1.19919a39.41642,39.41642,0,0,1-4.3999.85275,24.90368,24.90368,0,0,1-4.55518.20755,33.96367,33.96367,0,0,1-4.4856-.47916,31.34738,31.34738,0,0,1-15.95959-7.91723,36.86806,36.86806,0,0,1-9.56744-14.92359A45.42619,45.42619,0,0,1,26.37186,138.188l.4154.81952a38.36244,38.36244,0,0,1-6.173-5.45053,46.83369,46.83369,0,0,1-4.90753-6.5383,59.10172,59.10172,0,0,1-8.863-30.874,67.16244,67.16244,0,0,1,1.93854-16.051,51.55523,51.55523,0,0,1,2.63275-7.67212,42.2991,42.2991,0,0,1,3.98742-7.07,39.9894,39.9894,0,0,1,5.27686-6.167A44.51272,44.51272,0,0,1,58.02878,46.874l-.81775.5868A54.8266,54.8266,0,0,1,71.16428,19.2601,52.91569,52.91569,0,0,1,114.62112,2.60153a51.04972,51.04972,0,0,1,15.576,3.80628,54.90474,54.90474,0,0,1,13.701,8.31076,56.7717,56.7717,0,0,1,10.67346,11.92456l-1.40313-.46515a44.51216,44.51216,0,0,1,46.247,10.279,46.03174,46.03174,0,0,1,7.5979,9.7605,45.42843,45.42843,0,0,1,4.63818,11.42493,46.47565,46.47565,0,0,1,1.44281,12.19744,42.49543,42.49543,0,0,1-.53217,6.11408q-.24105,1.5147-.584,3.00864-.173.7461-.36743,1.48629l-.20227.73795C211.34622,81.40152,211.27188,81.60422,211.18857,81.82419Z"/><path class="cls-2" d="M118.38411,122.31827h-5.06l-.06875-4.28754A42.94924,42.94924,0,0,1,114.468,106.9146a40.82565,40.82565,0,0,1,4.67813-10.13845c3.23315-5.225,7.12273-8.20721,8.87919-11.14741a18.09478,18.09478,0,0,0,2.765-8.93778c0-4.89794-1.5823-8.58465-4.11835-11.15977a15.62646,15.62646,0,0,0-10.78393-4.15881c-3.166,0-6.27737.45955-8.41347,1.76743-2.453,1.334-3.65343,2.72358-4.11855,4.05219-.344.98306-.43164,2.06615,1.27959,2.94877,2.81366,1.47289,3.91827,1.93363,5.27518,3.30987a6.72882,6.72882,0,0,1,1.81087,4.90731,8.33236,8.33236,0,0,1-3.11776,6.63647,9.39913,9.39913,0,0,1-6.77557,2.59066A9.9255,9.9255,0,0,1,94.2286,84.458a10.98755,10.98755,0,0,1-3.29293-8.30765q0-8.33726,7.59063-14.34828,7.58994-6.00654,19.85781-6.00953,12.05913,0,19.82274,6.49538,7.76153,6.4923,7.76321,15.68087a21.10245,21.10245,0,0,1-1.3868,7.442,21.35412,21.35412,0,0,1-3.74171,6.4643,57.63016,57.63016,0,0,1-8.80326,7.53224,51.49987,51.49987,0,0,0-8.69785,7.56653,21.45786,21.45786,0,0,0-3.67475,6.55457,26.60079,26.60079,0,0,0-1.28118,8.7903Zm-2.07671,7.05278a10.12377,10.12377,0,0,1,7.47924,3.09505,10.69276,10.69276,0,0,1-.02969,15.021,10.57866,10.57866,0,1,1-7.44975-18.11609Z"/></g></g></svg>