<svg id="Layer_1" xmlns="http://www.w3.org/2000/svg" viewBox="0 0 379.403 367.038"><style>.st0{fill:#cbebfe;} .st1{fill:#496481;}</style><path class="st0" d="M378.263 255.273c-1.74 5.082-6.993 10.123-12.253 11.342-.79-6.02 7.506-16.063 13.345-16.83.184 1.92-.16 3.74-1.092 5.488M337.965 12.19c-3.302.434-3.735-1.652-4.996-4.224 2.64-.017 4.218 1.92 4.995 4.225m-3.81 99.4c.396 3.013-2.81 2.59-4.883 3.297.93-2.08 2.557-3.18 4.884-3.298M103.72 211.005c13.702-1.797-3.18-33.518 5.364-36.846 27.664-11.01-10.454-25.635-11.175-31.134.198 1.52 22.133 4.897 23.73.828 2.13-5.545-9.237-4.766-6.13-10.24 3.057-5.413 13.09 7.34 15.91-1.295.918-2.792-4.466-11.357 1.162-11.605 21.134-1.014 6.596-19.486 17.155-22.18 7.605-.996 13.29 7.765 22.246.626 2.025-1.6.407-19.586 1.91-18.62 5.922 3.812 4.43 14.642 12.833 15.26 6.342.463 28.234-3.73 26.938-13.612 2.144 1.623 3.91 3.588 5.31 5.904 4.47 1.713 8.86-14.136 12.89-15.856-.164 3.182-9.903 34.283 7.98 22.813 9.31-5.97 6.285 4.16 12.615 5.63 9.247 2.16 10.345-24.658 18.062-18.77 7.797 6-19.058 18.45-5.804 24.305 8.27 3.663.978 9.79 7.7 13.643 2.257 1.264 10.574-6.094 11.765-2.153 1.203 3.93-10.24 23.152 6.474 18.896 3.047-.767 19.107-18.572 21.392-11.044-21.766 2.855-16.506 61.308 25.767 40.977.58 4.423-16.6 10.062-19.9 10.6-3.333-.292-6.53.34-9.595 1.88-7.346 3.9 1.236 8.512 1.05 13.152-.09 2.447-16.102 11.332-3.482 13.38 11.138 1.818 6.712 7.212-2.034 6.257-11.053 1.45 4.182 8.403 4.515 10.94-.79-6.02-18.578 17.05-7.045 15.538-33.558 4.402 3.125 16.266-.098 23.144-2.95 6.26-15.16-8.908-19.313-5.77-20.48 15.38 7.63 19.244 1.698 26.86-5.004 6.516-13.508-10.62-20.528-6.976-9.45 4.904-8.928 17.438-14.733 20.264-.192-1.47-3.51-6.192-5.24-5.965.49 3.744 2.694 6.908 3.187 10.665-3.643.478-4.628-16.427-8.237-13.984-6.013 4.07 7.693 26.474.23 27.453 3.056-.4-13.123-43.272-20.59-21.158-5.234 15.54-1.27 65.34-11.773 73.477-10.034 7.794-11.824-47.688-11.383-56.224.633-11.218-7.065-5.065-8.215-11.42-2.777-15.11-.24-11.992-10.714-6.16-2.173-16.565-12.067 2.39-16.548 5.727-.455-3.47 3.34-5.806 4.137-8.993-7.748 1.016-20.005 25.65-24.738 31.216-1.833-13.977 23.046-27.673 18.914-38.095-5.638-14.164-19.79 1.46-26.748-15.588-5.05-12.403-10.068-22.325-14.728-33.856-1.822-4.798-26.03-20.074-12.184-21.89m225.666-95.25c-1.158.153-1.79-.04-1.87-.64.896.173 1.533.41 1.87.64zm-11.034 7.23c-5.67.743 5.692-8.933 9.394-6.127-2.746.358-7.75 3.937-9.394 6.125m-14.57 142.493c1.693.003 2.948.713 3.854 2.168-2.044.545-3.29-.19-3.854-2.168m1.612 83.173c-2.05 2.637-2.688 2.39-4.057-.366 1.352.313 2.706.453 4.057.367M264.6 304.74c-.34-2.575 7.912-7.24 10.082-7.525.568 4.33-7.252 6.41-10.083 7.525M237.733 69.682c-.492 1.784-1.153 3.496-1.97 5.14 1.17-.154.96-14.344 4.58-15.694l-2.61 10.554m-2.01 8.264c-1.455.19-.99-2.104-.76-2.57.58.703.84 1.568.76 2.57m-1.312.172c1.755-.23.3 2.287 0 0m-.686 1.44c1.43.09 1.775.627 1.085 1.604-.36-.535-.723-1.084-1.084-1.605m.454 3.46c-.607-.398-.956-.948-1.112-1.626 3.12-.41.785.954 1.112 1.626m-1.742.228c1.44 2.192 1.44 2.192 0 0m-12.038-20.6c-1.175 2.854-2.113 5.78-2.814 8.794.18-.024-.7-18.437 3.153-19.92-.11 3.704-.22 7.42-.34 11.125m27.284 241.683c-2.394.314.014-4.433-1.442-4.242.447 3.408 5.223 5.333 3.882 9.24-1.06-.813-3.792-3.312-2.44-4.998M183.862 7.116c-4.72-1.297-5.29-3.43-1.727-6.41 3.365 1.264 3.952 3.408 1.727 6.41m-20.696 41.756c-.283-2.16-2.544-4.36-.86-6.553.962 1.975 3.09 4.594.86 6.552m-5.028-11.31c-.648-2.73-1.297-5.45-1.945-8.18 5.786-.76 5.716 9.09 5.145 12.192-.872-1.5-1.952-2.853-3.2-4.01m-3.104 54.062c-1.42.186-1.042-2.39-.84-2.985.65.84.93 1.864.84 2.986m-2.474-5.442c1.435 2.165 1.435 2.165 0 0m-4.54-17.576l.723-1.444c1.598-.21 2.84 5.01 2.89 5.387-1.587.21-3.2.42-4.785.63.383-1.52.775-3.052 1.172-4.572m3.967 13.206c-1.103-.543-1.336-1.225-.74-2.11.24.72.493 1.428.74 2.11m-2.943-15.575c-2.9.38-1.525-2.25-2.755-4.07 3.536-.464 2.47 1.91 2.754 4.07M137.8 37.982c4.16-.546 5.01 7.344 7.748 18.53-1.38.182-7.405-15.918-7.748-18.53m-7.54-20.265c-3.237.425-5.907-10.557-7-12.836 2.967-.39 6.72 10.692 7 12.836m1.873 75.165c.582-2.522 2.177-3.763 4.82-3.793.47 3.576-1.986 3.42-4.82 3.793m1.435-16.177c-.634-.21-1.246-.432-1.87-.654.685-1.52 1.284-1.292 1.87.654M123.26 4.882c-.606-.397-.968-.943-1.115-1.652 2.354-.31.98.624 1.116 1.652m-1.226-2.496c-1.292.432-2.236.096-2.798-.968-.392-2.99 2.598-.555 2.798.968M158.3 299.214c.022-1.046.313-1.244.824-.57-.484 2.364-1.935 4.207-3.143 6.602-2.073-1.607 1.026-5.2 2.32-6.032m-5.115 11.727c-.478-.213-.93-.446-1.427-.698.797-1.876 1.898-3.475 3.38-4.885-.266 2.004-.907 3.873-1.953 5.584M88.943 138.887c-2.843-.196-5.003-1.844-5.916-4.568 4.16.064 10.733 2.97 12.843 6.766-2.45-.247-4.77-.975-6.927-2.198m1.862 48.08c.07 2.424-1.12 3.466-3.57 3.126-.06-2.4 1.137-3.443 3.57-3.125m4.997 75.177c-4.173.15-3.132-.873 3.128-3.057.326 2.485-3.387 1.08-3.128 3.057m-16.05 9.63c2.074-4.968 8.87-7.3 13.423-9.285.44 3.365-10.814 8.4-13.422 9.284M52.215 54.99c-5.435.712-11.212-11.16-6.707-10.6 4.633 1.228 6.868 4.757 6.707 10.6m13.82 227.047c-3-.202-3-.202 0 0m-22.046 14.41c-2.045 3.086-3.018 3.122-2.942.07 2.73-5.808 16.692-12.785 22.36-14.135 1.1 8.384-16.22 8.316-19.42 14.066m3.742 1.717c.612-1.692 1.797-2.736 3.6-3.116.326 2.48-2.27 2.453-3.6 3.115m.23 1.755c-1.08.42-2.002.263-2.7-.532.95-1.538 1.868-1.396 2.7.532M4.507 114.04c-9.8 1.287-2.06-23.084 8.38-3.77-3.34.44-5.142 3.346-8.38 3.77M30.97 302.15c2.826-.422 4.105.442 3.882 2.587-3.62 1.64-4.923.778-3.882-2.587"/><path class="st1" d="M130.815 282.204c-.11.43.005.806.347 1.126-.407.064-.684-.123-.83-.56-.14.282-.845 2.426-1.095 2.197.595.23.81.57.643 1.022-.027.177-.486-.68-.642-.86.02.434-.102.82-.363 1.156-.526-.45-.283-.825.116-.897-.93-.546.212-.154-.75-.768-1.108.517-.492 1.12-.19 1.702.04-.992-2.375 1.557-1.16 1.453-.175-.194-.35-.387-.522-.58-.363.36.622.927-.062 1.084-.04-.16-.066-.324-.08-.49-.274.21-.26.447.038.708l-.6-.325c-.727 1.713-2.53 3.863-1.753 4.782.015-.317-.66 1.97-.715 2.07.06-.083-.343 4.72.654 4.665-.48.347-.81.8-.994 1.363.305.17.625.302.96.397l-.6.142.71.2c-.222.12-.445.243-.667.365.19.307.39.272.605-.104.86.68-1.23.568.356 1.83-1.416.416.207-.41-.612.248.305-.244 1.38 2.57 1.76 3.155.157-.394.44-.573.85-.535-.165.143-.33.287-.498.43.182-.18.4-.297.65-.353.21.617-.902.697-.16 2.072.422.783 3.04 1.737 3.406 1.58.016.322-.082.598-.296.828.975.577 1.22.59 1.81.082.72.035 1.165 2.728 3.207 2.08.75.49 3.987 1.536 4.747 1.99-.05-1.552 4.695 1.032 5.348-1.385.284-1.05.483.827.478.653 1.094-.607 2.143-1.285 3.144-2.035.075.937.862-.014.623-.39.467-.162 3.717-2.898 3.95-2.51.826-.916 1.39-2.9 1.75-4.51.767.427-.314.866.485 1.282.038-.367-.505-3.04.518-1.872-.02-.902.915-2.285.39-2.41.4.18-1.388-.8-1.288-.772.91.422.76-.403 1.8.117-.024-.045-.658-1.146.04-.873-.543-.468-1.26-2.782.305-2.847-.514-.963-.53-.724-.76-1.487-1.206.025-1.174-.636-.008-1.113-.32-.275-.65-.536-.993-.784 1.677.307-.857-.156.61-.364-.26.03-.465-.055-.61-.254.47.288-.293-1.274-.28-1.362.287-.015.574-.018.86-.008-.08-.155-1.812-2.222-1.897-1.61.078-.562-.02-.743.498-.9-.302-.548-.758-.922-1.367-1.12.02.156.102-1.85-.698-.81.1-.252-1.3-2.45-1.097-2.246-.82-.39-1.158.8-1.58.43.365-.167.545-.45.54-.852-.225.38-1.18.473-1.42.104.153-.194.343-.34.57-.44-.34.217-.644.198-.913-.053.882-.312.417-.57.15-1.258-.548.466-1.02.26-1.57.65 1.775-1.253-.45-1.508-.123-2.073-.192.132-.258.316-.197.55.2-.132-2.612.3-3.1.49-.235-.92-.968-1.16-.53-1.762-1.346.6-.475-.572-1.29.843-.233.04.213-.983.358-.56.036.104-.25 1.05.067 1.028.266-.193.554-.342.866-.446l-.295.792.483-.614c.16 1.092-.19.782.416.984-.323.592.18.47.522.69.396-.285.69-.654.886-1.108-.244 1.926-.18 1.427.4.73.393.213.563.544.513.994.01-.255.117-.456.317-.603-.042.112.03.753.033 1.17.454-.593 1.72.813 1.944 1.56.307-.34.635-.395.985-.16-.974 1.08-.703.33.008.49l-.41.37c1.423.988 1.025-.872 2.272-.644-1.045 1.13-.225.168-.916.804.146.045.287.027.423-.054-.67.61-.07.267-.66 1.047 1.124-1.118.184.36.184.36.225.05.432 0 .622-.152.49.68-.532.127.688.366.498.693.587 2.07 1.56 2.135.112.255-1.016 1.768-.553 1.978.244-.457.38-.417.405.118-.533.58.075 1.404-.275 1.598.276-.114.55-.23.824-.35-.258.33-.564.608-.918.83-.305.388 1.883.753 1.908.785-.14.692-1.783-.005-1.254.103-.104.266-.296.42-.577.462.005.005 1.126.984 1.214 1.442-.646.33-1.595.636-2.035.69.743.82-.035-.37 1.427.702-.015.005-1.03.767-1.114-.047.19.242-.498.266-.324.382 1.074.718.023.496.044.53.122-.368 1.312 1.142 1.315 1.154.12.03-2.1.52-1.924.886.326.01.56.163.698.462l-.074-.66.485.616c.358-.755-.257-.35.58-.204-.228.178-.358.412-.39.7-.352-.174-.706-.347-1.06-.52-1.57.28 1.558 2.24-.863 1.492.023.304.147.57.373.795.137-.166-.715 1.456-.376 1.24-.28-.224-.49-.5-.633-.824-.477.524-.113 1.637.26 1.82-.95-.45-2.154 1.072-2.545 1.052-.413-.073.328 1.067-.2.992-1.77-1.4-1.123-.21-2.567 1.257.034-.278-.024-.535-.175-.77.096.332.115.67.056 1.01-.87-.523-1.01-.863-.418-1.02-.285-.486-.308.16-.62-.237-.128.073-.95 1.44-.773 1.552-.455-.29-.222-.165-.563-.817-.215.4-.5.745-.852 1.034.925-1.446.932-1.71.02-.788.53-.462.333-.19-.588.81-.008-1.21-2.057-1.86-3.03-1.917.02.987-.243.234-.403 1.204-.74.177-.334-1.998-.435-2.308-.04.222-.26.62-.32.972-.57.408-.54-1.156-.468-.956-.547-.112-1.028.04-1.445.455.076-.63-1.02-.743-1.34-1.235-.34.027-1.264-.14-2.275-.542 1.46-1.59-.293-1.348-.915-2.07-.968-1.126-.396-1.643-1.764-2.268.26.118.623-.793.56-1.04-.332.117-.664.232-.997.348.56-.544-.083-2.422-.413-2.543.54-.403.672-.848.903-1.148-.57-.174-1.138-.35-1.706-.53.363-.24 2.123-.683.84-1.666.833.126.123-1.174-.218-1.628.18.05.358.103.536.154-.446-.136-.762-.41-.946-.818.164-.068.26-.032.286.11-.188.102.436-.513.23-.373.088-.19-1.115-1.325.37-.904-.307-.08-.442-.26-.405-.536 1.052.274-.21-.683.625-.785.055.024.663.626 1.218 1.1-.423-.317-.595-.722-.518-1.215.25.052.67-.222.914-.496-.224-.234-.49-.396-.8-.486.162.004-.207.65-.156.544-.78-.962.902.605-.65-1.11 1.26.354 2.838.376 1.592-1.47-.032-.403.66.64.537.465.198-.4.178-.8-.06-1.192.26-.007 5.498-2.8 5.654-3.597l.25.552c.213-1.638.443-.377 1.293-.263-.125-.017 1.522-1.077 1.54-1.098.116.468.32.895.61 1.278.848-.545.565-3.878.09-4.348l-.413.58c-.078-.392-.38-.425.203-.485-.23-.426-.835.08-1.042.672.062-.332-.002-.634-.193-.907.065.368.06.734-.015 1.098-.182-.286-.643-.505-.387-.862-.27.46-1.225 1.2-1.434.125-.043.325-.177.606-.4.843.075-.978-.765-.016-.962-.966-.208.588-.573 1.05-1.094 1.39.153-.362-.065-.533-.656-.515.127.536.12 1.07-.018 1.6-.315-.466-.52-.975-.62-1.528-.006.42.023.837.09 1.25-.294-.14-.532-.344-.716-.615.156.31.148.605-.023.89-.848-.364-.495-.42-.922-.926zm-5.324 8.08c-.01-.006.128-.507 0 0zm-.323.7c.255-.335.755-.148 0 0zm4.118.49c.05.258-.586-.552 0 0zM301.48 167.883c-.4-.03.578.956 1.433.683l-1.432-.683zM306.31 172.74c.094.04 2.507 1.225 2.334.047-1.567-.42-4.422-3.352-5.697-3.195.556.708 4.002 2.963 3.363 3.148zM284.025 245.824c.08-.236.16-.47.234-.72-.082.194-.16.444-.235.72zM240.13 277.463c.443-.007.628-.076.65-.136-.41.045-.747.075-.65.136zM230.47 275.603c.202.06.37.112.552.167-.2-.106-.408-.186-.55-.167zM284.025 245.824c-.168.516-.382 1.033-.593 1.534.37-.43.566-.942.593-1.534zM315.946 182.413l-.578-.728c.042.51.235.752.578.728zM306.496 235.152c.31-.158.463-.41.455-.76l-.454.76zM315.608 218.54c.026.41.213.73.56.952.243-.92.056-1.237-.56-.953zM315.57 187.534l-.258-.502.258.502zM294.32 241.3c-.052-.074-.136-.13-.218-.156.017.07.1.118.218.155zM303.692 145.25c-.043-.007-.062.023-.097.026.083.107.13.135.097-.026zM300.672 168.995c-.15-.502-.183-.615 0 0zM212.297 274.28l.064-.045c.29-.358.11-.174-.063.045zM101 195.687c-.015 1.477-1.035-1.184-1.177-.818-.122.314.61 2.29 1.12 1.77.02-.317.038-.635.057-.953zM316.117 182.94l.35.793c-.14-.37-.248-.613-.35-.793zM99.772 195.747c.008.123.042.673 0 0zM175.754 279.327c.022.127.124.274.235.422.016-.057-.03-.167-.236-.423zM204.668 281.268c-.23.085-.472.15-.706.226.287-.07.518-.14.706-.226zM165.115 268.525l-.416-1.03c-.013.38.125.723.415 1.03zM151.264 263.12c.68.285 1.06.05 0 0zM264.926 110.025c.374.2.587.435.748.634-.215-.44 2.453-.123-.748-.635zM315.667 182.56c1.162.21.017.156 0 0zM160.79 269.73c-.378-.91-.736-1.857-1.026-2.772.208.776.592 1.812 1.025 2.77zM154.523 112.313c.107-.193.204-.393.32-.58-.164.196-.275.404-.32.58zM157.67 266.502c-.782-.32-1.447-.252-1.993.204.665-.067 1.33-.136 1.993-.204zM265.68 110.666c-.007-.003-.006-.007-.006-.007s0 .003.005.006z"/><path class="st1" d="M283.855 116.387c-1.612-1.05-1.597.118-2.916-.444-1.428-.608-1.268-1.4-3.025-2.274-2.47-1.23-11.264-1.326-12.236-3.004 1.412 1.83-2.164 1.057-2.44.664.42.075.81.014 1.176-.183.2.007-1.984-.088-1.45-.315.203-.086 1.933.203 1.99-.164-2.426-.166-4.864.345-7.28.096-.307-.54 4.115-.217 1.918-.8.985.114 1.965.26 2.94.438-2.025-1.16.49-.11.39-.592-.475-2.323-9.156.415-9.31.448-1.985.433-3.994-.028-5.907.28-2.057.33-2.268 1.437-3.772 2.13-1.416-1.257.777-.733-.14-1.555-1.238-1.112-2.113-1.56-3.066-3.084.368.177 1.53 1.2 1.77 1.63-2.136-4.48-8.297-8.393-12.703-11.194 1.44-.144-3.577-2.81-4.386-3.256-3.03-1.67-6.54-3.83-9.914-4.716-2.108-.553-5.083-1.147-5.353-1.13-4.83-.197-9.695-.118-14.517-.422l.75-.23c-2.223-.014-3.908 1.4-6.127 1.38.17-.064.34-.13.512-.194-9.647 1.196-17.22 5.706-24.73 10.908-5.207 3.606-7.31 7.036-11.192 10.927.27-.45.647-.71 1.134-.778-2.384 3.935-4.827 6.07-6.443 10.575-.002-.687.127-1.35.39-1.992-.882 3.56-2.943 6.464-3.706 10.654l-.29-.577c-1.1 3.637-3.956 1.846-7.94 2.125.583-.132.997.025 1.243.472-.518 2.005-1.497.058-1.904-.066-.698.36.51.283.385.443-.575.395-1.203.468-1.884.218-.06-.515.23-.79.87-.828-4.37.897-2.237.914-1.82-.096-2.245 1.214-6.29 1.087-8.772 1.998-4.08 1.498-6.366 3.455-9.61 5.912-3.13 2.368-6.22 3.972-8.893 6.976-.097.108-2.662 3.17-1.947 1.85-2.4 3.03-4.152 6.237-5.536 9.835.152-.49.427-.702.824-.64-.475 1.26-1.214 1.46-1.256 1.494-1.42 4.812-3.85 9.406-4.558 14.415-.395 2.794 1.285 7.217.08 9.823.006-.012-.38-.915-.426-.914-.394.004 1.496 13.957 1.76 15.306 1.184 6.02 4.403 12.277 6.684 16.666.006-.296-.032-.586-.114-.87-.114 2.91 7.42 8.915 9.235 11.086 1.905 2.278 1.45.796 1.95 2.293.978 2.94-.013 7.352.634 10.558.445 2.213 1.174 3.163 2.11 4.958.432.83 3.473 5.525.504 2.62 3.834 7.184 8.655 14.533 16.41 17.905-.457.015-.886-.095-1.285-.328 3.278 3.504 8.435 1.783 11.83 4.227-.26.112-.53.133-.817.065 3.418-.122 13.958 1.538 16.03-2.175-1.073 2.463 3.64 9.19 4.895 10.776 5.462 6.902 13 10.934 21.938 11.544-.41 1.24-6.197-1.168-6.253-.28 3.054.76 11.764 2.028 14.4.38-.515.203-1.038.38-1.57.532 4.924-.77 10.386-1.263 14.586-4.247-.215.297-.487.532-.816.706.795-.183 1.378-.612 1.748-1.287-2.454 2.05 1.637-2.76 1.614-2.88-.423 1.474 3.575-2.36 2.78.04.017-.017 2.12-2.715 1.14-.976 1.182-1.192 2.012-2.646 3.106-3.912.193.25-.06.62-.09.86.136-.484.588-1.535.77-1.82 2.843 1.176.84.807.747.754 3.45 1.826 7.48 2.365 11.17 3.52-1.63.556 6.924 3.107 3.26 1.073 2.048.327 4.112-.063 6.155.257l-1.68.24c1.406.03 2.81.007 4.214-.072-5.14-.442 1.8-1.027 3.71-.823 1.21-.478 2.465-.776 3.764-.894.118.317.16.643.123.98 1.697-1.412 4.523-.874 6.168-2.47-.315.234-.354.47-.12.705 1.112-.975 2.835-1.713 4.157-2.082-.19.178-.396.335-.617.474 3.344-1.16 6.202-3.26 9.24-5.01.744.036-1.4 1.574-1.296 1.47 3.132-3.15 7.717-6.33 11.04-10.13-.21.21-.422.417-.633.626-.384-1.23 3.106-3.568 3.552-4.764-.208.347-.187.605.062.774 2.28-3.193 3.475-7.028 4.28-10.825l.094.664c.612-1.32 1.59-5.09 3.112-4.32 6.382 1.21 11.412-3.056 16.992-5.21-.544.126-.806.392-.787.797 1.343-.948 2.607-1.992 3.79-3.13-.603.042-1.164.228-1.683.556.585-.887 1.27-1.69 2.053-2.41-1.356 1.66 1.288-.305 1.61-.692 1.573-1.884 2.03-3.77 3.345-6.073.573-.212-.3 1.405-.075 1.6.89-1.626.74-3.763 1.915-5.252-.243.913-.515 1.818-.815 2.714 1.66-1.844 2.253-3.78 3.147-6.003-.804 1.514.5-6.307.382-7.462-.305.826-.18 1.348.375 1.563.9-1.437 3.1-7.805 1.997-9.25.017.02-.445 1.136-.482 1.11-.634-3.95.182-7.777-.884-11.714-.24-.888-2.612-7.943-2.955-7.975.39.036.65.87.834 1.13-.224-1.584-1.068-4.352-1.523-5.306-.31-.648-3.123-4.66-.344-1.84-.997-1.51-2.234-2.79-3.45-4.12-.026-.485 1.766 1.1 1.625.987-.76-1.083-2.886-4.026-4.422-4.054.14.17 4.013 4.173 1.765 2.142.045 2.3 3.265 4.434 4.24 6.42-.41-.19-.824-.378-1.236-.568.858.882 1.854 3.86.866 2.084.317 1.664 1 3.15 1.573 4.553-.41.087-.63-.12-.655-.62.218 1.85 1.503 4.81 1.31 5.793.105.463 1.224 2.263 1.216 2.194.173 1.595.046 3.252-.023 4.437-.053.914 1.758 7.11-.17 7.898.214.42.55-.626.548-.63.388.748-.42 4.776-.728 5.518-.146-.47-.227-.948-.244-1.436.454.13-2.875 12.01-3.203 12.734-1.62 3.578-4.103 7.478-6.748 10.21-.175-.604-.006-1.132.507-1.585-.933.932-1.7 2.02-2.67 2.905.006-.238.01-.476.017-.714-2.055 1.665-3.944 3.408-6.536 4.212.013 1.262 3.3.06-.083 1.94-.39-.39-.306-.734.258-1.034-.707.38-2.56 1.66-.38-.23-.007.002-2.61 1.548-2.462.642.463-.094.908-.244 1.334-.45-3.2.966-6.006 1.254-9.288 1.456-1.79.11-6.01-1.137-4.332 2.815.14.333.575-1.255.392-.33-.762 8.12-6.973 17.4-13.508 21.735.516-.31.632-.533.35-.663.274-.294.582-.553.922-.777-1.39 1.043-3.262 2.478-4.43 3.37-.18.138-5.2 2.483-.954.735-.953.702-1.96 1.317-3.02 1.843l.2-.877c-2.557.96-8.688 6.102-11.57 5.104.594.206 1.32-.343 1.927-.15-3.095-.98-7.997 2.118-11.357 2.05 1.658.796-4.256 1.87-3.742.324.165-.495 2.236-.277 2.568-.39-.743.254-4.156-1.2-4.837-.582.407.287.872.42 1.395.396-2.443-.434-4.916-.51-7.314-1.197 1.098.6-7.427-.412-7.244-2.152.422-.164.856-.182 1.302-.056-2.743-.552-4.958-2.74-7.196-4.262.802.458 1.614.9 2.435 1.324-.732-.372-3.065-2.4-3.705-1.573.658-.385.755.28 1.267.717-2.737-1.97-2.16 6.75-5.564 5.728 1.504-1.21.224-1.085 1.292-2.256-1.353 1.882-4.082 3.376-6.048 5.123 1.434-1.027-1.913 2.432-2.894 2.904 3.403-1.33-1.45 1.206-1.397 1.18-.088-.08.734-.614.665-.603-2.88 2.724-9.322.587-12.878 1.34 1.05.57-.015.597-.97.86 1.543-.16 3.075-.387 4.597-.682-.97.347-1.95.67-2.937.97 1.273-.178 2.544-.375 3.81-.593-1.22.203-1.396.447-.525.73-2.073-.512-4 .807-6.097.31.51-1.658-7.838-2.116-9.563-2.982 2.6 1.5-3.14-1.568-4.35-2.432-2.83-2.026-6.863-4.008-8.8-7.353 1.325.914.006-1.14 1.79.88-1.12-1.64-5.314-7.272-5.31-7.412-.107-1.437-.306-2.862-.596-4.275-6.12 1.31-11.66 2.988-18.05 1.86.108-.154.257-.18.444-.077-.263-.08-6.097-1.006-5.73-1.158.447.042.88.142 1.3.3-.86-.21-5.043-2.67-5.645-3.397.17.074.342.147.513.22-3.985-3.995-8.388-5.393-11.84-10.374.46.736.814.815 1.067.238-.433-.628-1.288.035-1.54-.908-.33-1.247-2.17-6.2.352-1.46.195-3.713-3.46-7.02-4.144-11.057l-.162.45c-2.183-3.892 1.833-9.096-2.72-12.037 3.276.922 2.27 3.248 2.968 6.095-.07-2.118.804-5.325-1.658-6.103 1.184.696 1.58.66 1.33 2.014-.386-1.896-2.034-1.726-3.575-2.954-1.965-1.565-2.658-3.088-4.138-5.23-4.052-5.87-6.935-12.11-9.05-18.986-.64 2.787-2.214-7.833-1.93-7.194.07.44.24.834.51 1.18-.232-1.755-.384-4.176-.357-5.796-.064.794-.273 1.577-.352 2.37-.666-2.63.415-4.968.07-7.627l.367 1.316c-.22-2.263-.025-4.612.047-6.878.01-.308.4-4.607.31-2.93.884-4.8 1.118-10.32 4.004-14.465l.104.474c.587-1.527 1.696-4.336 3.117-5.713l-.335 1.043c2.67-3.188 4.633-7.118 7.993-9.118 4.49-2.673 9.457-5.294 14.43-7.264 4.406-1.746 9.66-1.594 14.372-1.196.553.047 1.103.117 1.655.182 4.16.49 3.8.656 4.922-3.645-.276.877-.767-4.94.503-4.276 2.383-1.51 1.66-5.134 2.228-6.504 1.42-3.418 4.2-7.704 6.594-10.557 3.79-4.517 7.547-7.063 12.582-10.622l-.496.824c1.367-.872 1.715-2.598 2.995-3.507.96-.68 2.212-.63 3.623-1.093 3.328-1.09 6.74-2.12 9.985-3.438-.118.336-.373.53-.764.584 4.86-1.007 8.53-1.6 13.466-2.16l-.376.545c1.052-.36 2.04-.743 3.166-.76.754-.013 2.803.674 1.308.276.863.202 5.617.123 3.264.62 3.442.762 7.307.82 10.335 2.57-.156.22-.367.26-.635.122 2.61 1.472 5.365 1.926 7.458 4.046-1.28-.777-2.953-2.083-4.415-2.525-.296.643 1.888 1.62-.152 1.398 2.865.808 5.74 2.166 7.368 3.525.568.474 4.703 5.112 5.642 4.365.402-.32-3.788-3.513-3.647-3.41 4.902 1.7 6.466 6.632 9.656 10.505 2.19 2.66 2.176 2.828 5.3 1.505 1.285-.543 5.133-2.858 2.313-.562 1.256-.497 7.225-1.654 6.976-1.447.487.18.997.17 1.53-.03l-.47.244c6.417.847 12.98-.822 18.72 2.994-2.487-1.53 3.38 1.56 3.237 1.48 1.984 1.1 3.94 2.287 5.785 3.612 3.065 2.203 5.942 4.82 8.13 7.916 3.063 4.332 6.516 9.17 7.52 14.29 1.03 5.24 1.737 7.353 1.927 12.282.09 2.346-.488 4.07-.9 5.81-.32 1.354-.047 6.04-.507 6.75.125-.682.445-1.243.96-1.683-.387 3.022 1.25 2.523 2.46.544.402-.66 1.612-8.29.546-2.173 1.076-2.1.785-5.176.163-7.353.88-.815.68-.047.073-.67-.64-.656.355-2.546.08-3.503.414-.044.597.2.546.74-1.178-4.65-1.357-8.632-3.05-12.92.903 1.028-.404-3.815-.62-4.32-1.038-2.44-3.518-6.175-5.577-8.256 2.043 1.28-5.094-6.085-5.36-5.858.22-.19 1.785.78 1.815.166-.847 1.156-9.03-7.876-9.684-7.53.354-.184 1.194.337 1.51.455zm-54.168-17.77c.244-.367.61-.136 1.1.694-.367-.23-.733-.46-1.1-.693zm-4.51-2.755l1.972 1.17c.202.89-2.345-1.478-1.972-1.17zm6.672 9.295c-.38-.192-.64-.476-.78-.855-.18-.128 1.986 1.162.78.855zM233.396 105.525c1.013.7-1.126-.94 0 0zM284.298 244.974c.016.004.077-.11 0 0zM157.967 107.414c.146-.125.578-.492 0 0zM310.223 235.187c.075-.005.192-.04.374-.18-.04-.016-.187.084-.374.18zM316.704 224.348c.283-.527.52-1.07.774-1.61-.352.694-.577 1.206-.774 1.61zM319.505 215.138c-.01-.02-.53-.564 0 0zM206.9 284.36c-.123.063-.242.13-.345.2-.79.51-.24.19.344-.2zM245.548 279.334c-.468.156-.934.3-1.433.403.813-.02 1.446-.084 1.433-.403zM160.912 270.03c-.03-.02-.31-.78 0 0zM241.995 279.84c.815.088 1.496.023 2.12-.103-.67.015-1.452-.002-2.12.103zM311.077 175.05c-.415-.418-.455-.458 0 0zM310.672 174.695l-.4-.35c.162.18.305.336.4.35zM309.38 173.663c.296.227.607.44.892.68-.26-.284-.6-.616-.89-.68zM317.372 186.417l.242.073c-.066-.063-.146-.09-.242-.073zM318.567 190.152c-.317-1.298-.36-2.57-.953-3.662.812.86.283 2.755.953 3.662z"/><path class="st1" d="M317.908 206.193c.09-1.036.043-2.1.065-3.14-.254.706-.485 1.013-.57-.13-.155.565-.19 1.13-.108 1.693.66.268.592-.443.613 1.577zM316.57 215.68c.215-1.652-.302-.04-.414-.155-.03 1.064-.038 1.33.414.155zM273.69 263.687l-.246-.476c-.836.944.13.15.247.477zM264.402 273.87c.81-.397 1.316-.117 1.606-1.09l-1.606 1.09zM255.67 273.783c1.118-.563.642-.362-1.428.602.475-.2.952-.4 1.428-.602zM154.066 262.242l.49.55c.8-.274.833-.994-.49-.55zM119.26 235.77c.215-.598.173-1.986-.228-2.8.086 1.11.055 2.25.23 2.8zM154.618 121.545l-.228.984c1.727-5.035.547-1.008.228-.985z"/><g><path class="st1" d="M217.97 227.645c1.628-.69 1.485-2.352.134-3.045l.556-.063c-.444.04-.842-.066-1.196-.314.178-.305.168-.165.326-.442-.032-.34-1.617-.242-.196-.9-.27.137-.486.103-.65-.103.983-.51-.584-.26-.1-.89-.034.017 1.027-.13 1.633-.18-.513.063-.945-.08-1.296-.43.186-.172.19-.737.03-1.065-.31.096-.574.26-.795.496.09-.162.442.466.38.373-1.302.186 1.142-.778-1.243.103.37-.47.728-.948 1.076-1.434-.528-.442-1.118-.513-1.77-.215-.304.007.684-.532.542-.46-.368-.236-.742-.23-1.122.022.05-.554-3.61-4.143-4.72-2.922.04-.2.08-.397.118-.596-.803.934-.548.49-1.067-.272.018.028-1.603.548-1.635.583-.014-.48-.146-.928-.396-1.34-.6.325-.278 1.86-.482 1.888.075-.01-2.257.284-1.915.088-.45.257-.594-.392-.762-.503.203.174-.672.085-.634.105-.445.508.463 2.07-.663.028.026.88-.003.034.11.984-.367.046-.664-.086-.892-.396.166.18.254.388.265.627-.07-.126-.48-.44-.85-.735.245.677-1.327.845-1.98.97.256.323.272.633.047.93-.924-1.107-.266-.74-.445-.093l-.33-.44c-.74.827-.08.99.528 1.667-.19.19-.465-.133-.618-.428-.018.14.02.268.114.38-.616-.586-.277-.132-1.067-.598 1.203.964-.26.214-.31.212 0 .227.097.413.29.56-.213.246-.262.922-1.08 1.67-.07.33-.022.643.142.94-.02.044-1.55.6-1.586.62-.383.207.613-.03.186.56-.944.277-.316 1.13-.945 1.22.296-.008.592-.013.887-.014-.363.186-.74.334-1.133.442-.44.358 1.72 1.054 1.718 1.05-.272.59-1.753-.248-1.256-.078-.145.233-.354.36-.628.378.09.085 1.066.837 1.244 1.294-.693.414-1.41.857-1.875 1.028.814.61.02-.178 1.57.275-.016.014-.736 1.028-1.067.324.224.15-.352.476-.15.518 1.21.25.265.496.288.51-.062-.28 1.698.23 1.724.252.094-.036-1.448 1.682-.835 1.906.217-.24.484-.32.8-.237l-.536-.375c1.15.096.22.078 1.043-.465-.045.252.028.464.22.636-.355.17-.71.343-1.064.515-.695 1.548 2.417-.4.877 1.526.293.09.582.057.866-.097l-.278.494c.433.062.866.07 1.3.02-1.75.865.454.963.83.302-.516 1.015 1.06 1.735 1.138 2.042.06.344.834-.665.898-.275-.522 2.01.254 1.338 2.07.964-.182.206-.296.443-.34.714.138-.31.32-.59.546-.845.352.918.255 1.273-.293 1.063-.063.57.334.016.358.54.173.007 1.425-.8 1.273-1.056.23.386.122.267.187.946.288-.297.602-.564.94-.802-1.134 1.196-1.185 1.455-.152.776-.556.332-.356.09.6-.724-.11 1.368 1.887 1.865 2.956 1.536-.057-.145.008-1.575.143-1.293.51.568.657 1.456 1.237 1.885-.036-.09-.134-.738-.23-.998.24-.63 1.156.604 1.01.487.558-.27.824-.73.8-1.38 1.145 1.23 2.55-1.987 2.81-2.595.812.89.863.176 1.493.543 1.22-.925.277-2.448 2.26-3.36-.493.053-.557-.497-.64-.765.09.288 1.01-.037 1.15-.345l-.968-.423c.903-.017 1.257-2.043.925-2.315.56-.25.913-.68 1.177-.938-.52-.294-1.06-.542-1.623-.747zm-.693-7.117c.264.102-.77.224 0 0zm-13.677-3.82c.08.126-.112.17 0 0zM209.077 208.52c-.004 0-.008.003 0 0zM233.845 154.09c.115.158.213.194.27.17-.132-.132-.244-.238-.27-.17zM231.685 150.17l.148.222c-.024-.114-.07-.21-.148-.22zM232.543 178.032l.55-.445c-.155-.157-.322.203-.55.445zM225.02 185.96c-.076.166-.395.86 0 0zM218.406 190.176c-.2.385-.115.653.254.804.016-.296-.07-.564-.254-.804zM208.147 209.616c-.06.088-.467.684 0 0zM225.712 144.532l.026.028c.222.055.11.002-.026-.028zM187.562 176.506c-.522-.53.662-.42.773-.667.29-.653-2.014-.156-.773.666zM207.824 140.794c-.007-.057-.05-.128-.187-.243.038.1.11.173.187.244zM220.914 143.5l-.293-.183c.11.093.206.145.294.183zM200.71 141.94c-2.116-.13.716.17 0 0zM193.664 143.965c.093.043.892-.05 0 0z"/><path class="st1" d="M237.766 164.704c.742-2.108-1.703-3.665-.87-5.687-.482-.346-.098 1.202-.666.887-.37-2.53-.14-2.252-1.268-4.4-.595-1.133-.618.654-1.178-.274.026.042-.997-2.352.264-1.34-.076-.106.612 1.294.633.443.13.233-1.222-1.708-.636-1.656-.563-.318-.657-.153-.282.494-.526-1.007-1.17-1.934-1.93-2.78.256 1.228-4.088-2.775-1.804-2.336-.89-.552-1.602-1.276-2.133-2.173l.648.232c-1.83-.66-.592-.714-.883.084-.132-.15-3.047.186-2.722-1.06 1.32 1.033.094-.678 1.38-.04-.94-.27-2.397-1.692-3.263-1.823.882.42-1.683.45-2.142.226l.497.34c-.478.15-.952.12-1.422-.085.152-.058.304-.114.456-.17-1.652.613-3.413-2.815-5.34-2.595.684 1.294-3.502.482 1.493.79-3.064.884-.527.2.25.537-.545.018-.68.217-.405.596-1.46-1.927-4.368-1.28-6.86-1.78.198.08.398.156.597.234.36-.59-7.554 1.01-7.827 1.016-.025-.487.184-.852.626-1.096-.792.086-4.323 1.625-3.633 2.024-3.96-2.056-7.724 3.33-9.933 4.038-.727-.067-.014-.675-.06-.67-.547-.575-2.902 1.378-2.534 1.047-1.856.35-3.213 4.603-3.838 5.987.074-.42-.083-.66-.47-.717-.19.397.884 2.516-1.265 1.9l.507-.958c-2.47.335-.832 5.782-2.404 6.847.232 1.126.487 2.247.765 3.363-.598-.855-.98-1.8-1.15-2.83-.156.885-.038 1.728.352 2.53-.41-1.278.437 3.51.76 4.74.768 2.94 2.947 6.01 5.958 7.348-.295-1.064 1.716-.595 1.87-.647 1.605 1.35 1.2.853 1.23 1.647 1.415.276 1.555.33 2.91.567-2.458-1.088 3.034-.72 2.127-.006 1.65-.61 4.16-2.176 4.738-2.68 1.35-1.18 3.38-5.086 4.525-6.02.47-3.7.734-3.874-1.602-7.945-.714-1.243-.497-2.417-1.758-3.682-1.368-1.373-3.852-.75-5.036-1.784.65-.874 3.924-3.682 3.96-3.59 1.15.132 1.646.545 1.632-1.05 1.198.545 6.508.467 7.805.033.395 1.064 1.67 1.18 3.06 1.662l-.44.24c.812-.227 1.632-.422 2.46-.585-.063 1.338 1.457 3.184 2.843 3.965-.583.225 1.542 3.186 2.11 4.16l-.57-.015c1.104.737 1.024 1.598 1.052 1.51.156.54.27 1.09.34 1.65l-.364-.368c-.066 2.21.862 5.29-1.49 6.737.246-.6.506-1.194.78-1.782-.494.275-.93.194-1.305-.243.282 1.23-1.632 5.504-1.3 5.434-.07.028 1.075-1.9.796-1.406.173 1.224-.454.635-.144 2.168-2.95.082-4.325 4.98-5.084 4.966-.57.076-.62-.168-.152-.732-.742 1.674-2.072 2.702-2.154 2.832-1.302 2.062-1.905 5.71-3.828 7.314-1.78 1.664-2.778 9.642-2.91 12.73-.017.387-.7 6.452.028 5.773-.104 1.6.063 2.65-.213 3.83 2.417-.46 5.587 1.838 5.404-.813.495-.28 1.18-1.225 1.715-1.29l-.907.382c.042-2.858.42-5.823 1.262-8.22.58.4.715-.765.91-1.41.275.055.378.212.305.47-.382.387 1.2-2.314 1.08-2.085.49-1.258-1.044-2.1 1.38-1.84-.246-.467.604-3.685 2.04-2.743-.136-.204-.31-.25-.52-.137.198.083 1.246-1.392 1.694-1.48-.3.53-.188.757.34.682-.38-1.517 5.25-4.295 6.366-4.74.095-.82.506-1.443 1.234-1.872.797 1.203-.224 1.04 1.05-.356l.188.548c.677-.912 1.484-1.69 2.423-2.33-.383-.23-.743-.49-1.08-.78.477-.403.462-.344.98-.474l-.11.71c.21-.215.332-.473.363-.772.764.91.36-.706.152.646 4.785-3.14 5.647-8.728 8.337-14.605.21.844.35-.223.115.864.324-.954 1.152-4.365.402-2.97-.28-3.528-.23-1.058.69-1.303zm-22.17 7.43c-.08-.145.346-.828 0 0zm-5.638 27.414c-.2.137.14-.75 0 0zM215.77 172.79c-.165.485.316-.496 0 0zM232.328 178.2c-.237.104-.057.02 0 0zM213.618 194.77c-.165.018 1.385.54.933.015-.477-.12-.48-.396-.01-.83-.307.273-.615.544-.922.815zM217.814 191.896c.192-.425.24-.532-.265-.35-.444.514.21.233.264.35zM236.48 169.896l.483.185c.053-.574-.192-.046-.482-.184zM237.656 160.727l-.398-.926c.107.322.24.63.398.927zM194.715 143.02l.375.53c.314-.236.16-.935-.375-.53zM179.81 158.727c-.38.153-.7.764-.48 1.21.152-.5.48-.944.48-1.21zM201.38 151.608c1.325-.7.225-.212 0 0z"/></g></svg>