<svg xmlns="http://www.w3.org/2000/svg" width="180.09529" height="59.41955" viewBox="0 0 180.09529 59.41955"><defs><style>.cls-1{fill:#fff683;}</style></defs><title>selection</title><g id="Layer_2" data-name="Layer 2"><g id="Layer_1-2" data-name="Layer 1"><path class="cls-1" d="M136.44031,44.81518c1.98859,11.26253-8.01141,16.26253-16.95951,13.92576-1.49883.00343-3.0215.00343-4.55436.00343H99.3362c-25.9073-.66666-52.9073,1.33334-78.8792.42991-.98244.07626-1.9588.14641-2.92347.19185-4.82338.2272-9.35463-.16342-13.10463-3.28842-5-6,1-14,1.53-20.76165a17.12761,17.12761,0,0,0-.06549-3.57212,19.03024,19.03024,0,0,0-3.89948-9.88087A23.64468,23.64468,0,0,1,.83714,19.32331C-.453,15.89021-.48777,12.24437,2.4289,8.07771A11.88365,11.88365,0,0,1,7.30408,3.84859C21.4289-1.92229,36.4289.07771,50.341,1.68782c1.32269.013,2.616.01528,3.86769.03182,26.22017,5.35807,52.22017.35807,78.12354.4912q1.94859-.01875,3.8962-.04493t3.89412-.06064q1.87938-.03327,3.75712-.07462C156.4289.07771,175.4289,1.07771,180.09522,16.37707c.00035,1.17122.00035,2.38521-.0263,3.62922-4.64,19.07142-29.64,11.07142-43.22608,19.65029A10.74422,10.74422,0,0,0,136.44031,44.81518Z"/></g></g></svg>