<svg id="Isolation_Mode" data-name="Isolation Mode" xmlns="http://www.w3.org/2000/svg" width="296.97336" height="146.92713" viewBox="0 0 296.97336 146.92713"><title>jonas</title><path d="M420.72137,220.206c-.6239,15.27374,3.20148,30.0049,5.32077,45.256,2.262-1.15276,4.282-2.22641,6.33942-3.2229a70.49663,70.49663,0,0,1,24.44144-6.59976,27.12706,27.12706,0,0,1,18.2283,4.74359,3.33112,3.33112,0,0,0,3.98886.1647c10.20117-5.17619,17.81717-4.667,24.98877,1.7012a29.83794,29.83794,0,0,1,8.47522,12.459c1.06671,3.01553,1.97333,6.08769,3.05414,9.45313,1.24054-3.14694,2.20242-6.03722,3.49142-8.77336,3.99524-8.48029,9.69107-15.23946,18.88834-18.48746,6.27551-2.21622,11.61557-.89014,16.1698,3.8024,5.86566,6.04382,9.10437,13.48013,10.81668,21.5764,1.47913,6.994,2.58939,14.066,3.86185,21.1037a4.48713,4.48713,0,0,1,.07211.49448c.11191,1.66321.49075,3.77338-1.70535,4.06851-2.16324.29071-2.45969-1.78473-2.7572-3.4563-1.47162-8.268-2.76035-16.574-4.47141-24.79208a33.62474,33.62474,0,0,0-8.56943-16.39587,10.31477,10.31477,0,0,0-11.368-2.94322c-7.61865,2.33989-13.0452,7.37677-16.69684,14.16928a59.19149,59.19149,0,0,0-5.606,14.05452c-.8739,3.663-.10559,7.72244-.032,11.60477a58.41662,58.41662,0,0,1,.16476,5.97772c-.0896,1.05878-.91025,2.05566-1.401,3.08047-.63467-.86365-1.65576-1.65344-1.83743-2.60373-.81143-4.24359-1.22992-8.56372-2.07825-12.79852-1.222-6.10037-2.17783-12.33371-4.24353-18.15691-1.33481-3.76288-4.05008-7.27821-6.86612-10.21458a12.91054,12.91054,0,0,0-14.42462-3.48929c-2.182.78024-4.37152,1.53946-6.95016,2.44632,4.40308,4.97664,6.535,10.63295,7.72272,16.71172,1.705,8.726,1.05478,17.07808-3.92636,24.72453a17.45345,17.45345,0,0,1-8.12418,6.74554c-5.00607,2.07193-9.09378,1.12054-11.7092-3.65778a42.26635,42.26635,0,0,1-4.35587-11.56409c-2.525-12.25342,2.70355-22.03958,10.69046-30.7562.605-.66029,1.30234-1.236,2.13049-2.01428a18.36725,18.36725,0,0,0-10.71634-3.27495,65.31562,65.31562,0,0,0-33.20438,10.19958,3.28716,3.28716,0,0,0-.86008,2.72,355.32814,355.32814,0,0,1,3.84326,51.4922c.01306,10.03037-.66367,20.0361-4.85553,29.31393a25.33585,25.33585,0,0,1-6.27811,8.48776c-6.39,5.53513-13.512,4.36835-18.4502-2.53574-3.71787-5.19788-5.37-11.20746-6.62262-17.353-4.95743-24.32211.71338-46.05792,16.23666-65.23164,2.85062-3.521,6.5029-6.41136,9.9118-9.45076a3.10468,3.10468,0,0,0,1.292-3.10823c-1.5575-13.97746-3.62579-27.922-3.19531-42.04956.03766-1.236.27942-2.46576.42639-3.69841Zm3.39938,55.32431-.749-.26352c-.7421.62857-1.53192,1.20915-2.2193,1.89273-20.22293,20.111-26.83505,44.0903-20.28894,71.75858,1.04169,4.40292,2.60959,8.6235,5.98889,11.87289,2.81967,2.7113,5.791,3.10953,8.68277.5571a16.67648,16.67648,0,0,0,4.86536-6.44513c1.78955-5.14655,3.61926-10.50244,3.99307-15.87262.84183-12.09277,1.07346-24.24719,1.04218-36.37524C425.41245,293.61243,424.58826,284.57184,424.12076,275.5303Zm59.97919,12.36243c-.39655-6.13422-1.5972-13.17949-6.444-19.09419-1.10425-1.34755-1.9202-1.593-3.41-.30928A36.71691,36.71691,0,0,0,463.91147,283.814c-2.96442,7.90372-1.7406,15.56064,2.07025,22.84763,2.25891,4.3194,5.22931,5.03528,9.21014,2.31107a17.2695,17.2695,0,0,0,4.3558-4.35583C482.7522,299.97491,484.1026,294.70679,484.09995,287.89273Z" transform="translate(-393.55576 -220.12881)"/><path d="M690.35865,256.11429a25.25519,25.25519,0,0,1-5.09192.52173c-10.26-.99573-20.48517-2.61147-30.76373-3.05734-6.23047-.27028-12.5578,1.04646-18.79578,1.96246a16.51774,16.51774,0,0,0-5.9397,2.46678c-2.754,1.68742-2.91864,3.65329-.30334,5.49709a107.05818,107.05818,0,0,0,9.45349,5.52934c7.38214,4.14238,14.99341,7.92686,22.08228,12.51936a29.7567,29.7567,0,0,1,8.22089,8.86c3.23395,5.0004,3.34143,10.54108.42633,15.91248a9.39585,9.39585,0,0,1-11.4165,4.73413,31.147,31.147,0,0,1-13.249-7.71631c-6.23773-5.993-12.14362-12.33826-18.50049-18.19757-3.82935-3.52962-8.22888-6.44533-12.41632-9.57791a20.1877,20.1877,0,0,0-2.90387-1.51736c-.74744,4.10788-1.25006,8.069-2.2323,11.90741a52.10266,52.10266,0,0,1-3.48352,9.85028c-3.06091,6.29263-7.6933,10.82544-15.26764,10.486-6.68393-.29959-12.34161-5.63364-14.62317-13.1835a18.56036,18.56036,0,0,1,9.6601-22.07938,29.10874,29.10874,0,0,1,22.06879-1.8674c.7796.23407,1.56329.45453,2.79144.81078V255.26245l.96307-.01207q0,2.486-.00024,4.97192c-.00269,3.16528-1.02094,6.863.281,9.34291,1.24847,2.378,5.101,3.25394,7.46246,5.20879,6.1358,5.07927,12.13812,10.32475,18.08441,15.62651,4.71356,4.20264,9.08673,8.80469,13.96161,12.8017a34.87218,34.87218,0,0,0,8.922,4.85782c3.4187,1.4028,6.18872.05161,7.89209-3.22839,2.67694-5.15469,1.62531-11.22684-2.80414-16.13623-5.32062-5.89719-12.29382-9.2894-19.26782-12.67024-4.48547-2.17447-9.08191-4.13957-13.45483-6.518a20.168,20.168,0,0,1-5.49518-4.57565c-2.28882-2.67079-2.13867-5.542.69476-7.643a26.74632,26.74632,0,0,1,8.3678-4.18741c11.10608-3.18335,22.49725-3.31827,33.91571-2.33537q8.07843.69541,16.113,1.857c1.66284.24176,3.21564,1.24133,4.81879,1.894Zm-112.886,30.287c-.01889,8.58441,4.71838,15.40607,10.88113,17.03323,5.59821,1.47812,11.25479-1.6619,15.00485-8.56573a57.78418,57.78418,0,0,0,6.09967-19.90125,2.67035,2.67035,0,0,0-1.30164-2.15619,25.08163,25.08163,0,0,0-22.11813,1.01686C580.60609,276.73483,577.66615,281.481,577.47261,286.40125Z" transform="translate(-393.55576 -220.12881)"/></svg>