<?xml version="1.0" encoding="utf-8"?>
<!-- Generated by IcoMoon.io -->
<!DOCTYPE svg PUBLIC "-//W3C//DTD SVG 1.1//EN" "http://www.w3.org/Graphics/SVG/1.1/DTD/svg11.dtd">

<svg version="1.1" xmlns="http://www.w3.org/2000/svg" xmlns:xlink="http://www.w3.org/1999/xlink" width="176" height="32" viewBox="0 0 176 32">
<defs>
<g id="facebook">
	<path d="M160.21158,335.32716c.04984.26874-.04984.42751.32809.34787a2.69223,2.69223,0,0,0-.66619-1.01432A.46952.46952,0,0,0,160.21158,335.32716Z" transform="translate(-153.88506 -323.32198)"/><path d="M166.21846,406.03639c.04984.4866.50716.4866,1.0043.34735.79645.14953,1.98008.9655-.33811-1.34266C166.64623,405.38946,166.42734,405.71729,166.21846,406.03639Z" transform="translate(-153.88506 -323.32198)"/><path d="M153.88506,363.673v.67621h1.004C154.80971,363.89189,154.39222,363.70228,153.88506,363.673Z" transform="translate(-153.88506 -323.32198)"/><path d="M154.20261,387H154v.3558c1,1.1438,2.43375-1.02368,2.76183-1.67933A2.6419,2.6419,0,0,0,154.20261,387Z" transform="translate(-153.88506 -323.32198)"/><path d="M168.55591,403.71795c-.119-.22814-.22917-.447-.33811-.65566C168.31775,403.45024,167.99891,403.74775,168.55591,403.71795Z" transform="translate(-153.88506 -323.32198)"/><path d="M169.55122,400.36618v.68649h.31781A.46437.46437,0,0,0,169.55122,400.36618Z" transform="translate(-153.88506 -323.32198)"/><path d="M168.86447,402.71391a2.26227,2.26227,0,0,0,.68674-1.66124C168.75451,401.26129,168.86447,401.89793,168.86447,402.71391Z" transform="translate(-153.88506 -323.32198)"/><path d="M161.53471,336.98788c-.09968-.2189-.20888-.43779-.32886-.66593C161.31582,336.72942,160.997,337.048,161.53471,336.98788Z" transform="translate(-153.88506 -323.32198)"/><path d="M177.54783,408.0347c-.09891.78617.12923,1.114.67621,1.00507C178.39309,408.065,178.7312,406.88165,177.54783,408.0347Z" transform="translate(-153.88506 -323.32198)"/><path d="M199,335.99047v0Z" transform="translate(-153.88506 -323.32198)"/><path d="M202.23544,323.322c-2.21747,0-.268,3.07378.33888,3.67086C201.65866,325.02279,202.63341,326.95277,202.23544,323.322Z" transform="translate(-153.88506 -323.32198)"/><path d="M202.23544,327.331c-.984-.11921-1.21317.66593-.66619,2.3169C202.2059,329.64785,202.66321,327.74819,202.23544,327.331Z" transform="translate(-153.88506 -323.32198)"/><path d="M181,333h.20841c0-1-.15366-3.9553-1.59575-4.84065.42777,1.29282.38734,3.52515,1.38734,4.49939Z" transform="translate(-153.88506 -323.32198)"/><path d="M162.87712,338.6594c-.29828-.48763-1.0937-.95523-.32783-.32886C162.28029,338.53043,162.56856,338.6594,162.87712,338.6594Z" transform="translate(-153.88506 -323.32198)"/><path d="M201.23114,330.66268v.99479h.33811C201.70876,331.18011,201.70876,330.70224,201.23114,330.66268Z" transform="translate(-153.88506 -323.32198)"/><path d="M208.58186,406.72185v.65669h.31781C208.79073,407.15964,208.69079,406.94074,208.58186,406.72185Z" transform="translate(-153.88506 -323.32198)"/><path d="M163.53237,350.0162c-.24844.725.41878.99376,1.35371.99376A1.13808,1.13808,0,0,0,163.53237,350.0162Z" transform="translate(-153.88506 -323.32198)"/><path d="M210.90929,411.37774h-.32809c0,1.06416-.119,1.22294.99428,1.69053v-1.01432h-.66619Z" transform="translate(-153.88506 -323.32198)"/><path d="M173.3901,339.34275c.06577.08324.12717.14953.19166.22763-.16777-.23585-.34222-.46862-.51769-.70088A5.11067,5.11067,0,0,0,173.3901,339.34275Z" transform="translate(-153.88506 -323.32198)"/><path d="M235.58765,366.01969c-6.46588,0-10.10591-3.44066-3.00467-7.67931-1.68076-3.01366-14.33689-6.96251-1.27692-9.66787A8.10742,8.10742,0,0,0,228,349.34872V349h-3v.34872c-7-.33811-7.468-3.81936-8.293-8.67256.84526,4.8234-9.66767-4.68569-4.70425-4.68569-4.22709,0-4.54,7.26156-9.365.4974-1.60112-2.26757-10.28142,4.55569-8.57033-2.1684C190.477,334.94635,189,338.3382,185,340.00869V340h-.11148c-1.87011-2-2.05844-3.76055-3.33173-6.51575-2.67581,1.90994,2.48621,5.33633.65591,7.76318-4.07859,0-5.68331,1.85656-8.63094-1.71924,1.32468,1.86164,2.358,3.85022,2.29557,5.78174-4.65589,3.95861-4.725,5.68949-10.99126,5.68949.28826,1.65148,3.44066,1.47742,4.02849,3.07957.825,2.27733-2.87544,1.53439-3.26236,2.7974-1.73163,5.65993-3.06376,6.79529-9.45026,6.79529,1.57183,1.6114,8.2656-.26859,7.58014,3.651-.379,1.98907-2.99465,3.64036-.24973,5.36069,0,4.4077-1.03359,1.9805.66722,6.96319.64589,1.90069-6.59486,5.552-7.66955,6.02935C158.51012,387.18758,166.88466,379,166.88466,387h-.33811c-.49714,1-1.66284,4.90264-.37953,6.03617-.66619-.5868,2.833-1.01523,2.833-1.005v-.667c6,2.04919.12082,5.31155.93679,9.00193,2.208,0,4.78078-7.23073,7.92393-2.43662,2.67556,4.10762,7.04474,4.80336,7.04474,9.79735.89511,0,1.28486-.41775,2.00115-.67621,3.82964-1.24349,7.35682-4.1179,11.71314-4.33679C200.8678,406.01583,207,406.19516,209,405.04108V406h-.10033c1.07444,0,2.089,1,2.33745,3H212v.03977a5.88991,5.88991,0,0,0,3.13051,4.6446c0-2.90473-3.53474-5.68437-4.22123-8.68437H211v-.95422c-1-1.22294-1.90018-4.38561,1.22293-3.94782,6.60411.984-.84336-3.731,5.5123-3.731A5.12926,5.12926,0,0,1,221,400.72433v.32834c2-.35866,2.44949.98451,3.62284.98451a3.594,3.594,0,0,0-2.19177-3.32248c-1.81-1.06416-4.592-6.68349-.414-6.68349,1.03384,0,10.22172,4.84293,7.874,2.00859,0-.41775-2.23985-1.37195-2.65735-2.00859.79542-.79645,2.585-2.03017,3.01275-3.00493-3.21252-1.03384-3.69585-3.50078-2.99909-6.33511,1.104-.74661,1.34468-3.04449,2.181-4.12818.87481-1.10424,4.18841,1.3627,5.103.63665.23945-.17933-4.1867-4.83419-4.60445-7.18192C224.715,366.44721,238.08414,369.80925,235.58765,366.01969ZM208,358h-7.48082A2.69049,2.69049,0,0,0,198,360.34606V366h10v7H198v22h-7V373h-9v-7h9v-4.82428C191,355.01737,194.64766,350,200.51918,350H208Z" transform="translate(-153.88506 -323.32198)"/><path d="M168.21781,331.68451c0,1.71108,2.65988,4.29466,4.84627,7.185C171.64023,336.568,171.13821,332.407,168.21781,331.68451Z" transform="translate(-153.88506 -323.32198)"/><path d="M210.2431,410.701v.67672h.33811C210.70041,411.05864,210.57118,410.83975,210.2431,410.701Z" transform="translate(-153.88506 -323.32198)"/><path d="M209.905,410.37215c.16905.1598-.159.46759.33811.32886a2.93029,2.93029,0,0,0-1.00532-1.98907A6.52679,6.52679,0,0,0,209.905,410.37215Z" transform="translate(-153.88506 -323.32198)"/><path d="M183,411.70556c1-.01028.79542-.2189,1.0043-.32783-.31781-.79645-.0043-1.50246-1.0043-2.338Z" transform="translate(-153.88506 -323.32198)"/><path d="M178.881,402.37529v.687h.34838A.47736.47736,0,0,0,178.881,402.37529Z" transform="translate(-153.88506 -323.32198)"/><path d="M208.22346,406.38374c-.09891-.21838-.20888-.45732-.31781-.66645C208.00533,406.10575,207.69677,406.41406,208.22346,406.38374Z" transform="translate(-153.88506 -323.32198)"/><path d="M208.89967,408.71194h.33811c-.10893-.20965-.21787-.44807-.33811-.67724Z" transform="translate(-153.88506 -323.32198)"/><path d="M209.079,407.53731c-.36791-.3083-.21915.2487-.17933.4974v-.4974Z" transform="translate(-153.88506 -323.32198)"/><path d="M178.881,405.04108v-1.32313h-.32809C178.38384,404.32479,178.40337,404.89258,178.881,405.04108Z" transform="translate(-153.88506 -323.32198)"/>
</g>
</defs>
</svg>