<svg xmlns="http://www.w3.org/2000/svg" width="62.006" height="192.702"><defs><style>.cls-22{fill:#fff}.cls-23{fill:#a8a8a8}</style></defs><g id="Layer_2" data-name="Layer 2"><g id="Layer_1-2" data-name="Layer 1"><path stroke-miterlimit="10" fill="#f4db73" stroke="#af8f58" d="M58.675 137.013l-54.667.007 12.333 20.879 9.046 18.625 11.764.25 10.315-20.875 11.209-18.886z"/><path d="M23.841 170.149l-6.5-14.5-7.627-12.125s3.086.833 4.667.375 3.627-2.75 3.627-2.75l4.333 21z" fill="#fff3c0"/><path fill="#b78534" d="M38.341 174.149l-4.5-.5 4.667-18.834 2.333-18.5 18.167-3.666-3.167 8.666-10.125 18.292-7.375 14.542z"/><path fill="#cea645" d="M34.008 174.149h-5l-2.333-11.5-2-15 2-10.5 14.166 1-1.5 17.911-5.333 18.089z"/><path d="M51.875 140.894h-.5a6.816 6.816 0 0 1-6.8-6.8V43.147h16.09V132.1a8.816 8.816 0 0 1-8.79 8.794z" fill="#f4bc1e"/><path d="M31.744 143.519h-.585c-7.15 0-13-4.85-13-12V48.837h26.585v82.682c0 7.15-5.85 12-13 12z" fill="#f9d023"/><path d="M10.5 140.894h-.65c-4.285 0-7.79-4.648-7.79-8.933V43.147h16.23V133.1a7.814 7.814 0 0 1-7.79 7.794z" fill="#fcee21"/><path d="M44.425 135.982c-1.835 4.672-7.2 9.167-13.11 9.167h-.585A13.939 13.939 0 0 1 18.064 137c-.885 3.148-4.306 5.062-7.223 5.062-4.7 0-8.679-4.979-8.773-9.854l.032-14.629.575 14.82c.612 4.593 3.551 8.166 7.583 8.166 3.5 0 7.083-1.917 7.083-5.639l.915-21.965.419 21.021c.9 5.213 5.543 9.167 12.055 9.167h.585c5.443 0 11.852-3.721 12.776-9.334l.667-25.916.25 26.333" fill="#ad8618"/><path d="M45.008 134.232c0 3.785 2.836 6.25 7.167 6.25 4.1 0 6.565-3.92 6.958-4.667a14.879 14.879 0 0 0 .958-2.291 24.63 24.63 0 0 0 .542-2.667 9.907 9.907 0 0 1-1.458 6.375c-2.326 3.907-15.339 27.032-20.084 36.75-.731 1.5-.839.216-1.125.5-.788.784 17.307-32.941 16.375-32.708a11.264 11.264 0 0 1-2.25.125 8.011 8.011 0 0 1-7.666-5.917" fill="#7f5e13"/><path d="M45.138 50.212l15.62-1.647-.167 82.667s-1-32.687-1.166-35.167.194-9.036-1.607-14.854c-1.625-5.25-3.375-6.625-5.125-7.75-1.455-.935-3.687-.187-4.852 1.688a19.634 19.634 0 0 0-1.71 5.062c-.294 1.584-1.04 12.729-1.04 12.729z" fill="#c68d28"/><path d="M18.391 48.572l27.325-1.3-.625 32.75c.216-.052-1.335-11.5-4.25-15.375a14.894 14.894 0 0 0-5.25-4.5 10.837 10.837 0 0 0-8.75 0 9.48 9.48 0 0 0-4.5 3.875 15.556 15.556 0 0 0-2.125 6.5c-.46 3-1.25 13.125-1.25 13.125l-.625 12.125z" fill="#e0ac07"/><path d="M1.767 48.274l16.739 1.375-.188 22.751a32.649 32.649 0 0 0-2.125-11.5c-2.25-5.5-5.75-6.25-8.062-6s-4.3 3.125-4.3 6.687c0 .938-.825 26.75-.825 26.75l-.494 20.606-.412 9.073-.247-69.2z" fill="#eac511"/><path fill="#ccc" d="M61.008 44.315l-.333 3.334-16.667 1.333-28-.167 30-2.166 15-2.334z"/><path d="M39.087 174.149l-3.121-1.125-4.25-.5-4.75.5-3.37 1 2.987 8.227 2.855 9.833 1.903.618 2.221-.935 2.379-9.833 3.146-7.785z"/><path d="M34.589 50.149l-1.583-.065c0 .348 1 .7 1 1.043 1.548 0 2.226.012 3.219.022 2.208.021 4.041.229 5.312 1.062.914.6 1.811 1.126 2.406 3.625.313 1.313.482 10.563.482 10.563s.206-7.875.75-10.334c1.107-5 6.143-4.354 6.143-4.354s5.625-.375 6.813 6.438c.861 4.942 1.544 24.083 1.544 24.083l.039-33.667z" fill="#8e650a"/><path d="M1.853 48.819l.174 47.047.564-18.092s.227-22.875.375-24.625a2.487 2.487 0 0 1 2.188-2.563 30.857 30.857 0 0 1 6.039.218c2.648.312 4.438.47 5.188 1.032A3.967 3.967 0 0 1 18.008 54a36.276 36.276 0 0 1 .417 5.021 46.278 46.278 0 0 1 .664-5.209c.625-2.041 2.508-2.353 3.917-2.5 1.5-.156 6.406-.2 6.406-.2s2.7 0 4.594.01c0-.348-1-.7-1-1.043z" fill="#a57a0f"/><path d="M3.543 33.982V19.647C3.543 8.016 16.794.5 30.543.5h1.484c13.75 0 27 7.516 27 19.147v14.335z" fill="#c64f6e" stroke="#962f6a" stroke-miterlimit="10"/><path d="M4.841 26.4l.584 1.416 10-.166a3.2 3.2 0 0 0 2.081-1.625c.875-1.459 2.085-4.792 3.583-6.292s3.3-1.973 6.25-1.917c10.917.209 28.419-.666 28.419-.666l-.667-.417s-13.09.8-25.752.6c-11.648-.181-22.933-1.359-23.333-1.371-1.047-.031-1.125 2.875-1.125 2.875z" fill="#db8db6"/><path d="M58.49 18.1l.157 9.125-15.891 1.424-10.625.125s.171-1.459 2.523-1.875 6.94-1.084 8.437-2.5 2.723-4.09 3.084-4.553a3.546 3.546 0 0 1 2.873-1.406c1.166 0 9.442-.34 9.442-.34z" fill="#a32e52"/><path d="M33.841 1.982c-.235-.479-4.614-.365-7.929.073a34.9 34.9 0 0 0-8.875 2.312 27.826 27.826 0 0 0-6.862 4.115 12.551 12.551 0 0 0-3.25 4.333c-.294.834-.144 1.23.25 1.25a92.436 92.436 0 0 0 9.916-2.75 90.566 90.566 0 0 0 12.084-5.083c1.643-1.021 5.331-2.896 4.666-4.25z" fill="#e8a3cb"/><path d="M3.05 23.3l-.021 6.25 26.729 1.562 29.792-1.026-.013-10.562-.937.531-.438 6.375S47.754 27.547 43.3 27.857a180.7 180.7 0 0 1-22.334.083c-4.038-.248-15.927-1.073-15.927-1.073l-1-2.25z" fill="#722f49"/><path d="M61.506 33.984v-1.716c0-1.271-.33-3.369-1.43-3.369l-15.07.968-27.344.033-15-1c-1.1 0-2.153 2.1-2.153 3.37v1.715a2.217 2.217 0 0 0 1.77 2.285 2.217 2.217 0 0 0-1.77 2.285v1.715a2.217 2.217 0 0 0 1.77 2.284 2.218 2.218 0 0 0-1.77 2.285v1.716a2.332 2.332 0 0 0 2.15 2.345l15.682 1.25h26.75l14.985-1.25c1.1 0 1.43-1.073 1.43-2.344v-1.717a2.218 2.218 0 0 0-1.771-2.285 2.216 2.216 0 0 0 1.771-2.284v-1.716a2.217 2.217 0 0 0-1.771-2.285 2.217 2.217 0 0 0 1.771-2.285z" fill="#e6e6e6"/><path class="cls-22" d="M2.631 31.836c-.667-.041-.438-2.041.687-2s6.75.865 14.563 1.1 21.456.333 25.406.177c3.969-.156 16.221-1.052 16.221-1.052s-12.065 1.677-16.783 1.927-25.917.594-29.782.5-9.643-.61-10.312-.652zM2.3 39.274c-.584 0-.6-1.875.614-1.969 1.258-.1 11.513.8 19.344.844s16.877 0 21.625-.209 15.627-.875 15.627-.875-10.208 1.5-16.419 1.959-18.581.708-24.25.666-16.252-.416-16.541-.416zM2.131 45.274c-.617-.1-.25-1.834.667-1.792s11.458.917 19.583.917 15.5-.334 20.5-.5 16.5-.75 16.5-.75-11.417 1.251-16.042 1.666-12.25 1.042-21.5 1-18.208-.291-19.708-.541z"/><path class="cls-23" d="M61.631 39.961l-.875 2.375s-10.371.521-16.748.646-28-.167-28-.167 26.831-.458 34.5-.958 11.123-1.896 11.123-1.896zM61.631 45.482l-.5 2.625-17.313 1.625-31.125-.3s26.941-.77 35.271-1.323c11.292-.752 13.667-2.627 13.667-2.627zM61.443 32.836l-.562 3.188s-10.037.833-16.873.958-25.315-.4-25.315-.4 26.23-.021 34.521-1.062c6.386-.799 8.229-2.684 8.229-2.684z"/><path fill="#c9c9c9" d="M29.716 187.899l-1.812-6.625-2.063-5.396 2-.75 2 .083.313 5.813.417 6.333-.855.542z"/><path d="M5.4 25.226a39.921 39.921 0 0 1 .271-7.994 1.788 1.788 0 0 1 1.753-1.115c.914 0 8.245.615 8.245.615a4.882 4.882 0 0 0-4 2.333c-.515.878-1 4.469-1.582 5.4a2.135 2.135 0 0 1-2 1.231c-.914.036-2.452.104-2.687-.47z" fill="#ffcff0"/><path d="M12.693 8.242c.04-.6 2.766-2.305 5.148-3.3 2.415-1.01 5.273-1.666 5.75-1.416s.09.84-.3 1.312A21.322 21.322 0 0 1 18.8 7.26a18.331 18.331 0 0 1-4.2 1.389c-.668.03-1.946.198-1.907-.407z" fill="#ffe9f7"/><path d="M3.925 131.315c.059-3.166.166-38.666.166-38.666l.75-30.25s.334 64.75.334 66.5a12.215 12.215 0 0 0 .914 5.333 5.585 5.585 0 0 0 2.584 2.6 5.747 5.747 0 0 0 4.458.146 10.357 10.357 0 0 0 2.708-1.875 4.367 4.367 0 0 1-2.354 3.188 6.472 6.472 0 0 1-4.977.354 6.655 6.655 0 0 1-3.221-2.625 7.51 7.51 0 0 1-1.362-4.705z" fill="#fffbd7"/><path d="M19.839 133.232c0-.666-.083-27.458-.083-27.458l.417 5.666s.477 20.87.5 21.542a7.3 7.3 0 0 0 3.614 5.354 13.518 13.518 0 0 0 6.406 1.469 17.211 17.211 0 0 0 7-1.281 22.736 22.736 0 0 0 4.148-2.542 14.31 14.31 0 0 1-4.583 4.5 11.53 11.53 0 0 1-6.565 1.417 13.855 13.855 0 0 1-6.812-1.969 9.356 9.356 0 0 1-4.042-6.698z" fill="#fcee86"/><path class="cls-23" d="M1.006 44.839a1.948 1.948 0 0 1 1.375-1.961l3.271-.125-3.438-.646c-.762-.1-1.208-.921-1.208-1.838v-1.715a1.954 1.954 0 0 1 1.437-1.926l3.334-.021-3.542-.75a1.736 1.736 0 0 1-1.229-1.873v-1.716c0-1.288.644-2.945 1.4-3.223a6.787 6.787 0 0 1 2.574.088c1.306.137 3.055.336 7.991.672 7.351.5 20.1.312 20.1.312L12.1 28.961l-9.712-.813c-1.561 0-2.382 2.729-2.382 4.12v1.716a2.909 2.909 0 0 0 1.057 2.285 2.911 2.911 0 0 0-1.057 2.285v1.715a2.911 2.911 0 0 0 1.057 2.285 2.911 2.911 0 0 0-1.057 2.285v1.31a3.166 3.166 0 0 0 .4 2.008c.2.268.6-.29.6-.29z"/><path d="M61.3 46.011l-.29.6c0 .886-.387 1.015-1.239 1.134s-8.09 1.073-15.176 1.407-20.023.479-26.585.271c-6.453-.2-12.27-.813-13.292-.917a21.646 21.646 0 0 1-2.918-.42c-.259-.059-.8-.239-.8-.682l-.523.13c-.163.124-.386.174-.069.633a3.142 3.142 0 0 0 2.132.982s10.114 1.333 14.82 1.521 23.234.1 27.231-.084 13.667-1.256 15.235-1.437 2.18-1.067 2.18-2.594v-.406z" fill="#544f43"/><path d="M62.006 44.839a2.914 2.914 0 0 0-1.057-2.285 2.907 2.907 0 0 0 1.057-2.284v-1.716a2.914 2.914 0 0 0-1.057-2.285 2.913 2.913 0 0 0 1.057-2.285v-1.716c0-1.437-.467-3.965-2.044-4.119-.852-.084-5.612.5-9.685.843-3.868.327-26.771 1.135-26.771 1.135s17.1.074 25.687-.322c4.063-.188 6.242-.438 7.625-.563a11.383 11.383 0 0 1 3.2-.093c.835.187.991 1.778.991 3.119v1.716c0 .917-.082 1.686-.844 1.789l-3.844.563 3.5.094c.763.1 1.188 1.207 1.188 2.124v1.716c0 .916-.112 1.686-.875 1.789l-3.875.5 3.656.094c.762.1 1.177 1.333 1.177 2.166s-.083 1.792-.083 1.792c.208-.521 1-.458 1-.458z" fill="#8e8e8e"/></g></g></svg>