<svg xmlns="http://www.w3.org/2000/svg" width="100" height="10.507" viewBox="0 0 100 10.50663"><path d="M.51 1.056a.284.284 0 0 0-.082-.21A.813.813 0 0 0 0 .73V.51h6.045A5.977 5.977 0 0 1 8.23.874a4.087 4.087 0 0 1 1.53 1.01 4.215 4.215 0 0 1 .902 1.52 5.785 5.785 0 0 1 .3 1.895 5.153 5.153 0 0 1-.32 1.792 4.3 4.3 0 0 1-.964 1.53 4.77 4.77 0 0 1-1.602 1.065 5.743 5.743 0 0 1-2.23.4H0V9.87a.816.816 0 0 0 .428-.12.283.283 0 0 0 .082-.208zM5.554 7.94A2.61 2.61 0 0 0 7.63 7.2 2.807 2.807 0 0 0 8.267 5.3a2.806 2.806 0 0 0-.637-1.904 2.61 2.61 0 0 0-2.076-.737H3.24v5.28zM15.69 9.687a.156.156 0 0 0 .063.137.507.507 0 0 0 .264.046v.218h-3.223V9.87a.593.593 0 0 0 .29-.12.866.866 0 0 0 .184-.3q.036-.09.182-.49.145-.4.382-1.012t.528-1.356q.29-.746.583-1.52.29-.774.573-1.512.283-.737.5-1.32l.356-.947Q16.51.93 16.51.91c0-.06-.04-.102-.12-.127a1.62 1.62 0 0 0-.245-.054V.51h4.752v.22a.976.976 0 0 0-.236.053c-.06.025-.09.085-.09.182a4.03 4.03 0 0 0 .173.474q.172.436.445 1.137.274.7.63 1.584.354.884.736 1.803.382.92.738 1.794.355.874.646 1.566a1.783 1.783 0 0 0 .246.437.34.34 0 0 0 .264.11v.218H20.86V9.87c.23-.013.347-.085.347-.22a2.258 2.258 0 0 0-.09-.245q-.093-.228-.202-.51l-.21-.537a2.467 2.467 0 0 1-.117-.346h-4.316q-.182.492-.29.8l-.175.493c-.042.12-.072.21-.09.264a.444.444 0 0 0-.028.117zm4.424-3.132l-1.766-4.333-1.62 4.333zM36.174 7.867a.252.252 0 0 0 .218-.1.975.975 0 0 0 .11-.41h.218v3.15h-.218a.647.647 0 0 0-.11-.355.322.322 0 0 0-.218-.064H26.67V9.87a.813.813 0 0 0 .427-.12.282.282 0 0 0 .082-.208V1.056a.282.282 0 0 0-.083-.21.81.81 0 0 0-.428-.117V.51h3.75v.22a.81.81 0 0 0-.428.117.284.284 0 0 0-.082.21v6.81zM48.32 7.867a.252.252 0 0 0 .218-.1.975.975 0 0 0 .11-.41h.217v3.15h-.218a.647.647 0 0 0-.11-.355.322.322 0 0 0-.218-.064h-9.506V9.87a.813.813 0 0 0 .428-.12.282.282 0 0 0 .082-.208V1.056a.282.282 0 0 0-.082-.21.81.81 0 0 0-.428-.117V.51h3.75v.22a.81.81 0 0 0-.427.117.284.284 0 0 0-.082.21v6.81zM58.134 6.592a.578.578 0 0 0-.155-.3.54.54 0 0 0-.393-.12H54.2v1.695h5.845a.253.253 0 0 0 .22-.1 1.07 1.07 0 0 0 .108-.447h.22v3.114h-.22a.48.48 0 0 0-.11-.292.365.365 0 0 0-.218-.054H50.96V9.87a.814.814 0 0 0 .427-.12.283.283 0 0 0 .082-.208V1.056a.284.284 0 0 0-.083-.21.812.812 0 0 0-.428-.117V.51h9.085a.253.253 0 0 0 .22-.1.975.975 0 0 0 .108-.41h.22v3.168h-.22a.98.98 0 0 0-.11-.41.255.255 0 0 0-.218-.1H54.2V4.17h3.387a.538.538 0 0 0 .392-.12.574.574 0 0 0 .154-.3h.218v2.842zM66.346 9.542a.283.283 0 0 0 .082.21.816.816 0 0 0 .428.118v.218h-3.75V9.87a.814.814 0 0 0 .426-.12.283.283 0 0 0 .082-.208V1.056a.284.284 0 0 0-.082-.21.812.812 0 0 0-.427-.117V.51h6.664a4.66 4.66 0 0 1 2.93.737 2.768 2.768 0 0 1 .91 2.286 2.6 2.6 0 0 1-.737 1.966 4.258 4.258 0 0 1-1.866 1.02l2.15 3.022a.63.63 0 0 0 .527.327v.218h-3.787V9.87q.4-.02.4-.328a1.018 1.018 0 0 0-.146-.255q-.145-.22-.363-.528-.218-.31-.482-.666l-.51-.683q-.246-.327-.428-.58c-.122-.172-.2-.287-.237-.348h-1.784zm3.06-4.99a1.553 1.553 0 0 0 1.1-.3.968.968 0 0 0 0-1.402 1.554 1.554 0 0 0-1.1-.3h-3.06V4.55zM83.758 1.056a.285.285 0 0 0-.082-.21.815.815 0 0 0-.428-.117V.51h3.75v.22a.813.813 0 0 0-.427.117.285.285 0 0 0-.08.21v4.88a4.673 4.673 0 0 1-.392 2.02 3.368 3.368 0 0 1-1.074 1.31 4.152 4.152 0 0 1-1.603.684 9.613 9.613 0 0 1-1.956.192 9.603 9.603 0 0 1-1.958-.19 4.15 4.15 0 0 1-1.602-.684 3.364 3.364 0 0 1-1.074-1.31 4.663 4.663 0 0 1-.392-2.022v-4.88a.282.282 0 0 0-.082-.21.81.81 0 0 0-.428-.117V.51h3.75v.22a.81.81 0 0 0-.426.117.284.284 0 0 0-.082.21v4.88a1.776 1.776 0 0 0 .6 1.51 3.377 3.377 0 0 0 3.387 0 1.776 1.776 0 0 0 .6-1.51zM93.244 9.542a.284.284 0 0 0 .082.21.816.816 0 0 0 .43.118v.218h-3.753V9.87a.817.817 0 0 0 .428-.12.284.284 0 0 0 .083-.208V1.056a.285.285 0 0 0-.082-.21.815.815 0 0 0-.427-.117V.51h6.52a4.296 4.296 0 0 1 1.51.246 3.16 3.16 0 0 1 1.093.664 2.714 2.714 0 0 1 .656.975 3.17 3.17 0 0 1 0 2.312 2.62 2.62 0 0 1-.656.965 3.23 3.23 0 0 1-1.092.656 4.288 4.288 0 0 1-1.512.246h-3.278zm2.768-4.9a1.942 1.942 0 0 0 1.12-.253.96.96 0 0 0 .355-.84.852.852 0 0 0-.355-.764 2.063 2.063 0 0 0-1.12-.237h-2.768v2.093z"/></svg>