<svg id="Layer_1" xmlns="http://www.w3.org/2000/svg" viewBox="0 0 100 25"><style>.st0{fill:#FFFFFF;}</style><path class="st0" d="M.5 1.1C.5 1 .5.9.4.9S.2.8 0 .7V.5h6c.8 0 1.6.1 2.2.4.6.2 1.1.6 1.5 1 .4.4.7.9.9 1.5s.4 1.2.4 1.9c0 .6-.1 1.2-.3 1.8-.2.6-.5 1.1-1 1.5-.4.4-1 .8-1.6 1.1-.6.3-1.4.4-2.2.4H0v-.2c.2 0 .4-.1.4-.1.1-.1.1-.1.1-.2V1.1zm5.1 6.8c1 0 1.7-.2 2.1-.7.4-.5.6-1.1.6-1.9 0-.8-.2-1.4-.6-1.9-.5-.5-1.2-.7-2.1-.7H3.2V8h2.4zM15.7 9.7c0 .1 0 .1.1.1h.3v.2h-3.2v-.1c.1 0 .2-.1.3-.1.1-.1.1-.2.2-.3 0-.1.1-.2.2-.5s.2-.6.4-1 .3-.9.5-1.4l.6-1.5.6-1.5c.2-.5.4-.9.5-1.3.1-.4.3-.7.4-.9.1-.2.1-.4.1-.4 0-.1 0-.1-.1-.1s-.2 0-.2-.1V.5h4.8v.2c-.1 0-.2 0-.2.1-.1 0-.1.1-.1.2 0 0 .1.2.2.5s.3.7.4 1.1c.2.5.4 1 .6 1.6s.5 1.2.7 1.8c.3.6.5 1.2.7 1.8.2.6.5 1.1.6 1.6l.2.4c.1.1.2.1.3.1v.2H21v-.2c.2 0 .3-.1.3-.2 0 0 0-.1-.1-.2-.1-.2-.1-.3-.2-.5s-.1-.4-.2-.5c-.1-.2-.1-.3-.1-.3h-4.3c-.1.3-.2.6-.3.8-.1.2-.1.4-.2.5 0 .1-.1.2-.1.3-.1-.2-.1-.1-.1-.1zm4.4-3.1l-1.8-4.3-1.6 4.3h3.4zM36.2 7.9c.1 0 .2 0 .2-.1s.1-.2.1-.4h.2v3.2h-.2c0-.2-.1-.3-.1-.4 0 0-.1-.1-.2-.1h-9.5v-.2c.2 0 .4-.1.4-.1.1-.1.1-.1.1-.2V1.1c0-.1 0-.2-.1-.2-.1-.1-.2-.1-.4-.1V.5h3.8v.2c-.2 0-.4.1-.4.1-.1.1-.1.1-.1.2v6.8h6.2zM48.3 7.9c.1 0 .2 0 .2-.1s.1-.2.1-.4h.2v3.2h-.2c0-.2-.1-.3-.1-.4 0 0-.1-.1-.2-.1h-9.5v-.2c.2 0 .4-.1.4-.1.1-.1.1-.1.1-.2V1.1c0-.1 0-.2-.1-.2-.1-.1-.2-.1-.4-.1V.5h3.8v.2c-.2 0-.4.1-.4.1-.1.1-.1.1-.1.2v6.8h6.2zM58.1 6.6c0-.1-.1-.2-.2-.3-.1-.1-.2-.1-.4-.1h-3.4v1.7H60c.1 0 .2 0 .2-.1s.1-.2.1-.4h.2v3.1h-.2c0-.2-.1-.3-.1-.3s-.1-.1-.2-.1h-9v-.2c.2 0 .4-.1.4-.1.1-.1.1-.1.1-.2V1.1c0-.1 0-.2-.1-.2-.1-.1-.2-.1-.4-.1V.5h9c.1 0 .2 0 .2-.1s.1-.2.1-.4h.2v3.2h-.2c0-.2-.1-.3-.1-.4 0-.1-.1-.1-.2-.1h-5.8v1.5h3.4c.2 0 .3 0 .4-.1.1-.1.1-.2.2-.3h.2v2.8h-.3zM66.3 9.5c0 .1 0 .2.1.2.1.1.2.1.4.1v.2H63v-.1c.2 0 .4-.1.4-.1.1-.1.1-.1.1-.2V1.1c0-.1 0-.2-.1-.2-.1-.1-.2-.1-.4-.1V.5h6.7c1.3 0 2.3.2 2.9.7.6.5.9 1.3.9 2.3 0 .8-.2 1.5-.7 2-.5.5-1.1.8-1.9 1l2.1 3c.1.2.3.3.5.3v.2h-3.8v-.1c.3 0 .4-.1.4-.3 0 0 0-.1-.1-.3-.1-.1-.2-.3-.4-.5-.1-.2-.3-.4-.5-.7-.2-.2-.3-.5-.5-.7-.2-.2-.3-.4-.4-.6-.1-.2-.2-.3-.2-.3h-1.8v3zm3.1-4.9c.5 0 .9-.1 1.1-.3.2-.2.3-.4.3-.7 0-.3-.1-.5-.3-.7-.2-.2-.6-.3-1.1-.3h-3.1v2h3.1zM83.8 1.1c0-.1 0-.2-.1-.2-.1-.1-.2-.1-.4-.1V.5H87v.2c-.2 0-.4.1-.4.1-.1.1-.1.1-.1.2v4.9c0 .8-.1 1.5-.4 2-.3.5-.6 1-1.1 1.3-.5.3-1 .6-1.6.7-.6.1-1.3.2-2 .2s-1.3-.1-2-.2c-.6-.1-1.1-.4-1.6-.7-.5-.3-.8-.8-1.1-1.3-.3-.5-.4-1.2-.4-2V1.1c0-.1 0-.2-.1-.2-.1-.1-.2-.1-.4-.1V.5h3.8v.2c-.2 0-.4.1-.4.1-.1.1-.1.1-.1.2v4.9c0 .7.2 1.2.6 1.5.4.3 1 .5 1.7.5s1.3-.2 1.7-.5c.4-.3.6-.8.6-1.5V1.1zM93.2 9.5c0 .1 0 .2.1.2.1.1.2.1.4.1v.2H90v-.1c.2 0 .4-.1.4-.1.1-.1.1-.1.1-.2V1.1c0-.1 0-.2-.1-.2-.1-.1-.2-.1-.4-.1V.5h6.5c.6 0 1.1.1 1.5.2.4.2.8.4 1.1.7.3.3.5.6.7 1 .1.4.2.8.2 1.2 0 .4-.1.8-.2 1.2-.1.4-.4.7-.7 1-.3.3-.7.5-1.1.7-.4.2-.9.2-1.5.2h-3.3v2.8zM96 4.6c.5 0 .9-.1 1.1-.3.2-.2.4-.4.4-.8s-.1-.6-.4-.8-.6-.2-1.1-.2h-2.8v2.1H96z"/><g><path class="st0" d="M10.7 23.3c0 .1 0 .2.1.2.1.1.2.1.4.1v.2H7.5v-.2c.2 0 .4-.1.4-.1 0-.1.1-.1.1-.2v-3.4H3.2v3.4c0 .1 0 .2.1.2.1.1.2.1.4.1v.2H0v-.2c.2 0 .4-.1.4-.1.1-.1.1-.1.1-.2v-8.5c0-.1 0-.2-.1-.2s-.2-.1-.4-.1v-.2h3.8v.2c-.2 0-.4.1-.4.1s-.1.1-.1.2v2.9H8v-2.9c0-.1 0-.2-.1-.2-.1-.1-.2-.1-.4-.1v-.2h3.8v.2c-.2 0-.4.1-.4.1-.1.1-.1.1-.1.2v8.5zM15.7 23.4c0 .1 0 .1.1.1h.3v.2h-3.2v-.2c.1 0 .2-.1.3-.1.1-.1.1-.2.2-.3 0-.1.1-.2.2-.5s.2-.6.4-1 .3-.9.5-1.4l.6-1.5.6-1.5c.2-.5.4-.9.5-1.3.1-.4.3-.7.4-.9.1-.2.1-.4.1-.4 0-.1 0-.1-.1-.1s-.2 0-.2-.1v-.2h4.8v.2c-.1 0-.2 0-.2.1-.1 0-.1.1-.1.2 0 0 .1.2.2.5s.3.7.4 1.1c.2.5.4 1 .6 1.6.2.6.5 1.2.7 1.8.3.6.5 1.2.7 1.8.2.6.5 1.1.6 1.6l.2.4c.1.1.2.1.3.1v.2H21v-.2c.2 0 .3-.1.3-.2 0 0 0-.1-.1-.2-.1-.2-.1-.3-.2-.5s-.1-.4-.2-.5c-.1-.2-.1-.3-.1-.3h-4.3c-.1.3-.2.6-.3.8-.1.2-.1.4-.2.5 0 .1-.1.2-.1.3s-.1-.1-.1-.1zm4.4-3.1L18.3 16l-1.6 4.3h3.4zM36.2 21.6c.1 0 .2 0 .2-.1s.1-.2.1-.4h.2v3.2h-.2c0-.2-.1-.3-.1-.4 0 0-.1-.1-.2-.1h-9.5v-.2c.2 0 .4-.1.4-.1.1-.1.1-.1.1-.2v-8.5c0-.1 0-.2-.1-.2-.1-.1-.2-.1-.4-.1v-.2h3.8v.2c-.2 0-.4.1-.4.1-.1.1-.1.1-.1.2v6.8h6.2zM48.3 21.6c.1 0 .2 0 .2-.1s.1-.2.1-.4h.2v3.2h-.2c0-.2-.1-.3-.1-.4 0 0-.1-.1-.2-.1h-9.5v-.2c.2 0 .4-.1.4-.1.1-.1.1-.1.1-.2v-8.5c0-.1 0-.2-.1-.2-.1-.1-.2-.1-.4-.1v-.2h3.8v.2c-.2 0-.4.1-.4.1-.1.1-.1.1-.1.2v6.8h6.2zM58.1 20.3c0-.1-.1-.2-.2-.3-.1-.1-.2-.1-.4-.1h-3.4v1.7H60c.1 0 .2 0 .2-.1s.1-.2.1-.4h.2v3.1h-.2c0-.2-.1-.3-.1-.3s-.1-.1-.2-.1h-9v-.2c.2 0 .4-.1.4-.1.1-.1.1-.1.1-.2v-8.5c0-.1 0-.2-.1-.2-.1-.1-.2-.1-.4-.1v-.2h9c.1 0 .2 0 .2-.1s.1-.2.1-.4h.2V17h-.2c0-.2-.1-.3-.1-.4 0-.1-.1-.1-.2-.1h-5.8V18h3.4c.2 0 .3 0 .4-.1.1-.1.1-.2.2-.3h.2v2.8h-.3zM66.3 23.3c0 .1 0 .2.1.2.1.1.2.1.4.1v.2H63v-.2c.2 0 .4-.1.4-.1.1-.1.1-.1.1-.2v-8.5c0-.1 0-.2-.1-.2-.1-.1-.2-.1-.4-.1v-.2h6.7c1.3 0 2.3.2 2.9.7.6.5.9 1.3.9 2.3 0 .8-.2 1.5-.7 2-.5.5-1.1.8-1.9 1l2.1 3c.1.2.3.3.5.3v.2h-3.8v-.2c.3 0 .4-.1.4-.3 0 0 0-.1-.1-.3-.1-.1-.2-.3-.4-.5-.1-.2-.3-.4-.5-.7-.2-.2-.3-.5-.5-.7-.2-.2-.3-.4-.4-.6-.1-.2-.2-.3-.2-.3h-1.8v3.1zm3.1-5c.5 0 .9-.1 1.1-.3.2-.2.3-.4.3-.7 0-.3-.1-.5-.3-.7-.2-.2-.6-.3-1.1-.3h-3.1v2h3.1zM76.3 14.8c0-.1 0-.2-.1-.2-.1-.1-.2-.1-.4-.1v-.2h4.4v.2c-.2 0-.3 0-.4.1-.1 0-.1.1-.1.2 0 0 .1.1.2.3.2.2.4.4.6.7.3.3.5.6.9 1 .3.4.6.7 1 1.1.3.4.6.7.9 1l.8.8v-4.9c0-.2-.1-.3-.4-.3v-.2H87v.2c-.2 0-.4.1-.4.1-.1.1-.1.1-.1.2v8.5c0 .1 0 .2.1.2.1.1.2.1.4.1v.2h-3.5v-.2c.2 0 .3 0 .3-.1.1 0 .1-.1.1-.1s0-.1-.1-.1c0-.1-.1-.1-.2-.3-.1-.1-.3-.3-.5-.6-.2-.2-.5-.6-.9-1s-.9-.9-1.4-1.6c-.6-.6-1.3-1.4-2.1-2.3v5.7c0 .1 0 .2.1.2.1.1.2.1.4.1v.2h-3.5v-.2c.2 0 .4-.1.4-.1.1-.1.1-.1.1-.2v-8.4zM97.2 20.3c0-.1-.1-.2-.2-.3-.1-.1-.2-.1-.4-.1h-3.4v1.7H99c.1 0 .2 0 .2-.1s.1-.2.1-.4h.2v3.1h-.2c0-.2-.1-.3-.1-.3s-.1-.1-.2-.1h-9v-.2c.2 0 .4-.1.4-.1.1-.1.1-.1.1-.2v-8.5c0-.1 0-.2-.1-.2-.1-.1-.2-.1-.4-.1v-.2h9.1c.1 0 .2 0 .2-.1s.1-.2.1-.4h.2V17h-.2c0-.2-.1-.3-.1-.4 0-.1-.1-.1-.2-.1h-5.8V18h3.4c.2 0 .3 0 .4-.1.1-.1.1-.2.2-.3h.2v2.8h-.3z"/></g></svg>