<?xml version="1.0" encoding="UTF-8"?>
<svg width="146px" height="40px" viewBox="0 0 146 40" version="1.1" xmlns="http://www.w3.org/2000/svg" xmlns:xlink="http://www.w3.org/1999/xlink">
    <!-- Generator: Sketch 46.2 (44496) - http://www.bohemiancoding.com/sketch -->
    <title>white-stroke/medium</title>
    <desc>Created with Sketch.</desc>
    <defs>
        <rect id="path-1" x="0" y="0" width="146" height="40" rx="4"></rect>
    </defs>
    <g id="Exportable-buttons" stroke="none" stroke-width="1" fill="none" fill-rule="evenodd">
        <g id="Buttons" transform="translate(-313.000000, -120.000000)">
            <g id="white-stroke/medium" transform="translate(313.000000, 120.000000)">
                <g id="Background">
                    <use fill="#FFFFFF" fill-rule="evenodd" xlink:href="#path-1"></use>
                    <rect stroke="#5A78FF" stroke-width="2" x="1" y="1" width="144" height="38" rx="4"></rect>
                </g>
                <path d="M44.208,25 L46.032,25 C46.176,25 46.288,24.936 46.336,24.776 L48.448,18.104 C48.48,17.976 48.608,17.976 48.656,18.104 L51.168,24.728 C51.232,24.904 51.328,25 51.504,25 L52.64,25 C52.8,25 52.928,24.92 52.992,24.728 L55.424,18.104 C55.472,17.976 55.616,17.976 55.648,18.104 L57.712,24.776 C57.744,24.904 57.84,25 58,25 L59.936,25 C60.128,25 60.24,24.856 60.176,24.648 L56.992,14.376 C56.944,14.232 56.832,14.12 56.688,14.12 L55.056,14.12 C54.912,14.12 54.784,14.248 54.736,14.376 L52.224,20.856 C52.176,21 52.048,20.984 52,20.856 L49.472,14.376 C49.424,14.248 49.296,14.12 49.152,14.12 L47.52,14.12 C47.376,14.12 47.264,14.232 47.216,14.376 L43.968,24.648 C43.904,24.872 44.016,25 44.208,25 Z M64.992,25.208 C62.528,25.208 60.704,23.352 60.704,20.984 C60.704,18.6 62.528,16.76 64.992,16.76 C67.472,16.76 69.28,18.6 69.28,20.984 C69.28,23.352 67.472,25.208 64.992,25.208 Z M64.992,23.224 C66.16,23.224 67.104,22.216 67.104,20.984 C67.104,19.736 66.16,18.744 64.992,18.744 C63.84,18.744 62.88,19.736 62.88,20.984 C62.88,22.216 63.84,23.224 64.992,23.224 Z M75.296,25.208 C74.352,25.208 73.712,24.824 73.12,24.344 C72.96,24.216 72.816,24.264 72.816,24.488 L72.816,24.696 C72.816,24.856 72.688,25 72.528,25 L71.024,25 C70.864,25 70.72,24.856 70.72,24.696 L70.72,14.424 C70.72,14.264 70.864,14.12 71.024,14.12 L72.608,14.12 C72.768,14.12 72.896,14.264 72.896,14.424 L72.896,17.352 C72.896,17.56 73.04,17.624 73.264,17.464 C73.744,17.112 74.448,16.76 75.36,16.76 C77.552,16.76 79.232,18.616 79.232,20.984 C79.232,23.352 77.52,25.208 75.296,25.208 Z M74.928,23.208 C76.112,23.208 77.056,22.216 77.056,20.984 C77.056,19.736 76.112,18.744 74.928,18.744 C73.776,18.744 72.832,19.72 72.832,20.984 C72.832,22.232 73.76,23.208 74.928,23.208 Z M81.776,16.088 C82.432,16.088 82.992,15.528 82.992,14.872 C82.992,14.216 82.432,13.656 81.776,13.656 C81.12,13.656 80.56,14.216 80.56,14.872 C80.56,15.528 81.12,16.088 81.776,16.088 Z M80.96,25 L82.544,25 C82.704,25 82.848,24.856 82.848,24.696 L82.848,17.272 C82.848,17.112 82.704,16.968 82.544,16.968 L80.96,16.968 C80.8,16.968 80.672,17.112 80.672,17.272 L80.672,24.696 C80.672,24.856 80.8,25 80.96,25 Z M87.568,25.08 C87.728,25.08 87.872,24.952 87.872,24.792 L87.872,23.48 C87.872,23.304 87.728,23.176 87.568,23.176 C87.008,23.176 86.784,22.84 86.784,22.328 L86.784,14.424 C86.784,14.264 86.64,14.12 86.48,14.12 L84.896,14.12 C84.736,14.12 84.608,14.264 84.608,14.424 L84.608,22.28 C84.608,24.392 85.456,25.08 87.568,25.08 Z M92.688,25.208 C90.256,25.208 88.528,23.432 88.528,21.016 C88.528,18.584 90.32,16.76 92.72,16.76 C95.104,16.76 96.848,18.616 96.848,21.048 C96.848,21.336 96.768,21.576 96.48,21.576 L90.976,21.576 C90.832,21.576 90.784,21.656 90.8,21.784 C90.912,22.696 91.712,23.368 92.752,23.368 C93.44,23.368 93.936,23.064 94.272,22.68 C94.448,22.488 94.592,22.424 94.784,22.424 L96.256,22.424 C96.512,22.424 96.624,22.6 96.528,22.856 C96,24.216 94.496,25.208 92.688,25.208 Z M90.992,20.28 L94.368,20.28 C94.48,20.28 94.528,20.232 94.512,20.104 C94.352,19.256 93.6,18.6 92.688,18.6 C91.808,18.6 91.072,19.224 90.864,20.056 C90.832,20.168 90.848,20.28 90.992,20.28 Z M98.72,25 C98.56,25 98.432,24.856 98.432,24.696 L98.432,14.424 C98.432,14.264 98.56,14.12 98.72,14.12 L103.76,14.12 C106.064,14.12 107.632,15.464 107.632,17.72 C107.632,19.928 105.856,21.368 103.648,21.368 L100.976,21.368 C100.784,21.368 100.688,21.48 100.688,21.672 L100.688,24.696 C100.688,24.856 100.544,25 100.384,25 L98.72,25 Z M100.96,19.512 L103.648,19.512 C104.752,19.512 105.36,18.568 105.36,17.736 C105.36,16.856 104.768,16.024 103.648,16.024 L100.96,16.024 C100.768,16.024 100.688,16.12 100.688,16.312 L100.688,19.224 C100.688,19.416 100.768,19.512 100.96,19.512 Z M112.496,25.208 C110.352,25.208 108.56,23.4 108.56,20.984 C108.56,18.552 110.384,16.76 112.528,16.76 C113.44,16.76 114.08,17.112 114.656,17.576 C114.8,17.704 114.96,17.688 114.96,17.496 L114.96,17.256 C114.96,17.096 115.088,16.968 115.248,16.968 L116.752,16.968 C116.912,16.968 117.056,17.112 117.056,17.272 L117.056,22.568 C117.056,22.968 117.2,23.144 117.472,23.16 C117.616,23.176 117.744,23.272 117.744,23.416 L117.744,24.808 C117.744,24.952 117.632,25.08 117.472,25.08 C116.416,25.08 115.792,24.776 115.44,24.168 C115.344,24.008 115.232,23.976 115.072,24.136 C114.432,24.728 113.696,25.208 112.496,25.208 Z M112.864,23.224 C114.032,23.224 114.96,22.232 114.96,20.984 C114.96,19.72 114.032,18.744 112.864,18.744 C111.68,18.744 110.752,19.736 110.752,20.984 C110.752,22.216 111.68,23.224 112.864,23.224 Z M118.864,28.12 C121.2,28.12 122.368,27.144 123.472,24.536 L126.496,17.352 C126.576,17.16 126.432,16.968 126.224,16.968 L124.704,16.968 C124.544,16.968 124.464,17.064 124.4,17.224 L122.64,21.496 C122.496,21.832 122.304,21.848 122.16,21.512 L120.32,17.256 C120.256,17.096 120.16,16.968 120,16.968 L118.416,16.968 C118.224,16.968 118.064,17.144 118.16,17.4 L121.104,24.056 C121.2,24.28 121.232,24.456 121.168,24.696 C120.944,25.672 119.92,26.232 118.864,26.232 C118.704,26.232 118.56,26.36 118.56,26.52 L118.56,27.816 C118.56,27.976 118.704,28.12 118.864,28.12 Z" id="Label" fill="#5A78FF"></path>
                <g id="Logo-/-monochrome-/-symbol-/-blue" transform="translate(19.000000, 9.000000)" fill="#5A78FF">
                    <g id="Logo_monochrome_lines" transform="translate(0.647059, 0.323529)">
                        <path d="M10.0294118,14.1616609 C11.8215541,13.6154874 13.3377365,13.3408642 14.5779589,13.3377914 C16.6283927,13.3327111 18.3475044,13.7397219 19.7352941,14.5588235 L19.7352941,8.60222539 C18.3404585,7.87995624 16.7644391,7.49440574 15.0072358,7.44557389 C13.2500325,7.39674205 11.5907579,7.75460564 10.0294118,8.51916468 L10.0294118,14.1616609 Z" id="Path-4"></path>
                        <path d="M7.11764706,7.67626863 L9.32948248,12.9411765 L9.32948248,7.89545711 C10.4948405,7.27141609 11.7285529,6.87149072 13.0306196,6.69568101 C14.3326863,6.5198713 15.8126758,6.54821672 17.4705882,6.78071728 L16.267627,3.90650603 C14.5248603,3.79396102 12.864664,4.07473154 11.2870382,4.74881758 C9.7094123,5.42290362 8.31961526,6.39872064 7.11764706,7.67626863 Z" id="Path-4"></path>
                        <path d="M13.9117647,5.51631313 C13.9117647,5.00829462 13.9117647,4.24626686 13.9117647,3.23022985 C13.9117647,2.16094461 13.050212,1.29411765 11.9874328,1.29411765 L5.48315539,1.29411765 C4.42037625,1.29411765 3.55882353,2.16094461 3.55882353,3.23022985 L3.55882353,18.4462407 C3.55882353,19.515526 4.42037625,20.3823529 5.48315539,20.3823529 L11.9874328,20.3823529 C13.050212,20.3823529 13.9117647,19.515526 13.9117647,18.4462407 C13.9117647,17.4826081 13.9117647,16.8538027 13.9117647,16.5598246 C13.6166079,16.4172834 13.3997009,16.315314 13.2610437,16.2539166 C13.1146147,16.1890777 12.9038924,16.1016925 12.6288768,15.9917611 C12.6288768,16.3705593 12.6288768,17.1887191 12.6288768,18.4462407 C12.6288768,18.8026692 12.3416926,19.0916115 11.9874328,19.0916115 L5.48315539,19.0916115 C5.12889568,19.0916115 4.84171144,18.8026692 4.84171144,18.4462407 L4.84171144,3.23022985 C4.84171144,2.87380144 5.12889568,2.58485912 5.48315539,2.58485912 L11.9874328,2.58485912 C12.3416926,2.58485912 12.6288768,2.87380144 12.6288768,3.23022985 L12.6288768,5.54093026 C12.9305556,5.52189711 13.160039,5.51315357 13.3173272,5.51469965 C13.4746154,5.51624573 13.6727612,5.51678356 13.9117647,5.51631313 Z" id="Path-5" fill-rule="nonzero" transform="translate(8.735294, 10.838235) rotate(-22.400000) translate(-8.735294, -10.838235) "></path>
                    </g>
                </g>
            </g>
        </g>
    </g>
</svg>