<svg xmlns="http://www.w3.org/2000/svg" width="390" height="98" viewBox="0 0 390 98">
  <g fill="#5A78FF" fill-rule="evenodd" transform="translate(-3 -2)">
    <path d="M110.254828 67.957791L116.569607 67.957791C117.068142 67.957791 117.455892 67.734361 117.62207 67.1757863L124.933919 43.8832177C125.044705 43.4363579 125.487847 43.4363579 125.654026 43.8832177L134.350695 67.0082138C134.572266 67.6226461 134.904623 67.957791 135.513944 67.957791L139.446832 67.957791C140.00076 67.957791 140.443903 67.6785036 140.665474 67.0082138L149.085179 43.8832177C149.251358 43.4363579 149.749893 43.4363579 149.860679 43.8832177L157.006349 67.1757863C157.117135 67.6226461 157.449492 67.957791 158.00342 67.957791L164.705948 67.957791C165.370662 67.957791 165.758412 67.4550737 165.53684 66.7289264L154.513674 30.8684252C154.347495 30.3657079 153.959746 29.9747056 153.46121 29.9747056L147.811145 29.9747056C147.31261 29.9747056 146.869467 30.4215654 146.703289 30.8684252L138.00662 53.490704C137.840441 53.9934213 137.397299 53.9375639 137.231121 53.490704L128.479058 30.8684252C128.31288 30.4215654 127.869738 29.9747056 127.371203 29.9747056L121.721137 29.9747056C121.222602 29.9747056 120.834852 30.3657079 120.668674 30.8684252L109.423936 66.7289264C109.202365 67.5109311 109.590114 67.957791 110.254828 67.957791zM182.210073 68.6839382C173.679582 68.6839382 167.364803 62.2044707 167.364803 53.9375639 167.364803 45.6147996 173.679582 39.1911895 182.210073 39.1911895 190.795956 39.1911895 197.055342 45.6147996 197.055342 53.9375639 197.055342 62.2044707 190.795956 68.6839382 182.210073 68.6839382zM182.210073 61.7576108C186.253747 61.7576108 189.521922 58.2385897 189.521922 53.9375639 189.521922 49.5806805 186.253747 46.1175169 182.210073 46.1175169 178.221791 46.1175169 174.898223 49.5806805 174.898223 53.9375639 174.898223 58.2385897 178.221791 61.7576108 182.210073 61.7576108zM217.883034 68.6839382C214.614859 68.6839382 212.399147 67.3433587 210.349614 65.6676343 209.795686 65.2207745 209.297151 65.3883469 209.297151 66.1703516L209.297151 66.8964989C209.297151 67.4550737 208.854008 67.957791 208.30008 67.957791L203.093157 67.957791C202.539229 67.957791 202.040694 67.4550737 202.040694 66.8964989L202.040694 31.0359977C202.040694 30.4774229 202.539229 29.9747056 203.093157 29.9747056L208.577044 29.9747056C209.130972 29.9747056 209.574115 30.4774229 209.574115 31.0359977L209.574115 41.2579162C209.574115 41.9840635 210.07265 42.2074934 210.848149 41.6489186 212.509933 40.4200541 214.947216 39.1911895 218.104606 39.1911895 225.693419 39.1911895 231.509663 45.670657 231.509663 53.9375639 231.509663 62.2044707 225.582633 68.6839382 217.883034 68.6839382zM216.609 61.7017534C220.708067 61.7017534 223.976242 58.2385897 223.976242 53.9375639 223.976242 49.5806805 220.708067 46.1175169 216.609 46.1175169 212.620719 46.1175169 209.352544 49.5248231 209.352544 53.9375639 209.352544 58.2944472 212.565326 61.7017534 216.609 61.7017534zM240.317118 36.8451754C242.588222 36.8451754 244.52697 34.8901637 244.52697 32.6000071 244.52697 30.3098505 242.588222 28.3548387 240.317118 28.3548387 238.046013 28.3548387 236.107265 30.3098505 236.107265 32.6000071 236.107265 34.8901637 238.046013 36.8451754 240.317118 36.8451754zM237.492085 67.957791L242.975972 67.957791C243.5299 67.957791 244.028435 67.4550737 244.028435 66.8964989L244.028435 40.9786288C244.028435 40.4200541 243.5299 39.9173368 242.975972 39.9173368L237.492085 39.9173368C236.938157 39.9173368 236.495015 40.4200541 236.495015 40.9786288L236.495015 66.8964989C236.495015 67.4550737 236.938157 67.957791 237.492085 67.957791zM260.369311 68.2370784C260.923239 68.2370784 261.421774 67.7902185 261.421774 67.2316437L261.421774 62.6513305C261.421774 62.0368982 260.923239 61.5900384 260.369311 61.5900384 258.430563 61.5900384 257.655063 60.4170314 257.655063 58.6295921L257.655063 31.0359977C257.655063 30.4774229 257.156528 29.9747056 256.6026 29.9747056L251.118713 29.9747056C250.564785 29.9747056 250.121643 30.4774229 250.121643 31.0359977L250.121643 58.4620196C250.121643 65.8352068 253.057461 68.2370784 260.369311 68.2370784zM278.095006 68.6839382C269.675301 68.6839382 263.692878 62.4837581 263.692878 54.0492788 263.692878 45.5589421 269.896872 39.1911895 278.205792 39.1911895 286.459318 39.1911895 292.497133 45.670657 292.497133 54.1609938 292.497133 55.1664284 292.220169 56.0042906 291.223099 56.0042906L272.167977 56.0042906C271.669441 56.0042906 271.503263 56.283578 271.558656 56.7304378 271.946405 59.9143141 274.716045 62.2603282 278.316577 62.2603282 280.698467 62.2603282 282.415644 61.1990361 283.578893 59.8584566 284.188214 59.1881668 284.686749 58.9647369 285.351462 58.9647369L290.4476 58.9647369C291.333885 58.9647369 291.721634 59.5791692 291.389277 60.4728888 289.561315 65.2207745 284.354392 68.6839382 278.095006 68.6839382zM272.223369 51.4798348L283.91125 51.4798348C284.298999 51.4798348 284.465178 51.3122624 284.409785 50.8654025 283.855857 47.9049562 281.252395 45.6147996 278.095006 45.6147996 275.048402 45.6147996 272.500333 47.7932412 271.780227 50.6978301 271.669441 51.0888325 271.724834 51.4798348 272.223369 51.4798348zM297.859582 67.957791C297.305654 67.957791 296.862512 67.4550737 296.862512 66.8964989L296.862512 31.0359977C296.862512 30.4774229 297.305654 29.9747056 297.859582 29.9747056L315.308314 29.9747056C323.284877 29.9747056 328.713371 34.6667338 328.713371 42.5426382 328.713371 50.2509703 322.56477 55.2781433 314.920564 55.2781433L305.669967 55.2781433C305.005253 55.2781433 304.672897 55.6691457 304.672897 56.3394354L304.672897 66.8964989C304.672897 67.4550737 304.174361 67.957791 303.620433 67.957791L297.859582 67.957791zM305.614574 48.7986758L314.920564 48.7986758C318.742667 48.7986758 320.847594 45.5030846 320.847594 42.5984957 320.847594 39.5263344 318.79806 36.6217455 314.920564 36.6217455L305.614574 36.6217455C304.949861 36.6217455 304.672897 36.9568904 304.672897 37.6271801L304.672897 47.7932412C304.672897 48.463531 304.949861 48.7986758 305.614574 48.7986758zM345.020158 68.6839382C337.597523 68.6839382 331.39353 62.3720431 331.39353 53.9375639 331.39353 45.4472271 337.708309 39.1911895 345.130944 39.1911895 348.288333 39.1911895 350.504045 40.4200541 352.498186 42.0399209 352.996721 42.4867808 353.550649 42.4309233 353.550649 41.7606335L353.550649 40.9227714C353.550649 40.3641966 353.993792 39.9173368 354.54772 39.9173368L359.754643 39.9173368C360.308571 39.9173368 360.807106 40.4200541 360.807106 40.9786288L360.807106 59.4674542C360.807106 60.8638912 361.305641 61.4783235 362.247319 61.5341809 362.745854 61.5900384 363.188996 61.9251833 363.188996 62.4279006L363.188996 67.2875012C363.188996 67.7902185 362.801247 68.2370784 362.247319 68.2370784 358.591394 68.2370784 356.431075 67.1757863 355.212433 65.0532021 354.880076 64.4946273 354.492327 64.3829123 353.938399 64.9414871 351.722687 67.0082138 349.174618 68.6839382 345.020158 68.6839382zM346.294193 61.7576108C350.337867 61.7576108 353.550649 58.2944472 353.550649 53.9375639 353.550649 49.5248231 350.337867 46.1175169 346.294193 46.1175169 342.195126 46.1175169 338.982343 49.5806805 338.982343 53.9375639 338.982343 58.2385897 342.195126 61.7576108 346.294193 61.7576108zM366.533869 78.8499993C374.621217 78.8499993 378.664892 75.4426931 382.486995 66.3379241L392.956234 41.2579162C393.233198 40.5876265 392.734662 39.9173368 392.014556 39.9173368L386.75224 39.9173368C386.198312 39.9173368 385.921348 40.2524816 385.699777 40.8110564L379.606569 55.7250032C379.108034 56.8980102 378.443321 56.9538677 377.944785 55.7808606L371.574614 40.9227714C371.353042 40.3641966 371.020686 39.9173368 370.466758 39.9173368L364.982871 39.9173368C364.318157 39.9173368 363.764229 40.531769 364.096586 41.4254887L374.288861 64.6621997C374.621217 65.4442044 374.732003 66.0586367 374.510432 66.8964989 373.734933 70.3038051 370.189794 72.2588168 366.533869 72.2588168 365.979941 72.2588168 365.481406 72.7056766 365.481406 73.2642514L365.481406 77.7887072C365.481406 78.347282 365.979941 78.8499993 366.533869 78.8499993zM46.5037074 66.9460335C54.9920822 64.3641222 62.173389 63.0659036 68.0476279 63.0513775 77.7593847 63.0273618 85.9018545 64.9514124 92.4750371 68.8235294L92.4750371 40.6650655C85.8684819 37.2507022 78.4037604 35.4280999 70.0808725 35.1972584 61.7579846 34.9664169 53.8989295 36.6581358 46.5037074 40.2724148L46.5037074 66.9460335z"/>
    <path d="M32.7123085,36.2878153 L43.1885343,61.1764706 L43.1885343,37.3239791 C48.7081829,34.373967 54.5515875,32.4834107 60.7187483,31.6523102 C66.885909,30.8212098 73.8957907,30.9552063 81.7483935,32.0542999 L76.0506399,18.4671194 C67.7961299,17.9350885 59.9327097,19.2623673 52.4603794,22.4489558 C44.9880491,25.6355444 38.4053588,30.2484976 32.7123085,36.2878153 Z"/>
    <path fill-rule="nonzero" d="M64.8922392,26.0771166 C64.8922392,23.6755746 64.8922392,20.0732615 64.8922392,15.2701775 C64.8922392,10.2153745 60.8115464,6.11764706 55.7777568,6.11764706 L24.9706367,6.11764706 C19.936847,6.11764706 15.8561542,10.2153745 15.8561542,15.2701775 L15.8561542,87.2004108 C15.8561542,92.2552137 19.936847,96.3529412 24.9706367,96.3529412 L55.7777568,96.3529412 C60.8115464,96.3529412 64.8922392,92.2552137 64.8922392,87.2004108 C64.8922392,82.6450563 64.8922392,79.6725218 64.8922392,78.282807 C63.4942465,77.6089759 62.4668795,77.126939 61.8101383,76.8366965 C61.1165858,76.5301855 60.1185123,76.117092 58.8159176,75.597416 C58.8159176,77.3880983 58.8159176,81.2557632 58.8159176,87.2004108 C58.8159176,88.8853451 57.4556867,90.2512542 55.7777568,90.2512542 L24.9706367,90.2512542 C23.2927068,90.2512542 21.9324759,88.8853451 21.9324759,87.2004108 L21.9324759,15.2701775 C21.9324759,13.5852432 23.2927068,12.219334 24.9706367,12.219334 L55.7777568,12.219334 C57.4556867,12.219334 58.8159176,13.5852432 58.8159176,15.2701775 L58.8159176,26.1934885 C60.2448009,26.1035136 61.3317357,26.0621805 62.0767218,26.0694893 C62.8217079,26.076798 63.7602137,26.0793405 64.8922392,26.0771166 Z" transform="rotate(-22.4 40.374 51.235)"/>
  </g>
</svg>
